<svg width="24" height="24" viewBox="0 0 24 24" fill="none" xmlns="http://www.w3.org/2000/svg">
<path d="M7.25171 18.9259L4.23267 21.4638C4.12334 21.5557 3.99005 21.6145 3.84846 21.6332C3.70687 21.652 3.56287 21.6299 3.4334 21.5696C3.30393 21.5093 3.19437 21.4133 3.11761 21.2928C3.04084 21.1724 3.00006 21.0325 3.00006 20.8897V6C3.00006 5.80109 3.07908 5.61032 3.21973 5.46967C3.36038 5.32902 3.55115 5.25 3.75006 5.25H20.2501C20.449 5.25 20.6397 5.32902 20.7804 5.46967C20.921 5.61032 21.0001 5.80109 21.0001 6V18C21.0001 18.1989 20.921 18.3897 20.7804 18.5303C20.6397 18.671 20.449 18.75 20.2501 18.75H7.73432C7.55776 18.75 7.38686 18.8123 7.25171 18.9259Z" stroke="#ABB6C5" stroke-width="1.5" stroke-linecap="round" stroke-linejoin="round"/>
<path d="M16.5001 13.125C17.1214 13.125 17.6251 12.6213 17.6251 12C17.6251 11.3787 17.1214 10.875 16.5001 10.875C15.8787 10.875 15.3751 11.3787 15.3751 12C15.3751 12.6213 15.8787 13.125 16.5001 13.125Z" fill="#ABB6C5"/>
<path d="M12.0001 13.125C12.6214 13.125 13.1251 12.6213 13.1251 12C13.1251 11.3787 12.6214 10.875 12.0001 10.875C11.3787 10.875 10.8751 11.3787 10.8751 12C10.8751 12.6213 11.3787 13.125 12.0001 13.125Z" fill="#ABB6C5"/>
<path d="M7.50006 13.125C8.12138 13.125 8.62506 12.6213 8.62506 12C8.62506 11.3787 8.12138 10.875 7.50006 10.875C6.87874 10.875 6.37506 11.3787 6.37506 12C6.37506 12.6213 6.87874 13.125 7.50006 13.125Z" fill="#ABB6C5"/>
</svg>
