<svg width="70" height="53" viewBox="0 0 70 53" fill="none" xmlns="http://www.w3.org/2000/svg">
<path d="M24.9982 39.5247C31.6465 38.8253 38.3499 38.8253 44.9982 39.5247M9.10087 50.2554C9.17881 50.584 9.32242 50.8935 9.52307 51.1651C9.72372 51.4368 9.97726 51.6651 10.2684 51.8362C10.5596 52.0074 10.8824 52.1179 11.2174 52.161C11.5523 52.2041 11.8926 52.1791 12.2176 52.0873C27.1205 47.9725 42.8596 47.9711 57.7632 52.083C58.0882 52.1747 58.4283 52.1997 58.7631 52.1565C59.098 52.1134 59.4206 52.003 59.7117 51.8319C60.0028 51.6609 60.2563 51.4327 60.4569 51.1612C60.6576 50.8897 60.8012 50.5804 60.8793 50.2519L68.8445 16.4029C68.9511 15.9498 68.9291 15.4758 68.781 15.0345C68.6328 14.5932 68.3644 14.2021 68.0059 13.9051C67.6474 13.6081 67.2131 13.4171 66.7519 13.3536C66.2908 13.2901 65.821 13.3567 65.3956 13.5457L49.5882 20.5712C49.0174 20.8249 48.3723 20.8558 47.7799 20.6576C47.1876 20.4595 46.6908 20.0468 46.3875 19.5008L37.1836 2.93384C36.9671 2.54411 36.6503 2.21937 36.266 1.99327C35.8817 1.76718 35.444 1.64795 34.9982 1.64795C34.5523 1.64795 34.1146 1.76718 33.7304 1.99327C33.3461 2.21937 33.0293 2.54411 32.8128 2.93384L23.6089 19.5008C23.3056 20.0468 22.8088 20.4595 22.2164 20.6576C21.6241 20.8557 20.979 20.8249 20.4082 20.5712L4.59835 13.5447C4.17304 13.3556 3.7034 13.2891 3.24231 13.3525C2.78122 13.4159 2.34699 13.6068 1.98852 13.9037C1.63004 14.2005 1.36155 14.5915 1.21327 15.0327C1.06499 15.4739 1.04282 15.9477 1.14924 16.4008L9.10087 50.2554Z" stroke="#5E718D" stroke-width="1.5" stroke-linecap="round" stroke-linejoin="round"/>
</svg>
