<svg width="24" height="24" viewBox="0 0 24 24" fill="none" xmlns="http://www.w3.org/2000/svg">
<path d="M18 3.75H6C4.75736 3.75 3.75 4.75736 3.75 6V18C3.75 19.2426 4.75736 20.25 6 20.25H18C19.2426 20.25 20.25 19.2426 20.25 18V6C20.25 4.75736 19.2426 3.75 18 3.75Z" stroke="#161718" stroke-width="1.5" stroke-linecap="round" stroke-linejoin="round"/>
<path d="M15.375 17.25C15.9963 17.25 16.5 16.7463 16.5 16.125C16.5 15.5037 15.9963 15 15.375 15C14.7537 15 14.25 15.5037 14.25 16.125C14.25 16.7463 14.7537 17.25 15.375 17.25Z" fill="#161718"/>
<path d="M8.625 17.25C9.24632 17.25 9.75 16.7463 9.75 16.125C9.75 15.5037 9.24632 15 8.625 15C8.00368 15 7.5 15.5037 7.5 16.125C7.5 16.7463 8.00368 17.25 8.625 17.25Z" fill="#161718"/>
<path d="M15.375 13.125C15.9963 13.125 16.5 12.6213 16.5 12C16.5 11.3787 15.9963 10.875 15.375 10.875C14.7537 10.875 14.25 11.3787 14.25 12C14.25 12.6213 14.7537 13.125 15.375 13.125Z" fill="#161718"/>
<path d="M8.625 13.125C9.24632 13.125 9.75 12.6213 9.75 12C9.75 11.3787 9.24632 10.875 8.625 10.875C8.00368 10.875 7.5 11.3787 7.5 12C7.5 12.6213 8.00368 13.125 8.625 13.125Z" fill="#161718"/>
<path d="M15.375 9C15.9963 9 16.5 8.49632 16.5 7.875C16.5 7.25368 15.9963 6.75 15.375 6.75C14.7537 6.75 14.25 7.25368 14.25 7.875C14.25 8.49632 14.7537 9 15.375 9Z" fill="#161718"/>
<path d="M8.625 9C9.24632 9 9.75 8.49632 9.75 7.875C9.75 7.25368 9.24632 6.75 8.625 6.75C8.00368 6.75 7.5 7.25368 7.5 7.875C7.5 8.49632 8.00368 9 8.625 9Z" fill="#161718"/>
</svg>
