<svg width="80" height="80" viewBox="0 0 80 80" fill="none" xmlns="http://www.w3.org/2000/svg">
<path d="M47.4984 33.75H57.4984M22.4984 33.75H32.4984M27.4984 28.75V38.75M69.7573 30.8469L74.867 57.2291C75.19 59.0618 74.9204 60.9496 74.0973 62.6186C73.2742 64.2875 71.9405 65.6506 70.2899 66.5099C68.6393 67.3692 66.7577 67.6799 64.9185 67.3969C63.0793 67.1139 61.3782 66.252 60.0622 64.9363L46.5609 49.9475M53.7542 17.4187L26.2498 17.5C22.4293 17.5003 18.7309 18.8463 15.804 21.3019C12.877 23.7574 10.9085 27.1654 10.2441 30.9277L5.13284 57.2291C4.80984 59.0618 5.07946 60.9496 5.90254 62.6186C6.72563 64.2875 8.05933 65.6506 9.70993 66.5099C11.3605 67.3691 13.2421 67.6799 15.0813 67.3969C16.9205 67.1139 18.6217 66.252 19.9376 64.9363L33.4482 50L53.7542 49.9187C58.0639 49.9187 62.1972 48.2067 65.2447 45.1592C68.2921 42.1117 70.0042 37.9785 70.0042 33.6687C70.0042 29.3589 68.2921 25.2257 65.2447 22.1782C62.1972 19.1307 58.0639 17.4187 53.7542 17.4187Z" stroke="#5E718D" stroke-width="1.5" stroke-linecap="round" stroke-linejoin="round"/>
</svg>
