<svg width="22" height="18" viewBox="0 0 22 18" fill="none" xmlns="http://www.w3.org/2000/svg">
<path d="M11 17.25C11 17.25 1.625 12 1.625 5.62501C1.62519 4.49826 2.01561 3.40635 2.72989 2.53493C3.44416 1.66351 4.4382 1.06636 5.54299 0.845015C6.64778 0.623669 7.79514 0.791788 8.78999 1.32079C9.78484 1.84979 10.5658 2.70702 11 3.74673L11 3.74673C11.4342 2.70702 12.2152 1.84979 13.21 1.32079C14.2049 0.79179 15.3522 0.62367 16.457 0.845015C17.5618 1.06636 18.5558 1.66351 19.2701 2.53493C19.9844 3.40635 20.3748 4.49826 20.375 5.62501C20.375 12 11 17.25 11 17.25Z" stroke="#15803d" stroke-width="1.5" stroke-linecap="round" stroke-linejoin="round"/>
</svg>
