<svg width="80" height="80" viewBox="0 0 80 80" fill="none" xmlns="http://www.w3.org/2000/svg">
<path d="M10 52.4999L25.7322 36.7678C25.9643 36.5356 26.2399 36.3515 26.5432 36.2258C26.8466 36.1002 27.1716 36.0355 27.5 36.0355C27.8283 36.0355 28.1533 36.1002 28.4567 36.2258C28.76 36.3515 29.0356 36.5356 29.2677 36.7678L43.2322 50.7322C43.4643 50.9644 43.7399 51.1485 44.0432 51.2742C44.3466 51.3998 44.6716 51.4645 45 51.4645C45.3283 51.4645 45.6533 51.3998 45.9567 51.2742C46.26 51.1485 46.5356 50.9644 46.7677 50.7322L53.2322 44.2678C53.4643 44.0356 53.7399 43.8515 54.0432 43.7258C54.3466 43.6002 54.6716 43.5355 54.9999 43.5355C55.3283 43.5355 55.6533 43.6002 55.9567 43.7258C56.26 43.8515 56.5356 44.0356 56.7677 44.2678L69.9999 57.5M12.5 15H67.5C68.8807 15 70 16.1193 70 17.5V62.5C70 63.8807 68.8807 65 67.5 65H12.5C11.1193 65 10 63.8807 10 62.5V17.5C10 16.1193 11.1193 15 12.5 15ZM52.5 31.25C52.5 33.3211 50.8211 35 48.75 35C46.6789 35 45 33.3211 45 31.25C45 29.1789 46.6789 27.5 48.75 27.5C50.8211 27.5 52.5 29.1789 52.5 31.25Z" stroke="#5E718D" stroke-linecap="round" stroke-linejoin="round"/>
</svg>
