<svg width="24" height="24" viewBox="0 0 24 24" fill="none" xmlns="http://www.w3.org/2000/svg">
<path d="M11.25 10.5001V16.5001M11.25 13.1251C11.25 12.4289 11.5266 11.7612 12.0188 11.2689C12.5111 10.7766 13.1788 10.5001 13.875 10.5001C14.5712 10.5001 15.2389 10.7766 15.7312 11.2689C16.2234 11.7612 16.5 12.4289 16.5 13.1251V16.5001M8.25 10.5001V16.5001M4.5 3.75H19.5C19.9142 3.75 20.25 4.08579 20.25 4.5V19.5C20.25 19.9142 19.9142 20.25 19.5 20.25H4.5C4.08579 20.25 3.75 19.9142 3.75 19.5V4.5C3.75 4.08579 4.08579 3.75 4.5 3.75Z" stroke="#F0F0F0" stroke-linecap="round" stroke-linejoin="round"/>
<path d="M8.25 8.625C8.87132 8.625 9.375 8.12132 9.375 7.5C9.375 6.87868 8.87132 6.375 8.25 6.375C7.62868 6.375 7.125 6.87868 7.125 7.5C7.125 8.12132 7.62868 8.625 8.25 8.625Z" fill="#F0F0F0"/>
</svg>
