<svg width="24" height="24" viewBox="0 0 24 24" fill="none" xmlns="http://www.w3.org/2000/svg">
<path d="M14.4289 12.6295L17.6864 15.1631C17.8973 15.3741 18.1835 15.4926 18.4819 15.4926C18.7802 15.4926 19.0664 15.3741 19.2774 15.1631C19.4883 14.9522 19.6069 14.666 19.6069 14.3676C19.6069 14.0693 19.4883 13.7831 19.2774 13.5721L15.565 8.79917C15.3911 8.6248 15.1845 8.48652 14.9569 8.39228C14.7294 8.29803 14.4855 8.24968 14.2392 8.25H9.73922C9.49295 8.24968 9.24904 8.29803 9.02151 8.39228C8.79398 8.48652 8.58732 8.6248 8.4134 8.79917L4.70109 13.5721C4.59662 13.6766 4.51375 13.8006 4.45722 13.9371C4.40068 14.0736 4.37158 14.2199 4.37158 14.3676C4.37158 14.5154 4.40068 14.6617 4.45722 14.7982C4.51375 14.9347 4.59662 15.0587 4.70109 15.1631C4.80555 15.2676 4.92957 15.3505 5.06606 15.407C5.20255 15.4635 5.34885 15.4926 5.49658 15.4926C5.64432 15.4926 5.79061 15.4635 5.9271 15.407C6.06359 15.3505 6.18761 15.2676 6.29208 15.1631L9.54957 12.6295L6.94955 20.8415C6.82345 21.1119 6.80994 21.4213 6.91199 21.7017C7.01404 21.9821 7.22328 22.2104 7.4937 22.3365C7.76411 22.4626 8.07354 22.4761 8.35391 22.3741C8.63429 22.272 8.86264 22.0628 8.98874 21.7924L11.9892 17.0701L14.9897 21.7924C15.1162 22.0621 15.3445 22.2707 15.6246 22.3724C15.9047 22.474 16.2137 22.4603 16.4838 22.3344C16.7538 22.2085 16.9629 21.9806 17.0651 21.7007C17.1673 21.4208 17.1543 21.1118 17.0289 20.8415L14.4289 12.6295Z" stroke="#5E718D" stroke-width="1.5" stroke-linecap="round" stroke-linejoin="round"/>
<path d="M11.9892 6.75C13.439 6.75 14.6142 5.57475 14.6142 4.125C14.6142 2.67525 13.439 1.5 11.9892 1.5C10.5395 1.5 9.36422 2.67525 9.36422 4.125C9.36422 5.57475 10.5395 6.75 11.9892 6.75Z" stroke="#5E718D" stroke-width="1.5" stroke-linecap="round" stroke-linejoin="round"/>
</svg>
