<svg width="24" height="24" viewBox="0 0 24 24" fill="none" xmlns="http://www.w3.org/2000/svg">
<path d="M2.25586 19.8739C2.04865 20.2326 2.17143 20.6913 2.53009 20.8985C2.88875 21.1057 3.34747 20.983 3.55468 20.6243L2.25586 19.8739ZM20.4455 20.6245C20.6527 20.9831 21.1115 21.1059 21.4701 20.8987C21.8288 20.6915 21.9516 20.2328 21.7444 19.8741L20.4455 20.6245ZM3.55468 20.6243C4.41093 19.1422 5.64212 17.9116 7.12457 17.056L6.37476 15.7568C4.66433 16.744 3.24379 18.1639 2.25586 19.8739L3.55468 20.6243ZM7.12457 17.056C8.60702 16.2004 10.2885 15.75 12.0002 15.75L12.0002 14.25C10.0253 14.25 8.0852 14.7697 6.37476 15.7568L7.12457 17.056ZM12.0002 15.75C13.7118 15.75 15.3933 16.2005 16.8757 17.0561L17.6255 15.757C15.9151 14.7697 13.975 14.25 12.0002 14.25L12.0002 15.75ZM16.8757 17.0561C18.3581 17.9117 19.5893 19.1424 20.4455 20.6245L21.7444 19.8741C20.7565 18.1641 19.336 16.7442 17.6255 15.757L16.8757 17.0561ZM17.2501 9C17.2501 11.8995 14.8996 14.25 12.0002 14.25V15.75C15.7281 15.75 18.7501 12.7279 18.7501 9H17.2501ZM12.0002 14.25C9.10065 14.25 6.75005 11.8995 6.75005 9H5.25005C5.25005 12.7279 8.27226 15.75 12.0002 15.75V14.25ZM6.75005 9C6.75005 6.1005 9.10056 3.75 12.0001 3.75V2.25C8.27213 2.25 5.25005 5.27208 5.25005 9H6.75005ZM12.0001 3.75C14.8995 3.75 17.2501 6.1005 17.2501 9H18.7501C18.7501 5.27208 15.728 2.25 12.0001 2.25V3.75Z" fill="#161718"/>
</svg>
