<svg width="80" height="80" viewBox="0 0 80 80" fill="none" xmlns="http://www.w3.org/2000/svg">
<path d="M19.9986 67.5001C19.6703 67.5001 19.3452 67.4354 19.0419 67.3098C18.7386 67.1841 18.463 67 18.2309 66.7678C17.9987 66.5357 17.8146 66.2601 17.6889 65.9568C17.5633 65.6534 17.4986 65.3284 17.4986 65L17.4988 51.658C16.1651 52.2896 14.6934 52.5737 13.2204 52.4838C11.7474 52.3939 10.3212 51.933 9.07419 51.1438C7.82723 50.3547 6.80011 49.2629 6.08838 47.9702C5.37664 46.6775 5.00342 45.2258 5.00342 43.7501C5.00342 42.2744 5.37664 40.8227 6.08838 39.5299C6.80011 38.2372 7.82723 37.1455 9.07419 36.3563C10.3212 35.5672 11.7474 35.1062 13.2204 35.0163C14.6934 34.9264 16.1651 35.2105 17.4988 35.8422L17.4986 22.5001C17.4986 22.1718 17.5633 21.8467 17.6889 21.5434C17.8146 21.2401 17.9987 20.9645 18.2309 20.7323C18.463 20.5002 18.7386 20.316 19.042 20.1904C19.3453 20.0647 19.6704 20.0001 19.9987 20.0001L34.5907 20.0002C33.9591 18.6666 33.675 17.1948 33.7649 15.7219C33.8548 14.2489 34.3157 12.8226 35.1049 11.5756C35.894 10.3287 36.9857 9.30157 38.2785 8.58984C39.5712 7.87811 41.0229 7.50488 42.4986 7.50488C43.9743 7.50488 45.426 7.87811 46.7187 8.58984C48.0114 9.30157 49.1032 10.3287 49.8923 11.5756C50.6815 12.8226 51.1424 14.2489 51.2323 15.7219C51.3222 17.1948 51.0381 18.6666 50.4065 20.0002L64.9985 20.0001C65.6615 20.0001 66.2974 20.2635 66.7663 20.7323C67.2351 21.2011 67.4985 21.837 67.4985 22.5L67.4987 35.8422C66.165 35.2105 64.6932 34.9264 63.2203 35.0163C61.7473 35.1062 60.321 35.5672 59.0741 36.3563C57.8271 37.1455 56.8 38.2372 56.0883 39.5299C55.3765 40.8227 55.0033 42.2744 55.0033 43.7501C55.0033 45.2258 55.3765 46.6775 56.0883 47.9702C56.8 49.2629 57.8271 50.3547 59.0741 51.1438C60.321 51.933 61.7473 52.3939 63.2203 52.4838C64.6932 52.5737 66.165 52.2896 67.4987 51.658L67.4985 65.0001C67.4985 65.6631 67.2351 66.299 66.7663 66.7679C66.2974 67.2367 65.6616 67.5001 64.9985 67.5001L19.9986 67.5001Z" stroke="#5E718D" stroke-width="1.5" stroke-linecap="round" stroke-linejoin="round"/>
</svg>
