<svg width="24" height="24" viewBox="0 0 24 24" fill="none" xmlns="http://www.w3.org/2000/svg">
<path d="M1.5 12.75C1.08579 12.75 0.75 13.0858 0.75 13.5C0.75 13.9142 1.08579 14.25 1.5 14.25V12.75ZM16.5 14.25C16.9142 14.25 17.25 13.9142 17.25 13.5C17.25 13.0858 16.9142 12.75 16.5 12.75V14.25ZM15.75 16.0514C15.75 16.4656 16.0858 16.8014 16.5 16.8014C16.9142 16.8014 17.25 16.4656 17.25 16.0514H15.75ZM22.5 11.25H23.25C23.25 11.1546 23.2318 11.06 23.1964 10.9715L22.5 11.25ZM16.5 7.5V6.75C16.0858 6.75 15.75 7.08579 15.75 7.5H16.5ZM20.4922 7.5V6.75V7.5ZM21.1886 7.97146L21.8849 7.69291V7.69291L21.1886 7.97146ZM1.5 17.25H0.75H1.5ZM2.25 6V6.75V6ZM16.5 6H17.25C17.25 5.58579 16.9142 5.25 16.5 5.25V6ZM15.375 17.25H8.625V18.75H15.375V17.25ZM19.125 18C19.125 18.8284 18.4534 19.5 17.625 19.5V21C19.2819 21 20.625 19.6569 20.625 18H19.125ZM17.625 19.5C16.7966 19.5 16.125 18.8284 16.125 18H14.625C14.625 19.6569 15.9681 21 17.625 21V19.5ZM16.125 18C16.125 17.1716 16.7966 16.5 17.625 16.5V15C15.9681 15 14.625 16.3431 14.625 18H16.125ZM17.625 16.5C18.4534 16.5 19.125 17.1716 19.125 18H20.625C20.625 16.3431 19.2819 15 17.625 15V16.5ZM7.875 18C7.875 18.8284 7.20343 19.5 6.375 19.5V21C8.03185 21 9.375 19.6569 9.375 18H7.875ZM6.375 19.5C5.54657 19.5 4.875 18.8284 4.875 18H3.375C3.375 19.6569 4.71815 21 6.375 21V19.5ZM4.875 18C4.875 17.1716 5.54657 16.5 6.375 16.5V15C4.71815 15 3.375 16.3431 3.375 18H4.875ZM6.375 16.5C7.20343 16.5 7.875 17.1716 7.875 18H9.375C9.375 16.3431 8.03185 15 6.375 15V16.5ZM1.5 14.25H16.5V12.75H1.5V14.25ZM17.25 16.0514V11.25H15.75V16.0514H17.25ZM16.5 12H22.5V10.5H16.5V12ZM21.75 11.25V17.25H23.25V11.25H21.75ZM21.75 17.25V17.25L22.8107 18.3107C23.092 18.0294 23.25 17.6478 23.25 17.25H21.75ZM21.75 17.25V17.25V18.75C22.1478 18.75 22.5294 18.592 22.8107 18.3107L21.75 17.25ZM21.75 17.25H19.875V18.75H21.75V17.25ZM17.25 11.25V7.5H15.75V11.25H17.25ZM16.5 8.25H20.4922V6.75H16.5V8.25ZM20.4922 8.25V8.25L21.3332 7.0079C21.0849 6.83983 20.792 6.75 20.4922 6.75V8.25ZM20.4922 8.25V8.25L21.8849 7.69291C21.7736 7.41457 21.5814 7.17597 21.3332 7.0079L20.4922 8.25ZM20.4922 8.25L21.8036 11.5285L23.1964 10.9715L21.8849 7.69291L20.4922 8.25ZM4.125 17.25H2.25V18.75H4.125V17.25ZM2.25 17.25L2.25 17.25L1.18934 18.3107C1.47065 18.592 1.85218 18.75 2.25 18.75V17.25ZM2.25 17.25L2.25 17.25H0.75C0.75 17.6478 0.908035 18.0294 1.18934 18.3107L2.25 17.25ZM2.25 17.25V6.75H0.75V17.25H2.25ZM2.25 6.75L2.25 6.75L1.18934 5.68934C0.908035 5.97064 0.75 6.35218 0.75 6.75H2.25ZM2.25 6.75L2.25 6.75V5.25C1.85217 5.25 1.47064 5.40804 1.18934 5.68934L2.25 6.75ZM2.25 6.75H16.5V5.25H2.25V6.75ZM15.75 6V16.0514H17.25V6H15.75Z" fill="#161718"/>
</svg>
