<svg width="80" height="80" viewBox="0 0 80 80" fill="none" xmlns="http://www.w3.org/2000/svg">
<path d="M48.3647 17.383C47.966 17.4953 47.7339 17.9096 47.8462 18.3083C47.9585 18.707 48.3728 18.9391 48.7715 18.8268L48.3647 17.383ZM52.9773 49.9996L52.9768 49.2496C52.5627 49.2499 52.2272 49.5858 52.2273 49.9999C52.2275 50.414 52.5633 50.7496 52.9774 50.7496L52.9773 49.9996ZM74.8636 62.1153C75.1016 62.4543 75.5694 62.5362 75.9084 62.2981C76.2474 62.0601 76.3293 61.5924 76.0913 61.2534L74.8636 62.1153ZM4.38694 61.2547C4.14871 61.5936 4.23029 62.0614 4.56915 62.2996C4.908 62.5378 5.37582 62.4562 5.61404 62.1174L4.38694 61.2547ZM49.3884 62.1157C49.6266 62.4546 50.0945 62.5361 50.4333 62.2978C50.7721 62.0596 50.8537 61.5918 50.6154 61.2529L49.3884 62.1157ZM43.0018 33.7496C43.0018 42.31 36.0622 49.2496 27.5018 49.2496V50.7496C36.8906 50.7496 44.5018 43.1384 44.5018 33.7496H43.0018ZM27.5018 49.2496C18.9414 49.2496 12.0018 42.31 12.0018 33.7496H10.5018C10.5018 43.1384 18.113 50.7496 27.5018 50.7496V49.2496ZM12.0018 33.7496C12.0018 25.1892 18.9414 18.2496 27.5018 18.2496V16.7496C18.113 16.7496 10.5018 24.3607 10.5018 33.7496H12.0018ZM27.5018 18.2496C36.0622 18.2496 43.0018 25.1892 43.0018 33.7496H44.5018C44.5018 24.3607 36.8906 16.7496 27.5018 16.7496V18.2496ZM48.7715 18.8268C50.9034 18.2261 53.1393 18.0893 55.3286 18.4255L55.5562 16.9429C53.1552 16.5741 50.7029 16.7242 48.3647 17.383L48.7715 18.8268ZM55.3286 18.4255C57.5178 18.7617 59.6096 19.5631 61.463 20.7759L62.2843 19.5207C60.2515 18.1906 57.9573 17.3116 55.5562 16.9429L55.3286 18.4255ZM61.463 20.7759C63.3165 21.9886 64.8885 23.5844 66.0732 25.4558L67.3406 24.6535C66.0412 22.6009 64.3171 20.8507 62.2843 19.5207L61.463 20.7759ZM66.0732 25.4558C67.258 27.3272 68.028 29.4308 68.3313 31.6249L69.8172 31.4194C69.4845 29.0131 68.64 26.706 67.3406 24.6535L66.0732 25.4558ZM68.3313 31.6249C68.6346 33.8189 68.4642 36.0525 67.8316 38.1752L69.2691 38.6036C69.963 36.2755 70.1498 33.8258 69.8172 31.4194L68.3313 31.6249ZM67.8316 38.1752C67.199 40.2978 66.1189 42.2603 64.664 43.9303L65.795 44.9156C67.3907 43.084 68.5753 40.9316 69.2691 38.6036L67.8316 38.1752ZM64.664 43.9303C63.2091 45.6004 61.4132 46.9393 59.3973 47.8569L60.0187 49.2221C62.2297 48.2158 64.1993 46.7473 65.795 44.9156L64.664 43.9303ZM59.3973 47.8569C57.3813 48.7744 55.1922 49.2493 52.9773 49.2496L52.9774 50.7496C55.4067 50.7493 57.8077 50.2284 60.0187 49.2221L59.3973 47.8569ZM52.9779 50.7496C57.2706 50.7465 61.5009 51.7778 65.3106 53.7562L66.0019 52.425C61.9783 50.3355 57.5106 49.2463 52.9768 49.2496L52.9779 50.7496ZM65.3106 53.7562C69.1202 55.7346 72.397 58.6019 74.8636 62.1153L76.0913 61.2534C73.4862 57.5428 70.0254 54.5145 66.0019 52.425L65.3106 53.7562ZM5.61404 62.1174C8.08276 58.6058 11.3601 55.7398 15.1695 53.7612L14.4781 52.4301C10.4552 54.5195 6.99406 57.5463 4.38694 61.2547L5.61404 62.1174ZM15.1695 53.7612C18.9788 51.7827 23.2093 50.7497 27.5018 50.7496L27.5018 49.2496C22.9686 49.2497 18.501 50.3406 14.4781 52.4301L15.1695 53.7612ZM27.5018 50.7496C31.7943 50.7494 36.0228 51.782 39.8323 53.7603L40.5236 52.4291C36.5006 50.3399 32.035 49.2494 27.5018 49.2496L27.5018 50.7496ZM39.8323 53.7603C43.6418 55.7385 46.9194 58.6043 49.3884 62.1157L50.6154 61.2529C48.008 57.5447 44.5467 54.5182 40.5236 52.4291L39.8323 53.7603Z" fill="#5E718D"/>
</svg>
