<svg width="463" height="489" viewBox="0 0 463 489" fill="none" xmlns="http://www.w3.org/2000/svg">
<g clip-path="url(#clip0_828_4556)">
<path d="M32.4943 111.046L41.5432 105.941C41.5432 105.941 42.3658 139.244 42.3658 146.748C42.3658 154.252 41.3375 169.91 54.4995 175.46C67.6958 181.011 86.3762 188.309 86.3762 188.309L68.6898 199.684C68.6898 199.684 50.8663 191.941 41.6803 186.287C28.7925 178.338 30.1293 156.616 30.1293 142.842C30.1293 129.068 32.4943 111.046 32.4943 111.046Z" fill="#422422"/>
<path d="M86.3753 181.525C90.2485 181.525 93.4362 184.711 93.4362 188.583V253.717C93.4362 257.588 90.2485 260.775 86.3753 260.775C82.5021 260.775 79.3145 257.588 79.3145 253.717V188.583C79.3145 184.711 82.5021 181.525 86.3753 181.525Z" fill="#422422"/>
<path d="M86.3765 215.445C111.042 215.445 131.038 204.814 131.038 191.701C131.038 178.587 111.042 167.957 86.3765 167.957C61.7105 167.957 41.7148 178.587 41.7148 191.701C41.7148 204.814 61.7105 215.445 86.3765 215.445Z" fill="#C19D99"/>
<path d="M131.038 187.212H41.7148V192.386H131.038V187.212Z" fill="#C19D99"/>
<path d="M86.3765 163.468C111.055 163.468 131.038 174.09 131.038 187.212C131.038 200.335 111.055 210.957 86.3765 210.957C61.6977 210.957 41.7148 200.335 41.7148 187.212C41.7148 174.09 61.6977 163.468 86.3765 163.468Z" fill="#C19D99"/>
<path d="M86.3774 161.995C109.891 161.995 128.948 172.137 128.948 184.609C128.948 197.08 109.891 207.222 86.3774 207.222C62.8641 207.222 43.8066 197.08 43.8066 184.609C43.8066 172.137 62.8641 161.995 86.3774 161.995Z" fill="#394248"/>
<path d="M126.685 170.081L128.947 184.643H43.8398L46.1021 170.081H126.685Z" fill="#394248"/>
<path d="M86.3756 151.956C108.964 151.956 127.267 161.687 127.267 173.713C127.267 185.739 108.964 195.47 86.3756 195.47C63.7878 195.47 45.4844 185.739 45.4844 173.713C45.4844 161.687 63.7878 151.956 86.3756 151.956Z" fill="#343438"/>
<path d="M23.3419 65.5792L35.5099 58.5553C48.3291 51.1545 58.8519 59.0692 58.8519 76.2007V125.06L0 159.014V110.155C0 93.058 10.4885 72.98 23.3419 65.5792Z" fill="#394248"/>
<path d="M52.0645 69.3824L51.002 57.5274L60.9763 63.4549L52.0645 69.3824Z" fill="#394248"/>
<path d="M9.7001 164.77L0 159.014L11.4825 147.707L9.7001 164.77Z" fill="#394248"/>
<path d="M33.0412 71.3696L45.2091 64.3457C58.0284 56.9449 68.5511 64.8596 68.5511 81.9911V130.85L9.69922 164.77V115.911C9.69922 98.8142 20.1877 78.7361 33.0412 71.3353V71.3696Z" fill="#343438"/>
<path d="M134.191 289.83C137.482 291.714 140.121 296.819 140.121 301.171C140.121 305.522 137.448 307.544 134.191 305.659C130.901 303.775 128.262 298.67 128.262 294.318C128.262 289.967 130.935 287.945 134.191 289.83Z" fill="#422422"/>
<path d="M138.065 306.002L133.301 308.777L126 292.091L130.593 289.384L138.065 306.002Z" fill="#422422"/>
<path d="M129.393 292.605C132.683 294.49 135.322 299.595 135.322 303.946C135.322 308.297 132.649 310.319 129.393 308.435C126.102 306.55 123.463 301.445 123.463 297.094C123.463 292.742 126.136 290.721 129.393 292.605Z" fill="#422422"/>
<path d="M41.8852 230.692L135.836 284.896C138.201 286.266 139.023 289.282 137.652 291.646C136.281 294.01 133.265 294.832 130.9 293.462L36.9495 239.258C34.5844 237.887 33.7618 234.872 35.1328 232.508C36.5039 230.144 39.5202 229.322 41.8852 230.692Z" fill="#422422"/>
<path d="M36.9495 284.896L130.9 230.692C133.265 229.322 136.281 230.144 137.652 232.508C139.023 234.872 138.201 237.887 135.836 239.258L41.8852 293.462C39.5202 294.832 36.5039 294.01 35.1328 291.646C33.7618 289.282 34.5844 286.266 36.9495 284.896Z" fill="#422422"/>
<path d="M42.0919 235.592C45.3823 237.476 48.0216 242.581 48.0216 246.933C48.0216 251.284 45.3481 253.306 42.0919 251.421C38.8014 249.537 36.1621 244.431 36.1621 240.08C36.1621 235.729 38.8356 233.707 42.0919 235.592Z" fill="#422422"/>
<path d="M45.9655 251.764L41.2012 254.539L33.9004 237.853L38.4934 235.146L45.9655 251.764Z" fill="#422422"/>
<path d="M37.293 238.367C40.5835 240.251 43.2228 245.357 43.2228 249.708C43.2228 254.059 40.5492 256.081 37.293 254.196C34.0025 252.312 31.3633 247.207 31.3633 242.855C31.3633 238.504 34.0368 236.482 37.293 238.367Z" fill="#422422"/>
<path d="M47.8829 291.235C51.1734 293.119 53.8126 298.224 53.8126 302.576C53.8126 306.927 51.1391 308.949 47.8829 307.064C44.5924 305.18 41.9531 300.074 41.9531 295.723C41.9531 291.372 44.6267 289.35 47.8829 291.235Z" fill="#422422"/>
<path d="M51.7566 307.407L46.9922 310.148L39.6914 293.462L44.2844 290.789L51.7566 307.407Z" fill="#422422"/>
<path d="M43.084 294.01C46.3745 295.894 49.0138 301 49.0138 305.351C49.0138 309.702 46.3403 311.724 43.084 309.839C39.7935 307.955 37.1543 302.85 37.1543 298.498C37.1543 294.147 39.8278 292.125 43.084 294.01Z" fill="#422422"/>
<path d="M137.96 238.675C141.251 240.56 143.89 245.665 143.89 250.016C143.89 254.368 141.216 256.389 137.96 254.505C134.67 252.62 131.996 247.515 131.996 243.164C131.996 238.812 134.67 236.791 137.96 238.675Z" fill="#422422"/>
<path d="M141.835 254.847L137.07 257.623L129.77 240.937L134.363 238.23L141.835 254.847Z" fill="#422422"/>
<path d="M133.162 241.451C136.453 243.335 139.092 248.44 139.092 252.792C139.092 257.143 136.418 259.164 133.162 257.28C129.872 255.396 127.232 250.29 127.232 245.939C127.232 241.588 129.906 239.566 133.162 241.451Z" fill="#422422"/>
<path d="M415.938 107.003L406.89 101.898C406.89 101.898 406.067 135.201 406.067 142.705C406.067 150.209 407.095 165.867 393.933 171.417C380.737 176.968 362.057 184.266 362.057 184.266L379.743 195.641C379.743 195.641 397.567 187.898 406.753 182.244C419.64 174.295 418.304 152.573 418.304 138.799C418.304 125.025 415.938 107.003 415.938 107.003Z" fill="#422422"/>
<path d="M362.057 177.482C358.184 177.482 354.996 180.668 354.996 184.54V249.674C354.996 253.545 358.184 256.732 362.057 256.732C365.93 256.732 369.118 253.545 369.118 249.674V184.54C369.118 180.668 365.93 177.482 362.057 177.482Z" fill="#422422"/>
<path d="M362.056 163.914C337.377 163.914 317.395 174.535 317.395 187.658C317.395 200.781 337.377 211.402 362.056 211.402C386.735 211.402 406.718 200.781 406.718 187.658C406.718 174.535 386.735 163.914 362.056 163.914Z" fill="#C19D99"/>
<path d="M406.718 183.169H317.395V188.343H406.718V183.169Z" fill="#C19D99"/>
<path d="M362.056 159.425C337.377 159.425 317.395 170.047 317.395 183.169C317.395 196.292 337.377 206.914 362.056 206.914C386.735 206.914 406.718 196.292 406.718 183.169C406.718 170.047 386.735 159.425 362.056 159.425Z" fill="#C19D99"/>
<path d="M362.057 157.952C338.544 157.952 319.486 168.094 319.486 180.565C319.486 193.037 338.544 203.179 362.057 203.179C385.57 203.179 404.628 193.037 404.628 180.565C404.628 168.094 385.57 157.952 362.057 157.952Z" fill="#394248"/>
<path d="M321.749 166.072L319.486 180.6H404.594L402.331 166.072H321.749Z" fill="#394248"/>
<path d="M362.055 147.913C339.467 147.913 321.164 157.644 321.164 169.67C321.164 181.696 339.467 191.427 362.055 191.427C384.643 191.427 402.947 181.696 402.947 169.67C402.947 157.644 384.643 147.913 362.055 147.913Z" fill="#343438"/>
<path d="M425.088 61.5704L412.92 54.5465C400.101 47.1458 389.578 55.0605 389.578 72.1919V121.051L448.43 155.005V106.146C448.43 89.0493 437.942 68.9712 425.088 61.5704Z" fill="#394248"/>
<path d="M396.365 65.3393L397.427 53.4844L387.453 59.4119L396.365 65.3393Z" fill="#394248"/>
<path d="M438.732 160.727L448.432 154.971L436.949 143.664L438.732 160.727Z" fill="#394248"/>
<path d="M415.389 67.3266L403.221 60.3027C390.402 52.9019 379.879 60.8167 379.879 77.9481V126.807L438.731 160.762V111.903C438.731 94.8054 428.242 74.7274 415.389 67.3266Z" fill="#343438"/>
<path d="M314.24 285.821C310.95 287.705 308.311 292.811 308.311 297.162C308.311 301.513 310.984 303.535 314.24 301.65C317.531 299.766 320.17 294.661 320.17 290.309C320.17 285.958 317.497 283.937 314.24 285.821Z" fill="#422422"/>
<path d="M310.367 301.993L315.132 304.734L322.432 288.048L317.839 285.341L310.367 301.993Z" fill="#422422"/>
<path d="M319.039 288.596C315.749 290.481 313.109 295.586 313.109 299.937C313.109 304.289 315.783 306.31 319.039 304.426C322.33 302.541 324.969 297.436 324.969 293.085C324.969 288.733 322.295 286.712 319.039 288.596Z" fill="#422422"/>
<path d="M406.546 226.649L312.596 280.853C310.231 282.223 309.408 285.239 310.779 287.603C312.15 289.967 315.167 290.789 317.532 289.419L411.482 235.215C413.847 233.844 414.67 230.829 413.299 228.465C411.928 226.101 408.911 225.279 406.546 226.649Z" fill="#422422"/>
<path d="M411.482 280.853L317.532 226.649C315.167 225.279 312.15 226.101 310.779 228.465C309.408 230.829 310.231 233.844 312.596 235.215L406.546 289.419C408.911 290.789 411.928 289.967 413.299 287.603C414.67 285.239 413.847 282.223 411.482 280.853Z" fill="#422422"/>
<path d="M406.34 231.583C403.049 233.467 400.41 238.573 400.41 242.924C400.41 247.275 403.084 249.297 406.34 247.412C409.596 245.528 412.27 240.423 412.27 236.071C412.27 231.72 409.596 229.698 406.34 231.583Z" fill="#422422"/>
<path d="M402.467 247.755L407.231 250.496L414.532 233.81L409.939 231.103L402.467 247.755Z" fill="#422422"/>
<path d="M411.139 234.358C407.848 236.243 405.209 241.348 405.209 245.699C405.209 250.051 407.882 252.072 411.139 250.188C414.429 248.303 417.068 243.198 417.068 238.847C417.068 234.495 414.395 232.474 411.139 234.358Z" fill="#422422"/>
<path d="M400.549 287.192C397.258 289.076 394.619 294.181 394.619 298.533C394.619 302.884 397.293 304.906 400.549 303.021C403.839 301.137 406.479 296.031 406.479 291.68C406.479 287.329 403.805 285.307 400.549 287.192Z" fill="#422422"/>
<path d="M396.676 303.364L401.44 306.105L408.741 289.419L404.148 286.746L396.676 303.364Z" fill="#422422"/>
<path d="M405.348 289.967C402.057 291.851 399.418 296.957 399.418 301.308C399.418 305.659 402.092 307.681 405.348 305.796C408.638 303.912 411.277 298.807 411.277 294.455C411.277 290.104 408.604 288.082 405.348 289.967Z" fill="#422422"/>
<path d="M310.471 234.667C307.18 236.551 304.541 241.656 304.541 246.008C304.541 250.359 307.215 252.381 310.471 250.496C313.761 248.612 316.401 243.506 316.401 239.155C316.401 234.804 313.727 232.782 310.471 234.667Z" fill="#422422"/>
<path d="M306.598 250.839L311.362 253.58L318.663 236.894L314.07 234.187L306.598 250.839Z" fill="#422422"/>
<path d="M315.27 237.442C311.979 239.326 309.34 244.431 309.34 248.783C309.34 253.134 312.013 255.156 315.27 253.271C318.56 251.387 321.199 246.282 321.199 241.93C321.199 237.579 318.526 235.557 315.27 237.442Z" fill="#422422"/>
<path d="M304.199 183.786C304.199 183.786 289.872 195.778 290.9 208.455C291.449 215.377 290.626 218.46 291.723 227.06C292.751 235.146 293.334 267.49 292.854 278.18C292.374 288.836 285.382 298.43 282.743 302.164C280.103 305.899 287.576 312.306 293.711 306.961C299.846 301.616 300.532 300.554 303.925 298.978C307.319 297.368 310.163 289.933 307.936 281.401C305.708 272.87 307.798 256.355 311.295 241.965C313.385 233.33 313.18 222.743 313.043 214.76C312.974 209.449 332.546 192.489 333.3 190.776C335.151 186.527 304.199 183.855 304.199 183.855V183.786Z" fill="#FFA08D"/>
<path d="M297.892 300.588C289.94 304.803 286.718 305.351 282.742 302.164C282.742 302.164 275.236 307.818 272.665 310.662C270.094 313.471 277.395 318.165 284.628 316.041C291.86 313.917 298.029 307.475 303.925 302.713C309.718 298.019 311.294 296.34 311.294 290.652C311.294 287.843 308.552 284.759 308.552 284.759C308.552 284.759 306.221 296.168 297.892 300.623V300.588Z" fill="#422422"/>
<path d="M336.795 177.482C333.813 178.852 327.986 191.255 316.812 202.459C313.418 205.851 309.888 212.704 311.328 220.036C312.664 226.855 313.727 232.028 313.761 239.224C313.795 247.378 315.372 281.059 314.892 291.749C314.412 302.404 307.42 311.998 304.781 315.733C302.176 319.467 309.614 325.874 315.749 320.529C321.885 315.184 322.57 314.122 325.963 312.546C329.357 310.936 332.202 303.501 329.974 294.969C327.746 286.438 329.837 269.923 333.333 255.533C336.829 241.142 332.339 221.784 335.321 218.22C341.319 211.025 353.898 204.755 354.344 197.457C354.892 188.377 345.809 173.404 336.829 177.482H336.795Z" fill="#FFC5B3"/>
<path d="M319.863 314.191C311.911 318.405 308.689 318.953 304.713 315.767C304.713 315.767 297.207 321.42 294.636 324.264C292.065 327.074 299.366 331.768 306.598 329.643C313.83 327.519 320 321.078 325.896 316.315C331.688 311.621 333.265 309.942 333.265 304.255C333.265 301.445 330.523 298.361 330.523 298.361C330.523 298.361 328.192 309.771 319.863 314.225V314.191Z" fill="#422422"/>
<path d="M335.253 143.013L299.709 188.24C299.709 188.24 309.443 190.33 318.629 193.62C334.328 199.204 339.229 214.691 339.229 214.691C339.229 214.691 373.642 197.149 380.223 185.259C388.21 170.835 381.629 149.729 381.629 149.729C353.728 165.798 335.253 143.013 335.253 143.013Z" fill="#422422"/>
<path d="M345.056 59.3776C339.229 63.4549 324.25 81.8541 324.25 81.8541C324.25 81.8541 324.25 85.1776 327.746 88.364C330.66 91.0022 332.682 92.0301 332.682 92.0301L360.308 64.0716C360.308 64.0716 350.848 55.266 345.021 59.3433L345.056 59.3776Z" fill="#C19D99"/>
<path d="M377.995 71.7122C377.995 71.7122 368.295 78.7019 364.902 81.1003C361.646 83.4301 356.676 80.6548 360.377 71.9178C361.543 69.1768 360.377 60.9194 360.377 60.9194C360.377 60.9194 359.075 60.5425 357.224 60.0971C354.242 63.1122 348.244 71.164 345.056 74.4875C341.971 77.674 330.112 87.5417 332.785 98.4715C333.574 101.727 334.602 104.536 336.11 108.613C337.79 113.17 337.275 121.633 336.796 126.224C336.247 131.501 330.66 145.206 330.66 145.206C330.66 145.206 342.108 159.836 355.167 159.905C370.386 159.973 381.697 149.763 381.697 149.763C381.697 149.763 379.161 126.601 380.12 117.145C380.12 117.145 398.904 107.757 395.27 89.5289C394.174 84.0126 378.03 71.7465 378.03 71.7465L377.995 71.7122Z" fill="#F46C3C"/>
<path d="M341.456 56.6366C343.204 78.6333 343.684 83.3616 346.015 89.5632C350.402 78.1879 358.8 68.0804 358.8 68.0804L341.902 39.7107C341.902 39.7107 340.839 48.9274 341.456 56.6366Z" fill="#422422"/>
<path d="M214.5 57.219C214.5 57.219 219.47 50.6405 224.165 48.619C224.44 48.482 224.748 48.4134 225.091 48.3449C225.091 48.3449 227.867 47.1457 231.192 46.5633C234.517 45.9808 238.39 44.2676 238.39 44.2676C238.39 44.2676 238.973 46.7346 236.505 48.1051C235.614 48.5848 234.38 48.9959 233.146 49.3385C233.454 49.3728 233.763 49.4413 234.071 49.4756C237.225 49.8182 239.761 48.9274 241.852 48.619C246.171 48.0366 246.788 47.5911 251.072 49.7497C255.357 51.9083 251.826 55.129 246.102 57.733C240.378 60.3369 231.809 60.5425 228.347 61.0565C224.885 61.5361 221.115 69.0054 221.115 69.0054C221.115 69.0054 220.292 72.1576 214.534 69.0054C208.776 65.8533 214.534 57.219 214.534 57.219H214.5Z" fill="#FFC5B3"/>
<path d="M156.949 26.5195C156.949 26.5195 165.826 35.9075 171.893 47.1115C176.76 56.0883 183.581 71.9178 183.581 71.9178C195.646 63.215 206.82 61.3648 214.601 58.4182C215.184 69.725 222.587 66.4357 222.587 66.4357C222.587 66.4357 219.742 74.7274 202.57 84.8692C185.672 94.8054 179.537 96.3815 172.784 90.7624C160.308 80.3807 148.791 64.7569 148.791 64.7569L156.949 26.5537V26.5195Z" fill="#769620"/>
<path d="M153.111 121.873C153.111 121.873 155.956 134.79 161.406 169.396C163.702 184.06 162.537 195.127 158.629 204.344C153.556 216.233 147.318 224.216 144.85 229.973C140.566 239.909 128.638 267.833 128.638 267.833C128.638 267.833 115.647 270.608 109.1 264.201C102.588 257.794 102.999 253.511 102.999 253.511C102.999 253.511 114.276 206.811 119.349 203.213C124.422 199.65 129.769 189.885 129.769 189.885L111.568 130.028L153.077 121.873H153.111Z" fill="#422422"/>
<path d="M100.976 127.15C100.874 128.315 95.5265 130.405 93.6071 145.446C91.6533 160.522 102.622 201.294 104.61 207.085C106.598 212.841 97.5831 286.266 97.5831 286.266C97.5831 286.266 103.444 294.49 114.413 293.016C124.216 291.68 127.609 287.26 127.609 287.26L137.652 205.989L129.768 130.062L100.942 127.184L100.976 127.15Z" fill="#422422"/>
<path d="M163.805 43.4111C163.805 43.4111 174.533 66.47 166.136 81.6142C157.704 96.7584 156.333 102.994 153.968 111.012C151.603 119.029 166.136 121.839 148.209 135.887C130.317 149.9 101.8 141.78 97.138 137.223C87.8149 128.075 95.2871 122.593 96.6581 115.74C99.5373 101.384 106.255 72.9115 112.734 59.9258C119.212 46.9402 136.727 27.4103 143.445 31.4876C150.163 35.5649 163.805 43.4111 163.805 43.4111Z" fill="#A3BF2E"/>
<path d="M160.686 52.2167C160.686 52.2167 162.708 58.2469 160.96 62.4955C159.212 66.7441 153.179 74.2134 143.994 65.5792C134.773 56.9449 131.277 51.0517 130.557 44.3019C129.838 37.5521 135.699 35.7362 135.699 35.7362L160.686 52.2167Z" fill="#627C11"/>
<path d="M156.196 44.0278C156.196 44.0278 156.985 53.827 157.088 57.0819C157.328 63.3863 151.638 64.5513 146.805 60.7481C137.996 53.827 133.883 41.9377 133.883 41.9377L140.807 33.5433L156.196 44.0278Z" fill="#FFAD97"/>
<path d="M138.99 15.4526C143.892 9.18244 158.013 3.94022 167.199 17.5426C176.831 31.796 167.714 55.129 159.282 53.7927C154.552 53.0389 143.892 48.7218 139.23 41.1155C133.986 32.5497 135.151 20.3521 138.99 15.4868V15.4526Z" fill="#FFC5B3"/>
<path d="M174.842 19.3928C171.723 21.7569 166.239 24.6008 160.892 26.0055C153.522 27.9243 146.462 27.9243 146.462 27.9243L147.01 36.5243C147.01 36.5243 145.707 36.5585 144.645 36.2159C143.788 32.9609 142.383 32.1729 140.806 33.5776C138.989 35.1195 139.264 41.1155 139.264 41.1155C139.264 41.1155 133.025 35.8733 131.346 26.1769C129.975 18.0908 129.289 6.20159 139.846 4.35139C143.685 -1.64461 152.597 -0.239834 158.595 1.8502C166.205 4.48845 172.888 13.8422 175.151 15.0072C174.054 16.9944 171.38 17.4056 171.38 17.4056C171.38 17.4056 172.443 18.639 174.842 19.4271V19.3928Z" fill="#422422"/>
<path d="M215.597 55.8828C215.597 55.8828 215.939 60.0971 218.373 62.4955C220.806 64.8597 223.549 64.9967 223.549 64.9967L221.046 69.0055C221.046 69.0055 217.927 69.862 214.637 65.5449C211.312 61.2278 211.689 59.2405 211.929 59.2063C212.169 59.172 215.597 55.8485 215.597 55.8485V55.8828Z" fill="#627C11"/>
<path d="M130.043 300.725C134.19 305.967 135.493 307.475 139.332 312.375C141.56 315.218 139.16 317.24 134.293 316.418C130.009 315.698 120.514 312.306 115.338 309.634C111.637 307.749 105.056 302.884 101.731 300.108C98.4061 297.333 98.0977 294.044 98.0977 294.044L99.88 280.442L122.331 290.378C122.331 290.378 125.621 295.038 130.111 300.725H130.043Z" fill="#422422"/>
<path d="M135.014 274.96C139.161 280.202 140.463 281.709 144.302 286.609C146.53 289.453 144.131 291.474 139.264 290.652C134.979 289.933 125.485 286.541 120.309 283.868C116.607 281.984 110.026 277.118 106.702 274.343C103.377 271.568 103.068 268.278 103.068 268.278L104.851 254.676L127.301 264.612C127.301 264.612 130.592 269.272 135.082 274.96H135.014Z" fill="#422422"/>
<path d="M44.4219 357.568L50.7287 361.199V226.444L44.4219 222.812V357.568Z" fill="#D8B9B6"/>
<path d="M50.7285 361.199L56.4526 357.876V223.12L50.7285 226.443V361.199Z" fill="#C19D99"/>
<path d="M234.824 469.607L241.131 473.239V338.483L234.824 334.851V469.607Z" fill="#D8B9B6"/>
<path d="M241.131 473.239L246.855 469.916V335.16L241.131 338.483V473.239Z" fill="#C19D99"/>
<path d="M420.43 363.803L426.736 367.435V232.679L420.43 229.013V363.803Z" fill="#D8B9B6"/>
<path d="M426.736 367.435L432.426 364.112V229.356L426.736 232.679V367.435Z" fill="#C19D99"/>
<path d="M44.4219 240.046L240.858 353.867V345.164L44.4219 231.377V240.046Z" fill="#D8B9B6"/>
<path d="M240.857 353.867L441.132 238.812V230.144L240.857 345.164V353.867Z" fill="#C19D99"/>
<path d="M38.3887 228.945L240.857 346.227V339.511L38.3887 222.229V228.945Z" fill="#95C7EF"/>
<path d="M240.857 345.815L446.788 227.54V221.235L240.857 339.511V345.815Z" fill="#73B3DD"/>
<path d="M38.3887 222.229L240.857 339.511L446.787 221.236L244.285 103.851L38.3887 222.229Z" fill="#B6DBFF"/>
<path d="M248.947 162.886L281.818 181.867L327.371 155.965L294.5 136.983L248.947 162.886Z" fill="white"/>
<path d="M291.346 142.499L317.841 158.055L320.892 156.342L294.431 140.82L291.346 142.499Z" fill="#C19D99"/>
<path d="M285.828 145.652L312.323 161.173L315.374 159.494L288.913 143.938L285.828 145.652Z" fill="#C19D99"/>
<path d="M280.035 148.975L306.531 164.496L309.581 162.817L283.086 147.262L280.035 148.975Z" fill="#C19D99"/>
<path d="M274.518 152.093L301.013 167.648L304.063 165.935L277.602 150.38L274.518 152.093Z" fill="#C19D99"/>
<path d="M256.488 162.372L282.984 177.927L298.648 169.19L272.187 153.669L256.488 162.372Z" fill="#C19D99"/>
<path d="M332.717 92.0302C326.787 88.2955 324.936 84.4581 324.936 84.4581C324.936 84.4581 317.772 92.7497 314.448 96.3816C313.214 97.7178 310.232 102.035 306.564 107.86C301.526 115.843 296.795 124.58 296.281 126.19C294.945 130.405 290.934 139.519 292.819 143.013C294.67 146.508 300.257 152.401 303.102 144.521C304.576 140.512 305.707 130.507 306.324 129.308C307.695 126.567 317.43 114.37 319.76 111.766C322.091 109.196 332.751 98.4031 332.751 98.4031C332.751 98.4031 332.271 93.9146 332.751 91.9616L332.717 92.0302Z" fill="#FFC5B3"/>
<path d="M370.866 125.848C368.776 131.604 363.566 135.681 360.549 137.463C358.116 138.867 347.113 143.013 341.183 144.555C339.949 144.863 328.775 147.228 326.513 146.611C316.813 143.938 311.295 145.583 306.942 148.153C302.589 150.688 302.177 155.04 313.42 155.691C324.662 156.342 332.957 156.753 339.435 156.547C346.153 156.307 354.86 155.314 366.033 152.504C377.207 149.729 380.669 143.219 383.754 138.148C386.839 133.077 393.557 117.556 393.557 117.556L376.316 111.8C376.316 111.8 372.923 120.091 370.832 125.848H370.866Z" fill="#FFC5B3"/>
<path d="M359.314 62.1186C359.314 62.1186 358.972 71.5067 357.086 76.4405C356.675 77.0573 355.338 78.5991 353.762 80.8262C356.024 83.2246 359.589 85.8628 365.039 87.6787C366.821 86.2397 368.26 85.1433 369.117 84.3895C372.785 81.2373 379.126 72.7059 379.126 72.7059L378.817 44.8844L359.314 62.1529V62.1186Z" fill="#FFA08D"/>
<path d="M357.91 80.9975C356.402 79.9696 355.202 80.6891 353.763 80.8262C348.621 90.8995 358.87 92.0644 365.039 87.6788C361.955 86.6509 359.898 82.368 357.91 80.9975Z" fill="white"/>
<path d="M354.791 69.074C347.901 74.5218 348.655 83.0876 348.655 83.0876L357.91 80.9975L358.869 69.1083C357.19 68.937 356.025 68.1147 354.791 69.1083V69.074Z" fill="#C19D99"/>
<path d="M370.523 29.0892C364.388 24.3952 349.786 22.8876 344.473 37.9633C338.886 53.7585 353.179 73.4596 360.789 70.1019C365.039 68.2174 374.019 61.5704 376.556 53.2445C379.4 43.8908 375.287 32.7211 370.523 29.0892Z" fill="#FFC5B3"/>
<path d="M373.883 72.5345C367.062 75.858 357.91 80.9975 357.91 80.9975C357.91 80.9975 360.378 87.6787 362.949 93.3321C367.919 90.968 373.883 83.9098 373.883 83.9098C373.883 83.9098 376.316 74.0079 373.883 72.5345Z" fill="#C19D99"/>
<path d="M370.283 20.4207C361.474 16.7888 355.407 19.9068 347.078 27.5474C342.074 32.1386 339.777 37.5864 339.777 46.1864C339.777 46.1864 352.631 55.3346 360.343 56.9449C363.908 57.6987 368.878 55.5402 371.791 54.1354C372.134 58.0756 372.614 62.5641 372.477 64.6884C370.831 92.7839 369.426 102.206 369.426 102.206C369.426 102.206 371.894 102.138 375.356 96.0046C377.241 92.6469 381.251 87.9529 384.199 77.1258C385.776 71.3011 387.832 41.8693 383.239 33.3721C380.703 28.6781 374.705 22.2366 370.283 20.4207Z" fill="#422422"/>
<path d="M375.287 102.035C373.436 108.545 371.962 115.672 370.865 119.338C370.865 125.848 386.495 129.582 392.459 127.15C394.721 122.421 396.607 115.877 397.395 113.273C399.486 106.421 400.96 94.5999 393.796 86.5481C386.598 78.4963 377.001 96.0046 375.321 102.001L375.287 102.035Z" fill="#C19D99"/>
<path d="M322.537 283.937L289.666 302.884L244.113 276.981L276.984 258L322.537 283.937Z" fill="white"/>
<path d="M315.579 283.286L289.083 298.841L260.771 282.737L287.233 267.182L315.579 283.286Z" fill="#C19D99"/>
<path d="M282.879 264.578L256.383 280.099L250.248 276.707L276.743 261.152L282.879 264.578Z" fill="#C19D99"/>
<path d="M158.629 279.585L191.465 298.567L237.018 272.63L204.182 253.682L158.629 279.585Z" fill="white"/>
<path d="M165.588 278.969L192.083 294.49L220.395 278.386L193.9 262.831L165.588 278.969Z" fill="#C19D99"/>
<path d="M198.287 260.227L224.782 275.782L230.884 272.39L204.388 256.835L198.287 260.227Z" fill="#C19D99"/>
<path d="M177.515 211.539L144.645 230.486L99.0918 204.584L131.962 185.636L177.515 211.539Z" fill="white"/>
<path d="M135.116 191.153L108.621 206.674L105.57 204.995L132.066 189.44L135.116 191.153Z" fill="#C19D99"/>
<path d="M140.634 194.271L114.138 209.826L111.088 208.113L137.549 192.557L140.634 194.271Z" fill="#C19D99"/>
<path d="M146.427 197.594L119.931 213.149L116.881 211.436L143.376 195.881L146.427 197.594Z" fill="#C19D99"/>
<path d="M151.946 200.712L125.451 216.267L122.4 214.554L148.896 199.033L151.946 200.712Z" fill="#C19D99"/>
<path d="M169.974 210.991L143.479 226.546L127.814 217.844L154.31 202.288L169.974 210.991Z" fill="#C19D99"/>
<path d="M351.568 353.97C351.568 353.97 331.893 354.107 332.647 358.219C334.875 370.69 335.424 400.773 335.424 400.773C335.424 400.773 332.853 399.608 327.643 397.895C325.895 398.169 324.113 398.82 323.359 400.259C321.645 403.48 326.992 406.906 332.613 409.716C338.234 412.525 342.827 412.525 345.638 411.257C347.694 410.332 350.471 409.133 351.808 408.551C351.431 406.05 351.156 402.692 351.602 397.518C352.939 382.134 352.322 356.814 351.602 353.936L351.568 353.97Z" fill="#FFC5B3"/>
<path d="M345.638 411.292C342.827 412.559 338.234 412.559 332.613 409.75C326.992 406.94 321.645 403.514 323.359 400.293C324.147 398.854 325.929 398.203 327.643 397.929C326.855 397.655 325.998 397.381 325.072 397.107C315.681 394.195 310.025 396.353 311.054 400.225C311.773 403 311.842 403.548 317.36 407.626C322.879 411.703 329.288 414.889 337.069 417.665C345.844 420.817 350.163 421.228 352.048 416.774C353.179 414.101 352.39 412.354 351.808 408.585C350.471 409.167 347.695 410.367 345.638 411.292Z" fill="#422422"/>
<path d="M376.965 365.654C373.263 365.654 370.213 368.703 370.213 372.403V434.659C370.213 438.359 373.263 441.409 376.965 441.409C380.667 441.409 383.718 438.359 383.718 434.659V372.403C383.718 368.703 380.667 365.654 376.965 365.654Z" fill="#422422"/>
<path d="M376.966 398.1C400.553 398.1 419.674 387.93 419.674 375.384C419.674 362.838 400.553 352.668 376.966 352.668C353.379 352.668 334.258 362.838 334.258 375.384C334.258 387.93 353.379 398.1 376.966 398.1Z" fill="#C19D99"/>
<path d="M419.674 371.101H334.293V376.035H419.674V371.101Z" fill="#C19D99"/>
<path d="M376.966 348.419C353.384 348.419 334.258 358.595 334.258 371.136C334.258 383.676 353.384 393.852 376.966 393.852C400.548 393.852 419.674 383.676 419.674 371.136C419.674 358.595 400.548 348.419 376.966 348.419Z" fill="#C19D99"/>
<path d="M376.965 347.015C354.514 347.015 336.279 356.711 336.279 368.634C336.279 380.558 354.48 390.254 376.965 390.254C399.45 390.254 417.65 380.558 417.65 368.634C417.65 356.711 399.45 347.015 376.965 347.015Z" fill="#394248"/>
<path d="M338.474 354.758L336.314 368.634H417.651L415.492 354.758H338.474Z" fill="#394248"/>
<path d="M376.965 337.421C355.371 337.421 337.891 346.74 337.891 358.184C337.891 369.628 355.371 378.948 376.965 378.948C398.559 378.948 416.04 369.628 416.04 358.184C416.04 346.74 398.559 337.421 376.965 337.421Z" fill="#343438"/>
<path d="M422.692 469.196C419.538 467.38 417.002 469.299 417.002 473.479C417.002 477.659 419.538 482.524 422.692 484.34C425.845 486.156 428.382 484.237 428.382 480.057C428.382 475.877 425.845 471.012 422.692 469.196Z" fill="#422422"/>
<path d="M414.842 471.32L421.834 487.287L426.393 484.648L419.229 468.75L414.842 471.32Z" fill="#422422"/>
<path d="M418.098 471.834C414.945 470.018 412.408 471.937 412.408 476.117C412.408 480.297 414.945 485.163 418.098 486.978C421.251 488.794 423.788 486.876 423.788 482.696C423.788 478.516 421.251 473.65 418.098 471.834Z" fill="#5E3C36"/>
<path d="M424.233 464.468L334.464 412.662C332.202 411.36 329.322 412.148 327.986 414.41C326.683 416.671 327.437 419.549 329.734 420.885L419.503 472.691C421.765 473.993 424.644 473.205 425.981 470.943C427.283 468.682 426.495 465.804 424.233 464.468Z" fill="#422422"/>
<path d="M419.503 412.662L329.734 464.468C327.472 465.77 326.684 468.682 327.986 470.943C329.289 473.205 332.202 473.993 334.464 472.691L424.233 420.885C426.495 419.583 427.284 416.671 425.981 414.41C424.679 412.148 421.765 411.36 419.503 412.662Z" fill="#422422"/>
<path d="M334.67 417.356C331.517 415.54 328.98 417.459 328.98 421.639C328.98 425.819 331.517 430.685 334.67 432.5C337.824 434.316 340.36 432.398 340.36 428.218C340.36 424.038 337.824 419.172 334.67 417.356Z" fill="#422422"/>
<path d="M326.82 419.48L333.813 435.447L338.371 432.809L331.208 416.911L326.82 419.48Z" fill="#422422"/>
<path d="M330.077 419.995C326.923 418.179 324.387 420.097 324.387 424.277C324.387 428.457 326.923 433.323 330.077 435.139C333.23 436.955 335.766 435.036 335.766 430.856C335.766 426.676 333.23 421.81 330.077 419.995Z" fill="#5E3C36"/>
<path d="M340.188 470.532C337.034 468.716 334.498 470.635 334.498 474.815C334.498 478.995 337.034 483.861 340.188 485.676C343.341 487.492 345.878 485.574 345.878 481.394C345.878 477.214 343.341 472.348 340.188 470.532Z" fill="#422422"/>
<path d="M332.373 472.657L339.331 488.623L343.89 485.985L336.76 470.087L332.373 472.657Z" fill="#422422"/>
<path d="M335.594 473.171C332.441 471.355 329.904 473.273 329.904 477.453C329.904 481.634 332.441 486.499 335.594 488.315C338.748 490.131 341.284 488.212 341.284 484.032C341.284 479.852 338.748 474.986 335.594 473.171Z" fill="#5E3C36"/>
<path d="M426.289 420.303C423.136 418.487 420.6 420.406 420.6 424.586C420.6 428.766 423.136 433.631 426.289 435.447C429.443 437.263 431.979 435.344 431.979 431.164C431.979 426.984 429.443 422.119 426.289 420.303Z" fill="#422422"/>
<path d="M418.439 422.461L425.397 438.394L429.99 435.755L422.827 419.892L418.439 422.461Z" fill="#422422"/>
<path d="M421.696 422.975C418.542 421.159 416.006 423.078 416.006 427.258C416.006 431.438 418.542 436.304 421.696 438.119C424.849 439.935 427.385 438.017 427.385 433.837C427.385 429.657 424.849 424.791 421.696 422.975Z" fill="#5E3C36"/>
<path d="M320.856 359.178C320.856 359.178 299.777 351.571 300.531 355.683C302.759 368.155 305.535 416.774 305.535 416.774C305.535 416.774 302.964 415.609 297.754 413.896C296.041 414.17 294.224 414.821 293.47 416.26C291.756 419.481 297.103 422.907 302.724 425.716C308.346 428.526 312.939 428.526 315.749 427.258C317.806 426.333 320.582 425.134 321.919 424.551C321.542 422.05 321.268 418.692 321.713 413.519C323.05 398.135 321.576 362.022 320.891 359.144L320.856 359.178Z" fill="#FFC5B3"/>
<path d="M315.749 427.327C312.939 428.595 308.346 428.594 302.725 425.785C297.103 422.975 291.756 419.549 293.47 416.328C294.258 414.889 296.041 414.238 297.755 413.964C296.966 413.69 296.109 413.416 295.184 413.142C285.792 410.23 280.137 412.388 281.165 416.26C281.885 419.035 281.953 419.583 287.472 423.661C292.99 427.738 299.4 430.924 307.18 433.7C315.955 436.852 320.274 437.263 322.159 432.809C323.29 430.136 322.502 428.389 321.919 424.62C320.582 425.202 317.806 426.402 315.749 427.327Z" fill="#422422"/>
<path d="M400.274 191.735C395.476 181.593 384.37 180.326 378.612 184.334C376.487 185.808 368.638 187.624 366.341 205.063C364.799 216.781 368.672 222.024 372.031 225.073C373.402 226.341 378.852 226.58 378.852 226.58L378.612 239.635C378.612 239.635 386.256 242.65 393.625 239.635L400.96 236.619C400.96 236.619 398.081 231.686 398.561 223.12C399.143 212.498 402.914 197.388 400.24 191.769L400.274 191.735Z" fill="#FFC5B3"/>
<path d="M370.248 308.64C370.248 308.64 336.212 318.508 322.741 322.105C298.439 328.581 296.074 348.522 296.074 348.522C296.074 348.522 295.149 366.887 302.518 373.397C309.922 379.873 331.687 373.603 331.687 373.603C331.687 373.603 340.153 364.694 364.832 371.136C385.363 376.481 395.303 371.958 401.233 368.669C411.927 362.741 422.141 353.525 414.875 331.836C410.865 319.913 370.248 308.674 370.248 308.674V308.64Z" fill="#422422"/>
<path d="M410.831 295.415C412.75 280.031 412.03 274.891 410.454 262.728C408.911 250.565 400.994 236.585 400.994 236.585L378.646 236.243C378.646 236.243 369.837 239.909 367.06 245.939C364.318 251.969 354.481 268.758 358.8 278.009C367.677 296.922 361.782 310.251 360.548 313.403C358.8 317.925 357.326 322.654 356.023 327.451C360.308 339.511 374.841 346.124 387.523 346.329C397.017 346.501 413.367 342.629 417.035 332.384C416.726 330.705 416.383 329.301 415.972 328.307C408.74 309.771 410.282 299.663 410.831 295.38V295.415Z" fill="#22A1EF"/>
<path d="M393.007 232.542C385.467 235.249 378.748 232.542 378.748 232.542C378.748 232.542 372.819 234.701 372.887 239.532C380.222 243.164 386.975 243.609 394.447 241.245C401.919 238.881 403.05 235.18 403.05 235.18L400.548 229.835L393.007 232.542Z" fill="#2484ED"/>
<path d="M391.98 178.749C373.299 174.809 364.628 186.767 365.793 199.067C366.341 205.063 371.277 206.845 375.664 211.436C380.052 216.028 382.383 220.379 391.946 227.197C392.254 227.403 392.494 227.78 392.734 228.225C393.659 228.773 394.619 229.184 395.613 229.561C396.093 226.718 398.424 224.559 400.377 222.537C404.319 218.494 407.13 213.835 408.741 208.353C412.443 187.144 401.954 180.874 392.014 178.749H391.98Z" fill="#422422"/>
<path d="M369.082 245.973C360.787 246.761 344.472 291.44 344.472 291.44C344.472 291.44 329.527 286.986 313.212 284.588C309.579 284.039 310.744 280.373 306.186 277.461C300.119 273.589 287.882 279.106 291.07 283.08C294.463 287.294 302.587 292.845 308.962 293.564C315.337 294.318 341.455 310.456 350.299 305.248C350.299 305.248 376.931 275.816 377.48 263.242C377.925 253.408 373.435 245.562 369.116 245.973H369.082Z" fill="#FFC5B3"/>
<path d="M368.843 243.883C359.383 245.185 362.605 252.141 362.605 252.141C362.605 252.141 366.033 249.194 370.934 254.231C374.567 257.931 375.664 269.889 375.664 269.889C375.664 269.889 380.771 263.139 379.88 255.807C378.749 246.59 374.43 243.164 368.878 243.918L368.843 243.883Z" fill="#2484ED"/>
<path d="M370.934 207.633L372.956 217.398C372.956 217.398 379.331 214.931 377.48 207.633C375.492 199.787 370.934 207.633 370.934 207.633Z" fill="#FFC5B3"/>
<path d="M407.438 267.251C405.93 262.557 412.1 257.246 413.334 250.702C414.533 244.157 415.219 232.131 413.814 224.97C412.408 217.809 409.255 196.395 409.255 196.395L377.275 213.184C377.275 213.184 376.727 246.11 377.858 252.141C379.229 259.541 381.903 259.439 383.651 260.466C384.542 260.98 390.266 262.077 388.004 265.572C386.084 268.553 380.977 264.886 380.977 264.886C380.977 264.886 382.862 269.238 385.433 269.889C388.724 270.711 393.077 267.73 393.077 267.73C393.077 267.73 390.198 272.253 390.952 274.274C392.837 279.311 397.018 276.364 397.944 279.722C398.869 283.08 392.494 283.046 392.494 283.046C392.494 283.046 396.539 287.671 400.515 283.971C404.628 280.168 401.337 270.437 401.337 270.437C401.337 270.437 405.073 274.274 408.261 274.274C412.374 274.274 415.322 269.855 415.322 269.855C415.322 269.855 409.084 271.945 407.575 267.251H407.438Z" fill="#422422"/>
<path d="M429.957 263.858L417.789 270.882C404.97 278.283 394.447 298.327 394.447 315.458V364.317L453.299 330.363V281.504C453.299 264.407 442.811 256.458 429.957 263.858Z" fill="#394248"/>
<path d="M446.512 274.686L455.423 268.758L445.449 262.831L446.512 274.686Z" fill="#394248"/>
<path d="M404.147 370.073L405.93 353.01L394.447 364.317L404.147 370.073Z" fill="#394248"/>
<path d="M439.656 269.615L427.488 276.639C414.669 284.039 404.146 304.117 404.146 321.215V370.074L462.998 336.119V287.26C462.998 270.163 452.51 262.214 439.656 269.615Z" fill="#343438"/>
<path d="M441.747 354.758C441.919 349.618 440.89 327.382 440.89 317.034C440.89 310.045 433.315 310.387 433.247 317.343C433.178 322.722 432.801 335.845 433.247 351.948C433.624 365.756 437.874 388.061 408.979 390.734C399.656 394.743 384.335 397.758 377 398.1C380.222 400.225 397.634 400.979 402.09 400.841C446.615 399.608 441.439 365.928 441.782 354.758H441.747Z" fill="#422422"/>
<path d="M177.105 372.609C174.191 370.793 159.487 379.359 159.487 379.359L139.195 386.177L140.738 401.458C140.738 401.458 147.97 409.167 157.944 402.452C163.908 398.443 174.362 392.173 177.687 385.355C181.012 378.536 179.984 374.459 177.07 372.643L177.105 372.609Z" fill="#422422"/>
<path d="M149.752 316.486C145.948 303.912 142.863 298.841 134.774 295.586C129.975 293.667 118.904 295.209 107.456 297.676C106.016 307.989 107.387 319.604 112.94 328.444C116.813 326.354 120.686 324.264 124.285 322.277C125.862 326.183 127.267 330.774 128.193 336.05C129.564 343.897 131.86 356.231 132.272 364.352C132.649 372.506 133.403 384.532 133.403 384.532C133.403 384.532 141.869 391.625 152.46 387.479C162.88 383.402 160.652 374.082 160.652 374.082C160.652 374.082 152.494 325.566 149.752 316.521V316.486Z" fill="#422422"/>
<path d="M51.3445 261.597C52.4071 273.247 71.9444 283.525 71.9444 283.525L83.7353 246.076L58.988 234.187C58.988 234.187 50.2819 249.948 51.3788 261.597H51.3445Z" fill="#FFC5B3"/>
<path d="M100.668 349.961C96.9666 349.961 93.916 353.011 93.916 356.711V418.967C93.916 422.667 96.9666 425.716 100.668 425.716C104.37 425.716 107.421 422.667 107.421 418.967V356.711C107.421 353.011 104.37 349.961 100.668 349.961Z" fill="#422422"/>
<path d="M100.669 336.976C77.0869 336.976 57.9609 347.152 57.9609 359.658C57.9609 372.164 77.0869 382.34 100.669 382.34C124.251 382.34 143.342 372.164 143.342 359.658C143.342 347.152 124.216 336.976 100.669 336.976Z" fill="#C19D99"/>
<path d="M143.342 355.409H57.9609V360.343H143.342V355.409Z" fill="#C19D99"/>
<path d="M100.669 332.693C77.0869 332.693 57.9609 342.869 57.9609 355.375C57.9609 367.881 77.0869 378.057 100.669 378.057C124.251 378.057 143.342 367.881 143.342 355.375C143.342 342.869 124.216 332.693 100.669 332.693Z" fill="#C19D99"/>
<path d="M100.668 331.322C78.2172 331.322 59.9824 341.019 59.9824 352.942C59.9824 364.866 78.183 374.562 100.668 374.562C123.153 374.562 141.354 364.866 141.354 352.942C141.354 341.019 123.153 331.322 100.668 331.322Z" fill="#394248"/>
<path d="M62.1418 339.031L59.9824 352.942H141.319L139.16 339.031H62.1418Z" fill="#394248"/>
<path d="M100.668 321.694C79.0745 321.694 61.5938 331.014 61.5938 342.458C61.5938 353.901 79.0745 363.221 100.668 363.221C122.262 363.221 139.743 353.901 139.743 342.458C139.743 331.014 122.262 321.694 100.668 321.694Z" fill="#343438"/>
<path d="M100.668 321.694C79.0745 321.694 61.5938 331.014 61.5938 342.458C61.5938 353.901 79.0745 363.221 100.668 363.221C122.262 363.221 139.743 353.901 139.743 342.458C139.743 331.014 122.262 321.694 100.668 321.694Z" fill="#343438"/>
<path d="M54.9457 453.47C51.7923 455.285 49.2559 460.151 49.2559 464.331C49.2559 468.511 51.7923 470.43 54.9457 468.614C58.0991 466.798 60.6355 461.932 60.6355 457.752C60.6355 453.572 58.0991 451.654 54.9457 453.47Z" fill="#422422"/>
<path d="M51.2441 468.956L55.8028 471.56L62.7951 455.628L58.4078 453.058L51.2441 468.956Z" fill="#422422"/>
<path d="M59.5394 456.142C56.386 457.958 53.8496 462.823 53.8496 467.003C53.8496 471.183 56.386 473.102 59.5394 471.286C62.6928 469.47 65.2292 464.605 65.2292 460.425C65.2292 456.245 62.6928 454.326 59.5394 456.142Z" fill="#5E3C36"/>
<path d="M143.171 396.936L53.4021 448.741C51.1399 450.043 50.3515 452.955 51.654 455.217C52.9565 457.478 55.8699 458.266 58.1322 456.964L147.901 405.159C150.163 403.857 150.952 400.944 149.649 398.683C148.347 396.422 145.433 395.634 143.171 396.936Z" fill="#422422"/>
<path d="M147.901 448.741L58.1322 396.936C55.8699 395.634 52.9908 396.422 51.654 398.683C50.3515 400.944 51.1399 403.822 53.4021 405.159L143.171 456.964C145.433 458.266 148.312 457.478 149.649 455.217C150.952 452.955 150.197 450.077 147.901 448.741Z" fill="#422422"/>
<path d="M142.965 401.63C139.812 403.446 137.275 408.311 137.275 412.491C137.275 416.671 139.812 418.59 142.965 416.774C146.119 414.958 148.655 410.093 148.655 405.913C148.655 401.732 146.119 399.814 142.965 401.63Z" fill="#422422"/>
<path d="M139.264 417.116L143.822 419.72L150.815 403.788L146.427 401.219L139.264 417.116Z" fill="#422422"/>
<path d="M147.559 404.302C144.406 406.118 141.869 410.983 141.869 415.163C141.869 419.344 144.406 421.262 147.559 419.446C150.712 417.63 153.249 412.765 153.249 408.585C153.249 404.405 150.712 402.486 147.559 404.302Z" fill="#5E3C36"/>
<path d="M137.448 454.806C134.294 456.622 131.758 461.487 131.758 465.667C131.758 469.847 134.294 471.766 137.448 469.95C140.601 468.134 143.137 463.269 143.137 459.089C143.137 454.908 140.601 452.99 137.448 454.806Z" fill="#422422"/>
<path d="M133.746 470.258L138.305 472.896L145.263 456.964L140.875 454.36L133.746 470.258Z" fill="#422422"/>
<path d="M142.041 457.478C138.888 459.294 136.352 464.159 136.352 468.34C136.352 472.52 138.888 474.438 142.041 472.622C145.195 470.806 147.731 465.941 147.731 461.761C147.731 457.581 145.195 455.662 142.041 457.478Z" fill="#5E3C36"/>
<path d="M51.3461 404.611C48.1927 406.426 45.6562 411.292 45.6562 415.472C45.6562 419.652 48.1927 421.571 51.3461 419.755C54.4995 417.939 57.0359 413.073 57.0359 408.893C57.0359 404.713 54.4995 402.795 51.3461 404.611Z" fill="#422422"/>
<path d="M47.6445 420.063L52.2375 422.667L59.1955 406.735L54.8082 404.165L47.6445 420.063Z" fill="#422422"/>
<path d="M55.9398 407.249C52.7864 409.065 50.25 413.93 50.25 418.11C50.25 422.29 52.7864 424.209 55.9398 422.393C59.0932 420.577 61.6296 415.712 61.6296 411.532C61.6296 407.352 59.0932 405.433 55.9398 407.249Z" fill="#5E3C36"/>
<path d="M200.103 386.348C197.189 384.532 182.485 393.098 182.485 393.098L162.193 399.917L163.736 415.198C163.736 415.198 170.968 422.907 180.942 416.191C186.906 412.183 197.361 405.913 200.685 399.094C204.01 392.276 202.982 388.199 200.068 386.383L200.103 386.348Z" fill="#422422"/>
<path d="M58.0978 255.772L43.8047 278.489C43.8047 278.489 48.1577 283.217 61.9367 276.33C77.9778 268.313 87.3352 266.394 87.3352 266.394L84.7302 254.265L58.0635 255.772H58.0978Z" fill="#7F0057"/>
<path d="M64.507 216.541C60.4625 220.002 54.2928 232.371 49.4941 242.684C55.0468 248.2 61.2508 251.318 68.8944 252.552C72.1163 246.556 75.0297 241.005 75.0297 241.005L80.4796 214.28C80.4796 214.28 71.2937 210.717 64.507 216.541Z" fill="#C19D99"/>
<path d="M99.0225 168.608C93.2641 164.599 82.1587 165.867 77.3601 176.008C74.6865 181.628 78.4569 196.738 79.0396 207.359C79.5194 215.925 76.6403 220.859 76.6403 220.859L83.9753 223.874C91.3104 226.889 98.9882 223.874 98.9882 223.874L98.7483 210.82C98.7483 210.82 106.666 209.655 108.037 208.387C111.362 205.338 113.144 196.258 111.602 184.54C109.305 167.1 101.113 170.081 98.9882 168.608H99.0225Z" fill="#FFC5B3"/>
<path d="M172.751 330.26C168.947 317.686 165.862 312.615 157.773 309.36C146.05 304.666 96.4186 320.666 96.4186 320.666L60.6688 322.517C60.6688 322.517 58.8178 337.044 69.1006 344.445C79.3492 351.846 103.822 359.178 121.474 349.927C129.906 345.507 139.161 340.505 147.284 336.051C148.861 339.956 150.266 344.548 151.192 349.824C152.563 357.67 154.859 370.005 155.27 378.125C155.648 386.28 156.436 398.306 156.436 398.306C156.436 398.306 164.902 405.399 175.493 401.253C185.913 397.175 183.685 387.856 183.685 387.856C183.685 387.856 175.528 339.34 172.785 330.294L172.751 330.26Z" fill="#5E3C36"/>
<path d="M118.835 262.317C123.154 253.066 113.351 236.277 110.574 230.247C107.832 224.216 98.9891 220.55 98.9891 220.55L72.2195 216.576C72.2195 216.576 60.4971 236.962 58.9547 249.091C57.8579 257.588 58.7148 273.349 59.1947 294.969C59.5031 309.6 51.037 318.611 57.2067 324.984C66.5983 334.68 88.0893 341.396 100.12 338.175C107.318 336.256 112.22 328.821 117.053 322.928C122.365 316.418 125.107 300.794 118.286 294.387C117.43 294.421 109.957 281.264 118.835 262.351V262.317Z" fill="#FF4D4D"/>
<path d="M98.8871 216.816C98.8871 216.816 88.193 219.968 81.8862 215.034C72.9402 208.079 71.9805 217.878 71.9805 217.878C71.9805 217.878 75.7508 223.12 83.223 225.518C90.6952 227.883 97.4475 227.437 104.783 223.805C104.817 218.974 98.9214 216.816 98.9214 216.816H98.8871Z" fill="#C19D99"/>
<path d="M180.258 257.931C172.1 251.73 170.42 264.989 166.787 265.537C150.472 267.936 135.596 273.11 135.596 273.11C135.596 273.11 116.847 231.069 108.552 230.281C104.233 229.87 99.7433 237.716 100.189 247.549C100.737 260.124 123.222 292.023 123.222 292.023C132.031 297.231 163.771 281.23 170.386 277.804C176.076 274.823 186.907 274.343 190.266 270.129C191.98 267.97 191.123 262.591 189.546 260.055C188.21 257.897 186.941 256.081 180.258 257.965V257.931Z" fill="#FFC5B3"/>
<path d="M109.136 227.917C104.577 226.409 97.2075 237.921 98.6128 249.091C99.4697 256.012 104.371 265.298 108.998 273.075C119.898 273.486 130.181 268.039 129.701 255.087C123.977 243.952 118.15 230.932 109.136 227.917Z" fill="#C19D99"/>
<path d="M106.118 189.165C107.009 186.253 108.997 179.435 109.477 176.694C110.06 173.507 110.231 168.779 105.878 164.291C101.525 159.768 86.4777 158.329 81.0278 161.481C75.5779 164.633 63.9926 170.389 68.0372 189.165C71.2934 204.344 74.4811 206.057 79.0741 209.62C83.0844 212.738 90.1452 213.526 90.1452 213.526C90.1452 213.526 94.087 210.683 94.7725 204.926C95.0124 203.11 94.7725 197.628 94.7725 197.628C94.7725 197.628 90.7622 189.679 93.8813 186.87C97.2061 183.855 100.565 188.651 101.353 190.57C104.061 197.354 102.725 210.169 102.725 210.169C102.725 210.169 106.769 212.773 110.745 211.779C112.939 211.231 111.019 202.699 111.019 202.699C111.019 202.699 106.769 200.575 106.118 189.2V189.165Z" fill="#422422"/>
<path d="M57.172 254.128L45.0041 247.104C32.1848 239.703 21.6621 247.618 21.6621 264.749V313.608L80.514 347.563V298.704C80.514 281.607 70.0255 261.529 57.172 254.128Z" fill="#394248"/>
<path d="M28.448 257.931L29.4763 246.076L19.502 252.004L28.448 257.931Z" fill="#394248"/>
<path d="M70.7804 353.319L80.5148 347.563L68.998 336.256L70.7804 353.319Z" fill="#394248"/>
<path d="M47.4377 259.918L35.2697 252.894C22.4505 245.494 11.9277 253.408 11.9277 270.54V319.399L70.7796 353.353V304.494C70.7796 287.397 60.2911 267.319 47.4377 259.918Z" fill="#343438"/>
<path d="M41.7135 335.194C42.1591 319.091 41.7821 305.968 41.7135 300.589C41.645 293.633 34.07 293.291 34.07 300.28C34.07 310.628 33.0417 332.864 33.2131 338.004C33.5559 349.173 26.6321 384.224 71.1909 385.458C75.6468 385.595 93.8816 384.396 97.1035 382.271C89.8027 381.929 77.2235 379.188 67.1806 373.706C38.2517 371.033 41.3708 348.968 41.7478 335.16L41.7135 335.194Z" fill="#422422"/>
<path d="M128.569 175.22C128.569 175.22 135.116 180.326 138.304 180.874C141.491 181.422 144.268 181.765 142.348 183.546C141.388 184.437 134.842 184.917 134.842 184.917C134.842 184.917 140.6 197.457 136.933 200.918C131.688 205.851 124.422 201.569 121.817 194.682C119.212 187.795 118.869 175.597 118.869 175.597L128.569 175.255V175.22Z" fill="#FFC5B3"/>
<path d="M130.18 167.237C130.18 167.237 130.454 172.274 130.18 175.289C129.906 178.304 121.92 182.142 119.349 179.469C116.778 176.797 115.064 170.801 115.064 170.801L130.18 167.237Z" fill="#627C11"/>
<path d="M127.027 50.435C136.007 53.6557 133.505 77.1943 133.745 86.0341C133.985 94.9082 130.557 154.389 130.592 163.434C130.66 172.479 124.319 177.653 116.401 174.158C108.689 170.766 106.461 125.06 105.741 120.194C105.022 115.329 99.3318 40.4302 126.993 50.4007L127.027 50.435Z" fill="#769620"/>
<path d="M198.458 213.903L182.143 204.481L200.96 193.62L217.275 203.042L198.458 213.903Z" fill="#F46C3C"/>
<path d="M198.697 211.813L185.775 204.344L200.72 195.71L213.642 203.179L198.697 211.813Z" fill="#FF8F43"/>
<path d="M276.265 255.43L259.949 246.042L278.767 235.181L295.082 244.569L276.265 255.43Z" fill="#F46C3C"/>
<path d="M276.504 253.34L263.582 245.871L278.526 237.271L291.448 244.74L276.504 253.34Z" fill="#FF8F43"/>
<path d="M260.771 199.924L244.49 190.536L263.308 179.64L279.623 189.063L260.771 199.924Z" fill="#F46C3C"/>
<path d="M261.045 197.834L248.123 190.365L263.033 181.765L275.989 189.2L261.045 197.834Z" fill="#FF8F43"/>
<path d="M191.638 235.386L175.322 225.998L194.174 215.102L210.455 224.525L191.638 235.386Z" fill="#394248"/>
<path d="M191.911 233.296L178.955 225.827L193.899 217.227L206.856 224.662L191.911 233.296Z" fill="#343438"/>
<path d="M298.441 221.715L282.16 212.327L300.978 201.432L317.293 210.854L298.441 221.715Z" fill="#394248"/>
<path d="M298.715 219.625L285.793 212.156L300.703 203.522L313.659 210.991L298.715 219.625Z" fill="#343438"/>
<path d="M239.589 211.745L223.273 202.322L242.125 191.461L258.406 200.883L239.589 211.745Z" fill="#394248"/>
<path d="M239.863 209.655L226.906 202.185L241.851 193.551L254.773 201.02L239.863 209.655Z" fill="#343438"/>
<path d="M257.173 244.671L240.857 235.249L259.675 224.388L275.99 233.776L257.173 244.671Z" fill="#394248"/>
<path d="M257.412 242.547L244.49 235.078L259.435 226.478L272.357 233.947L257.412 242.547Z" fill="#343438"/>
<path d="M216.007 223.634L199.691 214.246L218.543 203.35L234.824 212.773L216.007 223.634Z" fill="#2484ED"/>
<path d="M216.281 221.544L203.324 214.075L218.269 205.475L231.191 212.91L216.281 221.544Z" fill="#22A1EF"/>
<path d="M199.143 191.667L182.828 182.244L201.646 171.383L217.961 180.771L199.143 191.667Z" fill="#2484ED"/>
<path d="M199.383 189.542L186.461 182.073L201.405 173.473L214.327 180.942L199.383 189.542Z" fill="#22A1EF"/>
<path d="M320.138 208.216L303.822 198.793L322.674 187.932L338.955 197.32L320.138 208.216Z" fill="#2484ED"/>
<path d="M320.411 206.091L307.455 198.622L322.399 190.022L335.356 197.491L320.411 206.091Z" fill="#22A1EF"/>
<path d="M278.354 210.066L262.039 200.644L280.891 189.782L297.172 199.204L278.354 210.066Z" fill="#2484ED"/>
<path d="M278.628 207.976L265.672 200.506L280.616 191.872L293.538 199.342L278.628 207.976Z" fill="#22A1EF"/>
<path d="M236.745 233.776L220.43 224.388L239.247 213.492L255.563 222.914L236.745 233.776Z" fill="#769620"/>
<path d="M236.985 231.686L224.062 224.216L239.007 215.582L251.929 223.051L236.985 231.686Z" fill="#A3BF2E"/>
<path d="M170.112 248.372L153.797 238.949L172.614 228.088L188.93 237.51L170.112 248.372Z" fill="#769620"/>
<path d="M170.352 246.282L157.43 238.812L172.374 230.178L185.296 237.648L170.352 246.282Z" fill="#A3BF2E"/>
<path d="M317.122 232.953L300.807 223.531L319.658 212.67L335.94 222.058L317.122 232.953Z" fill="#769620"/>
<path d="M317.396 230.863L304.439 223.394L319.384 214.76L332.306 222.229L317.396 230.863Z" fill="#A3BF2E"/>
<path d="M178.99 203.35L162.709 193.962L181.526 183.101L197.842 192.489L178.99 203.35Z" fill="#769620"/>
<path d="M179.265 201.26L166.309 193.791L181.253 185.191L194.209 192.66L179.265 201.26Z" fill="#A3BF2E"/>
<path d="M238.869 54.5465L235.133 56.7051V51.7027L238.869 49.5441V54.5465Z" fill="#95C7EF"/>
<path d="M231.396 54.5465L235.133 56.7051V51.7027L231.396 49.5441V54.5465Z" fill="#B6DBFF"/>
<path d="M238.869 49.5441L235.133 47.3856L231.396 49.5441L235.133 51.7027L238.869 49.5441Z" fill="white"/>
<path d="M234.412 49.3728C234.412 49.1672 234.721 48.9959 235.132 48.9959C235.543 48.9959 235.852 49.1672 235.852 49.3728C235.852 49.5784 235.543 49.7497 235.132 49.7497C234.721 49.7497 234.412 49.5784 234.412 49.3728Z" fill="#5E3C36"/>
<path d="M236.641 52.3194C236.641 52.6278 236.47 52.9704 236.23 53.0732C236.024 53.2103 235.818 53.0732 235.818 52.7649C235.818 52.4565 235.99 52.1139 236.23 52.0111C236.435 51.874 236.641 52.0111 236.641 52.3194Z" fill="#5E3C36"/>
<path d="M238.422 51.2915C238.422 51.5999 238.251 51.9425 238.011 52.0453C237.805 52.1824 237.6 52.0453 237.6 51.737C237.6 51.4286 237.771 51.086 238.011 50.9832C238.217 50.8461 238.422 50.9832 238.422 51.2915Z" fill="#5E3C36"/>
<path d="M236.641 54.5122C236.641 54.8206 236.47 55.1632 236.23 55.266C236.024 55.4031 235.818 55.266 235.818 54.9577C235.818 54.6493 235.99 54.3067 236.23 54.2039C236.435 54.0668 236.641 54.2039 236.641 54.5122Z" fill="#5E3C36"/>
<path d="M238.422 53.4844C238.422 53.7927 238.251 54.1353 238.011 54.2381C237.805 54.3752 237.6 54.2381 237.6 53.9298C237.6 53.6214 237.771 53.2788 238.011 53.176C238.217 53.0389 238.422 53.176 238.422 53.4844Z" fill="#5E3C36"/>
<path d="M231.979 51.2915C231.979 51.5999 232.15 51.9425 232.39 52.0453C232.595 52.1824 232.801 52.0453 232.801 51.737C232.801 51.4286 232.63 51.086 232.39 50.9832C232.184 50.8461 231.979 50.9832 231.979 51.2915Z" fill="#5E3C36"/>
<path d="M233.727 54.5122C233.727 54.8206 233.898 55.1632 234.138 55.266C234.344 55.4031 234.549 55.266 234.549 54.9577C234.549 54.6493 234.378 54.3067 234.138 54.2039C233.932 54.0668 233.727 54.2039 233.727 54.5122Z" fill="#5E3C36"/>
<path d="M230.369 55.9856L226.633 58.1442V53.176L230.369 50.9832V55.9856Z" fill="#95C7EF"/>
<path d="M222.863 55.9856L226.634 58.1442V53.176L222.863 50.9832V55.9856Z" fill="#B6DBFF"/>
<path d="M230.37 50.9832L226.634 48.8246L222.863 50.9832L226.634 53.176L230.37 50.9832Z" fill="white"/>
<path d="M224.371 50.9832C224.371 50.7776 224.68 50.6063 225.091 50.6063C225.502 50.6063 225.811 50.7776 225.811 50.9832C225.811 51.1888 225.502 51.3601 225.091 51.3601C224.68 51.3601 224.371 51.1888 224.371 50.9832Z" fill="#5E3C36"/>
<path d="M227.559 50.9832C227.559 50.7776 227.867 50.6063 228.278 50.6063C228.69 50.6063 228.998 50.7776 228.998 50.9832C228.998 51.1888 228.69 51.3601 228.278 51.3601C227.867 51.3601 227.559 51.1888 227.559 50.9832Z" fill="#5E3C36"/>
<path d="M228.141 53.7585C228.141 54.0669 227.97 54.4095 227.73 54.5123C227.524 54.6494 227.318 54.5123 227.318 54.2039C227.318 53.8956 227.49 53.5529 227.73 53.4502C227.935 53.3131 228.141 53.4502 228.141 53.7585Z" fill="#5E3C36"/>
<path d="M229.924 52.7306C229.924 53.039 229.753 53.3816 229.513 53.4844C229.307 53.6215 229.102 53.4844 229.102 53.1761C229.102 52.8677 229.273 52.5251 229.513 52.4223C229.719 52.2852 229.924 52.4223 229.924 52.7306Z" fill="#5E3C36"/>
<path d="M228.141 55.9513C228.141 56.2597 227.97 56.6023 227.73 56.7051C227.524 56.8422 227.318 56.7051 227.318 56.3968C227.318 56.0884 227.49 55.7458 227.73 55.643C227.935 55.5059 228.141 55.643 228.141 55.9513Z" fill="#5E3C36"/>
<path d="M229.067 54.341C229.067 54.6493 228.895 54.992 228.655 55.0948C228.45 55.2318 228.244 55.0948 228.244 54.7864C228.244 54.478 228.416 54.1354 228.655 54.0326C228.861 53.8956 229.067 54.0326 229.067 54.341Z" fill="#5E3C36"/>
<path d="M229.924 54.9234C229.924 55.2318 229.753 55.5744 229.513 55.6772C229.307 55.8143 229.102 55.6772 229.102 55.3689C229.102 55.0605 229.273 54.7179 229.513 54.6151C229.719 54.478 229.924 54.6151 229.924 54.9234Z" fill="#5E3C36"/>
<path d="M223.48 52.7306C223.48 53.039 223.652 53.3816 223.892 53.4844C224.097 53.6215 224.303 53.4844 224.303 53.1761C224.303 52.8677 224.132 52.5251 223.892 52.4223C223.686 52.2852 223.48 52.4223 223.48 52.7306Z" fill="#5E3C36"/>
<path d="M225.229 55.9513C225.229 56.2597 225.4 56.6023 225.64 56.7051C225.845 56.8422 226.051 56.7051 226.051 56.3968C226.051 56.0884 225.88 55.7458 225.64 55.643C225.434 55.5059 225.229 55.643 225.229 55.9513Z" fill="#5E3C36"/>
<path d="M224.27 54.341C224.27 54.6493 224.441 54.992 224.681 55.0948C224.887 55.2318 225.092 55.0948 225.092 54.7864C225.092 54.478 224.921 54.1354 224.681 54.0326C224.475 53.8956 224.27 54.0326 224.27 54.341Z" fill="#5E3C36"/>
<path d="M238.973 309.736C238.973 306.344 244.32 303.638 250.661 303.638C257.002 303.638 261.972 306.379 261.972 309.736C261.972 313.094 257.036 315.835 250.661 315.835C244.285 315.835 238.973 313.094 238.973 309.736Z" fill="#769620"/>
<path d="M261.972 291.543H238.973V309.736H261.972V291.543Z" fill="#769620"/>
<path d="M238.973 291.543C238.973 288.151 244.32 285.444 250.661 285.444C257.002 285.444 261.972 288.185 261.972 291.543C261.972 294.901 257.036 297.642 250.661 297.642C244.285 297.642 238.973 294.901 238.973 291.543Z" fill="white"/>
<path d="M250.626 289.624C255.082 289.624 258.715 291.132 260.155 293.222C260.566 292.639 260.806 291.988 260.806 291.303C260.806 288.254 256.35 285.787 250.626 285.787C244.902 285.787 240.104 288.254 240.104 291.303C240.104 291.988 240.378 292.605 240.823 293.222C242.331 291.132 246.205 289.624 250.626 289.624Z" fill="#627C11"/>
<path d="M250.627 296.785C255.083 296.785 258.716 295.277 260.156 293.187C258.751 291.097 255.083 289.59 250.627 289.59C246.171 289.59 242.332 291.097 240.824 293.187C242.332 295.277 246.206 296.785 250.627 296.785Z" fill="#22A1EF"/>
<path d="M258.99 297.642C258.064 298.327 258.407 300.143 259.538 301.137C261.355 301.993 262.143 304.803 261.937 306.824C261.697 309.257 259.161 308.16 259.161 310.148C259.161 311.552 260.909 312.032 262.863 310.627C264.474 309.462 265.708 306.379 264.234 301.753C262.794 297.265 260.635 296.477 258.99 297.642Z" fill="#627C11"/>
<path d="M200.686 149.078C200.686 145.686 206.033 142.979 212.374 142.979C218.715 142.979 223.685 145.72 223.685 149.078C223.685 152.436 218.749 155.177 212.374 155.177C205.998 155.177 200.686 152.436 200.686 149.078Z" fill="#769620"/>
<path d="M223.685 130.884H200.686V149.078H223.685V130.884Z" fill="#769620"/>
<path d="M200.686 130.884C200.686 127.492 206.033 124.785 212.374 124.785C218.715 124.785 223.685 127.527 223.685 130.884C223.685 134.242 218.749 136.983 212.374 136.983C205.998 136.983 200.686 134.242 200.686 130.884Z" fill="white"/>
<path d="M212.306 128.966C216.762 128.966 220.395 130.473 221.835 132.563C222.246 131.981 222.486 131.33 222.486 130.644C222.486 127.595 218.03 125.128 212.306 125.128C206.582 125.128 201.783 127.595 201.783 130.644C201.783 131.33 202.057 131.946 202.503 132.563C204.011 130.473 207.884 128.966 212.306 128.966Z" fill="#627C11"/>
<path d="M212.307 136.161C216.763 136.161 220.396 134.653 221.836 132.563C220.43 130.473 216.763 128.966 212.307 128.966C207.851 128.966 204.012 130.473 202.504 132.563C204.012 134.653 207.885 136.161 212.307 136.161Z" fill="#22A1EF"/>
<path d="M220.703 137.017C219.777 137.703 220.12 139.519 221.251 140.512C223.068 141.369 223.856 144.178 223.65 146.2C223.41 148.632 220.874 147.536 220.874 149.523C220.874 150.928 222.622 151.408 224.576 150.003C226.187 148.838 227.421 145.754 225.947 141.129C224.507 136.64 222.348 135.852 220.703 137.017Z" fill="#627C11"/>
<path d="M251.036 296.785C251.036 296.785 251.036 301.034 249.905 303.775C248.74 306.516 246.889 308.469 246.889 308.469L247.3 308.948C247.3 308.948 249.699 306.241 250.488 304.323C251.276 302.37 251.79 296.751 251.79 296.751C251.79 296.751 251.345 296.134 251.036 296.751V296.785Z" fill="#5E3C36"/>
<path d="M247.609 305.145L250.249 307.646L246.855 311.518L244.113 308.982L247.609 305.145Z" fill="#5E3C36"/>
<path d="M267.147 143.836C267.147 140.512 261.868 137.805 255.63 137.805C249.392 137.805 244.49 140.512 244.49 143.836C244.49 147.159 249.392 149.866 255.63 149.866C261.868 149.866 267.147 147.159 267.147 143.836Z" fill="#22A1EF"/>
<path d="M244.456 143.87H267.146V125.916H244.456V143.87Z" fill="#22A1EF"/>
<path d="M267.147 125.882C267.147 122.558 261.868 119.852 255.63 119.852C249.392 119.852 244.49 122.558 244.49 125.882C244.49 129.205 249.392 131.912 255.63 131.912C261.868 131.912 267.147 129.205 267.147 125.882Z" fill="white"/>
<path d="M255.664 123.997C251.277 123.997 247.678 125.471 246.272 127.526C245.861 126.944 245.621 126.293 245.621 125.642C245.621 122.627 250.008 120.228 255.664 120.228C261.319 120.228 266.05 122.661 266.05 125.642C266.05 126.293 265.775 126.944 265.364 127.526C263.856 125.471 260.051 123.997 255.664 123.997Z" fill="#2484ED"/>
<path d="M255.663 131.09C251.276 131.09 247.677 129.616 246.271 127.561C247.677 125.505 251.276 124.032 255.663 124.032C260.05 124.032 263.855 125.505 265.363 127.561C263.855 129.616 260.05 131.09 255.663 131.09Z" fill="#22A1EF"/>
<path d="M247.37 131.912C248.295 132.563 247.952 134.379 246.821 135.373C245.005 136.229 244.251 139.005 244.456 140.992C244.696 143.39 247.198 142.294 247.198 144.281C247.198 145.652 245.485 146.165 243.565 144.761C241.988 143.596 240.755 140.546 242.194 135.989C243.599 131.57 245.759 130.781 247.37 131.912Z" fill="#2484ED"/>
<path d="M261.732 130.267C261.732 130.267 262.212 130.405 262.246 131.261C262.349 132.734 262.589 135.099 263.343 136.812C264.509 139.553 266.36 141.506 266.36 141.506L265.948 141.985C265.948 141.985 263.549 139.279 262.761 137.36C262.246 136.092 261.835 133.283 261.629 131.467C261.527 130.473 260.738 130.37 260.738 130.37C260.738 130.37 261.424 129.616 261.732 130.267Z" fill="#5E3C36"/>
<path d="M265.639 138.182L263 140.649L266.393 144.521L269.135 141.985L265.639 138.182Z" fill="#5E3C36"/>
</g>
<defs>
<clipPath id="clip0_828_4556">
<rect width="463" height="489" fill="white"/>
</clipPath>
</defs>
</svg>
