<svg width="419" height="222" viewBox="0 0 419 222" fill="none" xmlns="http://www.w3.org/2000/svg">
<path d="M416.997 92.0478C416.379 90.3008 417.203 89.324 418.495 88.535C416.623 87.6521 414.751 86.7316 412.692 86.4498C411.999 86.3559 411.999 85.4354 412.692 85.3603C414.264 85.21 415.818 85.0785 417.353 84.8719C416.417 82.7867 415.518 80.7015 414.639 78.5976C414.639 78.6539 414.639 78.7103 414.639 78.7667C414.489 78.6539 414.339 78.5412 414.208 78.4285C414.133 78.2782 414.058 78.1092 414.002 77.9589C413.74 76.9257 413.478 75.8925 413.141 74.8781C412.617 73.5819 412.093 72.3045 411.569 71.0083C410.24 68.1154 408.667 65.26 407.301 62.4798C405.71 59.2863 403.95 56.1492 402.078 53.0684C399.533 49.2738 396.837 45.5731 394.348 41.6469C391.764 38.3032 388.62 35.3351 385.756 32.2543C385.306 31.7847 384.876 31.2962 384.445 30.8078C383.977 30.3382 383.491 29.8498 383.023 29.3802C379.691 25.9988 376.153 23.0495 372.391 20.1754C368.16 16.9255 363.78 14.9343 359.025 12.6425C357.341 11.8347 355.6 11.2336 353.84 10.7264C351.482 10.1253 349.086 9.61806 346.671 9.20479C345.604 9.12964 344.537 9.11086 343.545 9.20479C343.096 9.29871 342.628 9.39265 342.179 9.46779C342.16 9.46779 342.141 9.46779 342.123 9.46779C341.935 9.52415 341.598 9.46777 341.598 9.41141C341.524 9.37384 341.449 4.03884 340.7 2.76144C339.914 1.4089 338.547 1.65311 337.368 0.638707C336.507 0.244216 335.59 0 334.616 0C330.292 0 326.099 1.23983 321.85 1.70947C319.829 2.10396 317.807 2.47966 315.785 2.81779C309.234 3.94491 302.57 4.50847 296 5.52287C289.804 6.46214 281.512 8.47216 275.222 7.11962C269.812 5.95493 263.86 5.33502 258.338 5.05324C256.185 4.94053 254.313 4.80903 252.573 4.82781C251.899 4.92174 251.244 5.03446 250.588 5.18474C248.005 5.76708 245.104 6.46214 243.999 9.14843C243.7 9.89984 243.438 10.6513 243.157 11.4027C242.989 13.6193 241.51 18.5598 241.379 18.0526C240.686 15.6857 238.852 11.9099 236.512 9.78714C234.584 10.8955 232.6 11.985 230.466 12.0414C226.067 12.1541 221.668 11.5717 217.269 11.5717C213.02 11.5717 209.033 10.4446 204.821 10.2568C203.661 10.2004 202.313 10.238 201.19 9.82469C200.722 10.3131 200.254 10.7827 199.711 11.1772C197.952 12.4358 196.155 13.6381 194.47 14.9719C194.245 15.1597 193.871 15.0282 193.721 14.784C193.59 14.5586 193.459 14.3144 193.328 14.0702C190.932 11.7596 188.199 9.24236 184.961 8.41581C181.835 7.62683 178.69 8.62244 175.676 9.65563C172.869 10.7076 169.986 11.7032 167.122 12.6049C162.517 14.2017 157.875 15.6857 153.046 16.3056C146.101 17.1885 139.194 16.8692 132.399 15.0658C130.171 14.4647 127.457 13.995 124.949 13.1685C123.807 12.3607 122.721 11.196 121.523 10.6137C121.261 10.501 120.962 10.7452 120.831 10.9518C120.045 12.2856 118.659 13.1309 117.555 14.1453C116.563 15.047 115.852 16.1365 115.009 17.1885C114.111 18.2968 113.268 19.3864 112.857 20.6638C112.838 20.6074 112.819 20.5511 112.819 20.4759C112.726 18.7289 112.464 16.8128 112.014 14.9343H111.996C110.929 12.4922 109.937 10.0313 108.87 7.60804C108.533 7.00691 108.214 6.40578 107.896 5.78587C102.505 5.07203 95.4296 6.03008 90.1322 5.86101C84.1236 5.67316 78.9011 5.69194 73.5663 6.06765C72.1062 6.27429 70.6461 6.4997 69.1861 6.76269C66.9024 7.15719 64.6 7.66439 62.2976 7.85224C60.0514 8.0401 57.9736 7.6456 55.7648 7.30747C49.8685 6.38699 44.3839 8.00253 39.0865 10.5761C34.5192 12.7928 29.9518 14.9907 25.4032 17.2449C20.6112 19.6306 15.9877 22.223 11.5701 25.2662C8.21949 27.5956 6.57225 29.7934 6.77815 34.0389C6.90918 36.9318 7.17124 39.8999 6.79687 42.7741C6.66584 43.8448 6.49737 45.3101 5.72991 46.1742C5.78606 46.2493 5.8235 46.3433 5.87966 46.4184C6.16044 46.7753 6.722 46.8317 7.30227 46.7941C14.3966 46.3621 21.622 47.0947 28.7164 47.3201C22.8762 47.1322 17.1296 48.4096 11.5701 49.2738C6.66584 50.0252 -2.33782 49.0859 0.563565 53.9137C6.02941 63.0434 2.24824 73.6007 3.74573 83.106C4.17626 85.9051 2.92211 91.7848 4.85013 94.2457C5.13091 94.6026 6.14172 94.9783 6.70328 94.9783C10.447 95.0159 13.8538 94.659 17.3729 95.2601C11.9819 96.2933 5.48657 96.5939 2.28568 99.5432C3.89548 103.3 5.29938 106.982 5.41169 111.228C5.524 116.224 4.58807 121.203 5.26194 126.162C5.97325 126.199 6.68456 126.162 7.43331 126.275C9.1367 126.5 10.8027 126.801 12.5248 126.97C15.7631 127.289 22.6703 127.627 22.2772 127.928C21.0605 128.848 19.4881 128.848 18.0281 129.017C15.5759 129.318 13.1238 130.107 10.7839 130.877C8.94951 131.478 7.15253 132.173 5.37426 132.925C7.28356 137.32 6.60968 143.106 6.02941 147.521C5.3181 153.006 4.77526 158.548 5.35554 163.977C9.69826 169.199 13.8164 174.553 18.4586 179.512C23.9244 185.335 29.4651 191.084 35.2118 196.644C40.6776 201.96 46.1809 207.277 52.2832 211.86C54.155 213.269 56.1018 214.584 58.0485 215.862C61.4927 217.533 64.8808 218.266 68.2876 218.567C72.0688 219.374 76.0371 219.788 79.5188 219.75C85.1718 219.694 90.7312 218.473 96.403 218.041C96.7586 218.041 97.1143 218.003 97.4512 218.003C102.561 217.872 110.18 218.548 115.721 216.406C116.507 216.369 117.256 216.406 117.967 216.575C118.304 216.651 118.678 216.538 118.903 216.237C119.914 214.903 120.606 213.307 121.355 211.748C121.486 211.503 121.617 211.24 121.729 210.996C122.048 210.357 122.384 209.719 122.778 209.118C123.002 209.118 123.246 209.249 123.302 209.512C124.05 212.649 125.698 215.298 127.513 217.89C129.048 215.655 132.025 216.444 134.57 216.5C139.418 216.613 144.304 216.876 149.133 216.5C153.832 216.143 158.605 214.753 163.303 214.828C165.362 214.866 167.421 214.979 169.499 215.091C171.989 215.091 174.516 215.185 177.08 215.429C187.057 215.617 197.053 215.279 207.03 215.091C207.18 215.091 207.33 215.091 207.479 215.091C209.894 215.373 212.328 215.655 214.742 215.786C221.837 216.162 228.875 216.425 235.969 216.876C241.323 217.214 245.965 217.533 250.177 214.321C251.543 213.758 252.797 212.893 253.976 211.917C254.8 211.391 255.904 210.733 256.747 210.545C256.84 210.977 256.934 211.409 257.102 211.804C257.402 212.537 258.469 211.804 258.619 211.316C259.049 209.756 259.798 208.423 260.959 207.314C261.146 207.314 261.333 207.427 261.426 207.577C261.464 207.765 261.501 207.953 261.558 208.141C262.138 211.597 262.568 215.091 263.111 218.548C264.347 219.168 266.293 219.318 269.363 218.717C270.037 218.698 270.561 218.661 270.673 218.642C275.746 218.679 281.362 219.957 285.929 221.046C292.368 222.568 299.201 221.929 305.902 221.441C315.448 220.765 324.939 221.027 334.429 221.253C335.627 218.585 337.237 216.125 338.454 213.457C338.622 213.081 339.221 213.119 339.39 213.457C340.195 214.997 340.157 216.744 340.326 218.435C340.438 219.487 340.569 220.633 340.737 221.76C342.478 222.286 344.93 221.591 346.727 221.741C351.65 222.155 356.835 220.99 361.777 220.99C367.58 220.99 372.559 218.191 378.231 217.984C380.121 217.909 382.012 218.21 383.921 218.604C384.052 218.661 384.183 218.717 384.314 218.773C384.539 218.886 384.801 218.961 385.101 219.036C385.868 219.412 386.579 219.882 387.141 220.539C387.309 220.746 387.721 220.633 387.89 220.483C390.342 218.247 393.749 217.101 396.463 215.204C396.706 215.035 396.949 214.866 397.193 214.697C397.53 214.471 397.885 214.265 398.222 214.039C400.6 212.386 402.79 210.545 404.643 208.742C407.9 205.586 410.783 202.073 413.366 198.335C414.788 196.287 416.248 194.033 416.978 191.629C417.315 190.52 418.064 189.111 417.914 187.928C417.858 187.477 417.821 187.045 417.821 186.632C417.315 186.106 416.585 185.805 415.799 185.58C416.96 185.148 417.97 184.678 418.626 183.851C417.877 179.249 417.297 174.628 416.978 169.988C416.754 166.531 416.567 163.037 416.679 159.562C416.754 157.327 416.997 155.035 416.791 152.799C415.312 152.536 413.815 152.33 412.317 152.161C410.146 151.916 407.975 151.146 405.785 151.372C405.148 151.447 405.111 150.489 405.654 150.301C408.218 149.456 410.914 149.117 413.478 148.253C414.77 147.821 416.005 147.22 417.24 146.694C416.847 142.298 417.652 137.583 418.176 133.281C418.532 130.407 418.663 127.402 419 124.452C418.925 115.154 418.701 105.855 418.906 96.5563C418.307 95.091 417.577 93.607 416.997 91.9539V92.0478Z" fill="#F0F0F0"/>
<path d="M364.098 20.0627C363.761 18.5787 363.836 17.2261 363.181 15.9111C363.275 15.9111 363.349 15.9299 363.443 15.9863C364.379 16.5874 365.277 17.2261 366.176 17.8648C366.176 17.9024 366.176 17.9211 366.176 17.9587C367.823 20.645 368.291 23.8385 368.254 26.9944C368.198 31.146 365.259 33.2499 362.208 35.4666C362.17 35.5042 362.17 35.5793 362.226 35.5605C365.502 33.7947 368.871 32.104 369.751 28.1591C370.182 26.2243 370.294 22.6738 369.283 20.1378C370.743 21.2274 372.147 22.3733 373.551 23.5379C373.907 24.5711 374.3 25.5855 374.562 26.6751C375.254 29.6244 374 31.8223 372.409 34.1328C372.147 34.5273 372.671 34.6401 372.896 34.3207C374.244 32.4422 375.685 30.4509 375.498 27.99C375.423 26.9381 375.311 25.8298 374.955 24.8154C374.955 24.7778 374.936 24.759 374.918 24.7214C375.498 25.2286 376.078 25.6982 376.64 26.2055C377.051 28.5536 377.201 31.1084 377.108 33.4378C376.995 36.5186 372.484 39.1297 370.275 40.7077C370.219 40.7453 370.219 40.8955 370.313 40.8392C372.952 39.3927 376.715 37.6081 377.95 34.6213C378.68 32.8555 378.886 30.1692 378.455 27.8398C380.29 29.5492 382.049 31.3526 383.79 33.1748C383.697 34.1704 383.959 35.1848 384.034 36.1992C384.202 38.9231 382.723 41.1585 381.02 43.131C380.945 43.2249 381.02 43.3564 381.132 43.2625C382.705 41.8724 383.996 40.3696 384.857 38.4535C385.232 37.6081 385.437 36.218 385.4 34.8843C385.831 35.3539 386.28 35.8235 386.71 36.2932C386.542 38.0965 386.43 39.8811 386.224 41.6845C385.98 43.8073 384.689 45.2913 383.172 46.6438C382.742 47.0383 381.862 48.1091 381.301 48.203C381.132 48.2406 380.945 48.6163 381.207 48.6163C381.918 48.6163 382.293 48.203 382.854 47.771C384.071 46.8129 385.344 46.1742 386.242 44.8592C387.534 42.9807 388.264 40.2756 388.039 37.796C389.293 39.2612 390.548 40.7453 391.746 42.2669C392.083 42.6989 392.419 43.1498 392.756 43.5818C392.307 44.9156 392.345 46.5687 391.989 47.9024C391.39 50.1191 389.949 53.4629 387.684 54.4773C387.646 54.4773 387.609 54.59 387.684 54.5712C389.705 54.0828 391.596 51.6031 392.532 49.8373C393.131 48.7102 393.842 46.9256 394.029 45.2725C395.059 46.719 396.07 48.1842 397.024 49.6683C396.687 51.0772 396.519 52.4297 395.546 53.7259C394.853 54.6464 393.805 55.379 392.887 56.0552C391.764 56.8818 390.997 57.8962 389.499 58.1216C389.462 58.1216 389.406 58.2156 389.481 58.2343C390.716 58.2907 391.596 57.7084 392.663 57.0884C393.823 56.4122 395.003 55.905 395.957 54.9093C396.856 53.9701 397.698 52.7491 398.166 51.4341C399.308 53.2563 400.412 55.116 401.498 56.9945C401.404 57.6708 400.993 58.3658 400.693 58.967C400.263 59.8499 399.533 61.2212 398.54 61.5969C398.447 61.6345 398.335 61.9162 398.503 61.8975C399.607 61.8035 400.637 60.7703 401.236 59.925C401.479 59.5869 401.891 58.9858 402.265 58.3283C403.37 60.2256 404.474 62.1605 405.466 64.1517C405.055 64.6213 404.98 65.3352 404.624 65.9175C404.362 66.3684 403.651 66.6126 403.22 66.8944C402.584 67.2888 402.097 67.9276 401.311 68.0215C401.086 68.0403 400.88 68.5099 401.199 68.5475C401.76 68.6226 402.228 68.416 402.733 68.1718C403.351 67.8712 403.988 67.627 404.605 67.3452C405.392 66.9883 405.803 66.2557 406.103 65.4855C406.552 66.4623 406.964 67.4579 407.32 68.4723C407.207 68.6226 407.095 68.7729 406.964 68.9419C406.758 69.2049 406.29 69.9751 405.916 69.9564C405.71 69.9564 405.448 70.2945 405.71 70.426C406.196 70.6702 406.571 70.2945 406.983 70.0691C407.207 69.9376 407.451 69.7309 407.656 69.4867C407.862 70.163 408.068 70.8393 408.218 71.5343C408.892 72.962 409.566 74.3897 410.258 75.8174C408.985 75.1411 407.694 74.5587 406.346 74.0328C404.961 73.0184 403.595 72.0227 402.303 70.9896C395.808 65.8236 389.181 60.9394 382.424 56.1304C376.415 51.8286 370.163 48.0151 364.042 43.9012C363.743 43.7133 363.312 43.4316 362.75 43.0934C363.537 42.5674 364.304 41.9663 364.941 41.29C365.97 40.2193 367.243 39.1673 367.954 37.8335C367.992 37.7396 367.898 37.7021 367.842 37.7584C367.056 38.7728 365.802 39.5618 364.772 40.3132C363.799 41.027 362.676 41.7972 361.59 42.3796C360.448 41.7033 359.082 40.858 357.696 39.9563C357.753 39.9187 357.79 39.8623 357.846 39.8248C358.258 39.4679 358.688 38.9419 359.194 38.7164C359.306 38.6601 359.362 38.4534 359.194 38.4722C358.688 38.5474 358.37 38.9043 357.902 39.0546C357.603 39.1485 357.266 39.28 356.966 39.4678C356.629 39.2424 356.292 39.0358 355.974 38.7916C354.683 37.965 353.41 37.1385 352.137 36.3119C351.912 36.1617 351.856 35.9362 351.912 35.7108C353.035 35.6732 354.589 34.997 355.226 34.8279C357.827 34.1141 360.036 33.0057 362.095 31.315C364.098 29.6807 364.978 27.0884 365.128 24.5899C365.221 23.0683 364.454 21.4904 364.117 20.0251L364.098 20.0627Z" fill="#F0F0F0"/>
<path d="M256.242 7.72076C256.878 8.52853 257.496 9.44901 257.964 10.0689C259.049 11.5154 259.33 14.2017 259.33 15.8736C259.33 16.099 259.611 15.9675 259.63 15.7984C259.967 13.7508 260.285 11.5342 259.424 9.56171C259.143 8.90423 258.488 8.37825 257.87 7.94619C259.087 8.13404 260.285 8.34068 261.502 8.54732C261.895 9.35509 262.25 10.1629 262.475 11.1021C262.887 12.8867 262.475 15.6482 261.595 17.2073C261.52 17.3388 261.689 17.3764 261.764 17.2637C263.13 15.2724 263.991 11.5342 263.13 8.81031C265.732 9.27994 268.296 9.712 270.749 9.97499C273.201 10.238 275.615 10.2568 278.03 10.1065C278.124 10.2944 278.199 10.4822 278.255 10.6888C278.348 11.0082 278.311 11.3463 278.311 11.6657C278.311 11.9099 278.423 12.1541 278.498 12.3795C278.536 12.511 278.704 12.3795 278.723 12.3044C278.929 11.5717 279.116 10.8955 279.003 10.1441C279.003 10.1065 279.003 10.0877 279.003 10.0501C280.464 9.93744 281.905 9.76837 283.346 9.58051C283.571 9.91865 283.777 10.2756 283.945 10.6513C284.263 11.4215 284.376 12.2668 284.469 13.0746C284.488 13.2436 284.713 13.0746 284.713 12.9806C284.806 11.8723 284.9 10.501 284.469 9.41143C284.619 9.39264 284.769 9.37386 284.919 9.35507C285.256 9.88106 285.536 10.4258 285.686 11.0833C285.855 11.8159 286.098 12.9055 285.929 13.6381C285.892 13.7696 286.098 13.6945 286.117 13.6381C286.454 12.8116 286.397 11.6469 286.36 10.764C286.341 10.2192 286.266 9.67443 286.079 9.18601C289.317 8.66002 292.537 8.04012 295.794 7.53291C300.249 6.81907 304.685 6.19916 309.159 5.59803C310.207 7.62684 311.555 9.26115 311.799 11.6469C311.836 11.9287 312.248 11.6844 312.248 11.4966C312.267 10.1441 312.042 8.90423 311.555 7.62683C311.312 6.96935 311.05 6.04888 310.582 5.39139C313.333 5.01569 316.066 4.63998 318.818 4.26428C319.81 4.02007 320.802 3.75707 321.776 3.49408C322.318 4.11399 323.086 4.63997 323.591 5.22232C324.733 6.53729 325.164 8.11525 326.043 9.56171C326.212 9.82471 326.642 9.48657 326.568 9.24237C326.043 7.55169 326.1 6.08645 325.014 4.58363C324.64 4.05764 324.172 3.47529 323.647 3.00566C324.415 2.79902 325.164 2.59238 325.931 2.40453C326.53 2.36696 327.204 2.23546 327.915 2.06639C328.496 2.66752 329.226 3.19351 329.712 3.88857C330.592 5.10961 331.228 6.96935 331.547 8.4346C331.547 8.49095 331.64 8.4346 331.64 8.39703C331.79 6.68757 331.434 5.22233 330.723 3.66315C330.349 2.85538 329.731 2.27304 329.02 1.78462H329.057C329.207 1.74705 329.357 1.74704 329.488 1.72826C329.581 1.84097 329.694 1.97247 329.806 2.08518C330.105 2.40453 330.293 2.78024 330.573 3.09959C331.097 3.68193 331.491 4.41455 331.884 5.09082C332.015 5.31625 332.333 4.99689 332.258 4.80904C331.921 4.03884 331.584 3.28745 331.135 2.59239C330.929 2.29183 330.779 1.9349 330.573 1.61555C332.277 1.52162 334.018 1.6907 335.833 2.31061C335.908 2.32939 335.983 2.36697 336.039 2.38575C337.424 4.56484 337.78 7.77713 337.481 10.2004C337.481 10.2944 337.612 10.2568 337.63 10.2004C338.117 8.60368 338.622 5.41017 337.948 3.13715C338.398 3.325 338.866 3.51286 339.315 3.73828C340.008 6.53729 340.139 9.82473 339.671 13.0182C335.159 10.2756 324.471 12.4735 320.091 13.0182C319.698 12.3795 318.949 11.8347 318.519 11.459C317.695 10.7264 317.339 9.48658 316.422 8.86667C315.917 8.52853 315.374 9.09208 315.28 9.56171C315.205 10.0126 315.336 10.4446 315.411 10.8955C315.505 11.4403 315.411 11.9662 315.449 12.511C315.449 12.7552 315.449 13.1121 315.486 13.4315C311.855 13.7696 308.205 14.1453 304.592 14.6713C302.814 15.0846 300.923 15.3664 298.995 15.6294C297.797 15.8736 296.599 16.1178 295.42 16.4184C291.938 17.2825 288.55 18.4284 285.124 19.5179C283.889 19.9124 282.71 20.2881 281.493 20.6075C280.426 20.476 279.378 20.3632 278.536 20.4196C276.439 20.5511 276.682 15.5354 276.757 14.352C276.813 13.4878 275.784 13.9763 275.597 14.4647C274.848 16.3056 274.174 18.1654 273.594 20.0627C273.463 20.5135 273.219 20.7765 272.92 20.9456C271.853 20.8704 270.767 20.7953 269.7 20.739C269.551 20.7014 269.401 20.6638 269.251 20.645C265.657 20.0439 260.341 18.7101 256.597 19.7246C256.635 18.9919 257.215 17.6394 257.29 17.2261C257.421 16.5123 257.477 15.7421 257.496 14.9719C257.365 13.7133 257.178 12.4734 257.009 11.2148C256.579 9.74957 255.83 8.45339 254.744 7.53291C255.25 7.58927 255.755 7.66441 256.242 7.72076Z" fill="#F0F0F0"/>
<path d="M131.107 17.7897C131.107 17.7897 131.107 17.7333 131.088 17.6957C131.051 17.5455 130.995 17.414 130.957 17.2637C130.882 17.0007 130.808 16.7377 130.714 16.4935C130.639 16.2681 130.546 16.0614 130.452 15.836C131.575 16.1929 132.698 16.5123 133.821 16.8316C135.15 19.0859 136.816 22.1854 135.188 24.7214C135.132 24.7966 135.244 24.8529 135.3 24.7778C137.134 22.5048 136.348 19.5743 135.188 17.1885C136.723 17.583 138.258 17.9212 139.793 18.203C140.092 19.424 141.402 20.2506 141.646 21.5843C141.889 22.8429 142.376 25.1723 141.814 26.3933C141.777 26.4873 141.889 26.4873 141.926 26.4309C142.825 25.3789 142.638 23.6507 142.582 22.3733C142.507 20.9832 142.17 19.5555 141.309 18.4659C141.646 18.5223 142.001 18.5411 142.338 18.5786C142.638 18.9356 142.862 19.2737 143.068 19.8185C143.499 20.908 143.742 21.9976 143.854 23.1623C143.854 23.3125 144.098 23.181 144.098 23.0683C144.135 21.8285 144.004 20.6262 143.686 19.424C143.63 19.1798 143.555 18.9356 143.48 18.6914C146.176 18.9356 148.927 18.9356 151.772 18.5411C155.048 18.0902 158.305 17.414 161.487 16.5311C161.581 16.7001 161.693 16.8692 161.768 17.0383C162.068 17.6958 162.311 18.4096 162.517 19.0859C162.835 20.1191 162.536 21.265 162.891 22.2606C162.929 22.3733 163.097 22.223 163.079 22.1479C162.854 20.7202 163.434 19.424 163.022 17.9587C162.873 17.4703 162.742 16.8128 162.536 16.2305C163.341 16.0051 164.127 15.7421 164.913 15.4791C165.156 15.9112 165.475 16.3244 165.774 16.7001C166.373 17.4891 166.804 18.3344 166.897 19.3489C166.897 19.4803 167.084 19.3488 167.103 19.2737C167.197 18.3908 167.028 17.583 166.747 16.7377C166.579 16.2493 166.336 15.6481 166.036 15.1409C167.122 14.7652 168.207 14.352 169.293 13.9199C172.606 12.5862 176.013 11.2712 179.513 10.5761C179.907 10.501 180.281 10.4446 180.655 10.4071C180.562 10.6701 180.599 10.9143 180.936 11.027C182.452 11.5342 182.902 14.0138 183.238 15.3476C183.557 16.625 183.388 17.9587 183.8 19.2173C183.819 19.2925 183.912 19.2549 183.95 19.2173C184.025 19.161 184.1 19.0859 184.193 19.0295C184.231 19.0107 184.249 18.9168 184.193 18.9356C184.043 18.9731 184.249 17.0383 184.287 16.6813C184.362 15.6482 184.343 14.6713 184.231 13.6569C184.118 12.6049 183.613 11.2524 182.771 10.4071C184.062 10.5574 185.204 11.0082 186.439 11.6281C186.776 12.3607 187.169 13.1121 187.506 13.826C188.105 15.1409 187.768 16.6438 188.367 17.8836C188.536 18.203 188.966 17.7709 188.873 17.4891C188.629 16.7565 188.873 15.7984 188.854 15.0282C188.854 14.7277 188.798 14.4647 188.742 14.1829C188.854 14.258 188.985 14.3332 189.097 14.3895C189.79 15.4227 190.426 16.6062 191.063 17.677C191.568 19.1986 191.887 20.8329 192.149 22.4296C190.127 20.645 186.72 20.382 184.305 20.7202C178.746 21.4716 173.168 22.1854 167.833 23.9888C165.737 24.6839 162.985 25.1159 161.038 26.2055C157.388 28.2155 157.669 23.2374 155.46 22.6926C154.73 22.5048 154.15 22.8993 153.719 23.4816C153.233 24.1767 152.765 26.2618 151.885 26.3182C149.339 26.5248 147.093 27.6895 144.622 28.0652C139.624 28.8166 133.896 29.4741 128.692 29.4178C128.805 29.1736 128.917 28.9106 128.992 28.6288C131.051 25.0972 131.856 21.3025 131.107 17.8084V17.7897Z" fill="#F0F0F0"/>
<path d="M17.1854 24.4772C17.4288 24.3457 17.6908 24.2142 17.9342 24.0827C19.8061 24.1579 21.5469 24.1203 23.4562 24.5899C25.197 25.022 28.3043 26.1867 28.1171 28.4409C28.1171 28.5536 28.2482 28.4973 28.2669 28.4409C29.3151 24.7778 24.4296 22.9744 20.5361 22.6926C20.9853 22.4672 21.4346 22.2418 21.8838 22.0163C23.1193 22.1854 24.3734 22.2606 25.6276 22.3733C27.8363 22.5611 29.5585 23.0495 31.5052 24.1015C31.6737 24.1954 31.9357 23.8573 31.786 23.7258C30.2511 22.4108 28.9782 21.6406 27.0127 20.9831C26.4325 20.7953 25.8522 20.6075 25.2532 20.4384C26.6758 19.8185 28.0984 19.2173 29.5585 18.635C30.1575 18.3344 30.7565 18.0527 31.3555 17.7709C31.5988 17.8272 31.8609 17.8836 32.1042 17.9775C32.6658 18.2029 33.2086 18.4283 33.7889 18.5974C35.0805 19.0107 36.4282 19.2173 37.7011 19.687C37.7759 19.7245 37.9257 19.5555 37.8321 19.4991C36.6528 18.7101 35.3238 18.1466 34.1258 17.3952C33.8263 17.2073 33.5081 17.0383 33.1712 16.888C34.0135 16.4935 34.8558 16.099 35.6982 15.7045C36.2597 15.8548 36.8213 15.9675 37.3829 16.0802C37.8695 16.1741 38.3937 16.1929 38.8804 16.2492C39.3109 16.2868 39.6665 16.5123 40.0783 16.531C40.1719 16.531 40.2842 16.362 40.1719 16.3244C39.8537 16.2117 39.7227 15.9299 39.4232 15.7984C38.9552 15.6106 38.506 15.4227 38.0567 15.1973C37.8134 15.0846 37.5888 15.0094 37.3454 14.9155C38.2813 14.4835 39.1986 14.0326 40.1345 13.6193C40.1719 13.5818 40.2281 13.563 40.2842 13.5254C40.3778 13.5442 40.4527 13.563 40.5463 13.563C40.8832 13.563 41.2202 13.563 41.5571 13.6193C42.231 13.6945 42.9049 13.8635 43.56 13.6569C43.6723 13.6193 43.8408 13.3376 43.6349 13.3376C42.961 13.3376 42.3246 12.9243 41.7256 12.6613C41.6881 12.6613 41.6507 12.6425 41.632 12.6237C42.5679 12.0601 43.5787 11.553 44.627 11.1021C44.9078 11.1021 45.1885 11.1209 45.4506 11.1585C46.5737 11.2712 47.7343 11.196 48.8574 11.1585C48.9884 11.1585 49.2318 10.8579 49.0259 10.8015C48.352 10.6325 47.6968 10.4634 47.0604 10.2943C47.3786 10.2004 47.6781 10.1065 47.9963 10.0313C48.0525 10.0313 48.0899 10.0313 48.1461 10.0313C48.1648 10.0313 48.1835 10.0313 48.221 10.0313C48.3145 9.99376 48.4081 9.95619 48.5017 9.91862C48.7638 9.80591 48.9884 9.89985 49.1569 10.0501C49.8869 10.0501 50.6169 10.0877 51.3282 10.144C50.1677 11.0457 48.9323 11.9099 48.015 12.7364C44.889 15.5166 42.1187 18.3344 39.4232 21.5091C37.2518 24.0827 35.1553 26.7314 33.1337 29.4365C31.9919 30.9581 30.2511 37.0633 28.7161 33.1936C28.0423 31.4841 24.2424 29.0045 22.6887 28.2155C19.9371 26.8066 17.4475 26.1867 14.3964 26.7878C14.153 26.8441 13.9097 26.9193 13.6851 26.9944C14.6584 26.1115 15.8003 25.3038 17.1667 24.5148L17.1854 24.4772Z" fill="#F0F0F0"/>
<path d="M79.6124 216.895C76.8607 216.669 74.1091 216.575 71.3761 216.35C71.451 216.049 71.5259 215.73 71.6382 215.448C71.8441 214.941 71.1141 214.922 70.9269 215.298C70.7959 215.561 70.6087 215.918 70.5151 216.275C69.7289 216.2 68.924 216.125 68.1378 216.012C68.1378 215.974 68.1753 215.955 68.194 215.918C68.3624 215.636 68.4186 215.223 68.5309 214.922C68.6619 214.565 68.7743 214.227 68.8678 213.851C68.9427 213.588 68.6245 213.589 68.5122 213.776C68.1191 214.471 67.6324 215.204 67.127 215.824H67.1083C66.1911 215.692 65.2551 215.523 64.3379 215.317C64.4877 215.035 64.6187 214.772 64.731 214.565C65.199 213.72 65.798 212.912 66.2098 212.048C66.3034 211.823 66.0788 211.804 65.9665 211.954C65.5172 212.574 64.9182 213.156 64.4128 213.739C64.0384 214.171 63.6641 214.622 63.2897 215.054H63.271C61.1183 214.453 59.0031 213.513 56.9441 212.367C57.2997 212.011 57.7677 211.766 58.1233 211.409C58.6475 210.902 59.0218 210.301 59.4524 209.719C60.1824 208.723 60.8563 207.728 61.0996 206.506C61.1183 206.356 60.9311 206.45 60.9124 206.506C60.3509 207.915 59.209 208.855 58.1421 209.888C57.4869 210.526 56.6446 211.09 56.0269 211.804C55.7274 211.616 55.4279 211.428 55.1284 211.24C55.4653 210.977 55.7274 210.62 55.9894 210.282C56.3825 209.794 56.7943 209.305 57.2061 208.817C57.2997 208.704 57.2061 208.535 57.0751 208.648C56.6071 209.061 56.1392 209.475 55.6899 209.888C55.3343 210.207 54.885 210.508 54.6417 210.94C52.4516 209.531 50.3364 207.934 48.2961 206.225C49.4753 206.018 50.8044 205.06 51.4782 204.44C52.2083 203.783 52.6949 202.994 53.2378 202.186C53.8742 201.228 54.623 200.364 55.1845 199.349C55.2781 199.18 55.0722 199.067 54.9599 199.218C53.9491 200.57 52.6013 202.017 51.3472 203.125C50.1492 204.177 48.4458 204.309 47.2104 205.304C46.5739 204.759 45.9562 204.196 45.3385 203.632C46.4242 203.257 47.304 202.505 48.2586 201.735C49.5877 200.664 51.029 199.387 51.8526 197.884C51.89 197.79 51.7964 197.753 51.7403 197.809C50.9167 198.842 49.7374 199.575 48.633 200.289C47.304 201.153 46.0311 201.979 44.5336 202.411C44.44 202.449 44.3277 202.524 44.2341 202.618C44.0469 202.449 43.8972 202.299 43.71 202.129C44.178 201.867 44.6085 201.491 44.9267 201.228C46.0311 200.326 47.0419 199.518 47.9591 198.391C48.0527 198.279 47.9591 198.109 47.8281 198.222C46.9483 198.992 45.9937 199.819 44.8706 200.232C44.2528 200.458 43.4667 200.871 42.8489 201.322C41.4076 199.969 40.0037 198.635 38.6934 197.377C40.0037 196.776 41.5574 195.179 42.1189 194.728C43.9533 193.263 46.1809 191.196 46.8922 188.867C46.9483 188.66 46.705 188.66 46.6301 188.811C45.5819 190.971 42.9987 192.662 41.1081 194.052C40.2283 194.691 38.6372 195.63 37.7388 196.456C37.3831 196.118 37.0462 195.78 36.6905 195.442C37.2146 195.16 37.7013 194.747 38.1131 194.352C38.8619 193.62 39.5919 193.019 40.2658 192.192C40.3594 192.079 40.2658 191.91 40.1347 192.023C38.8806 193.113 37.458 193.958 36.0354 194.784C34.2945 193.075 32.5911 191.366 30.9064 189.637C31.8611 189.431 32.8345 188.98 33.5271 188.548C35.8482 187.12 38.0008 185.58 39.4421 183.213C39.517 183.1 39.3673 183.025 39.2924 183.119C36.99 186.031 33.2837 187.665 29.7085 188.435C29.3528 188.059 28.9971 187.684 28.6415 187.308C29.1843 187.045 29.7085 186.726 30.1577 186.444C30.9626 185.955 31.8798 185.73 32.6473 185.148C33.3212 184.64 33.9201 184.02 34.5191 183.419C34.5566 183.382 34.5191 183.307 34.463 183.344C32.4414 184.791 30.0267 185.486 27.6868 186.312C27.013 185.617 26.3578 184.903 25.7027 184.208C26.8071 183.757 27.8553 182.799 28.5666 182.048C28.6041 181.992 28.5853 181.898 28.5105 181.935C27.7992 182.33 26.9755 182.706 26.1894 182.875C25.7588 182.969 25.1411 182.987 24.7106 183.156C23.5126 181.879 22.2959 180.583 21.1166 179.287C23.9057 179.55 28.0987 178.141 29.6149 177.183C33.4147 174.759 35.923 170.514 36.7279 166.137C36.7467 166.005 36.5595 166.062 36.5408 166.137C35.3615 169.913 32.9468 172.862 30.0454 175.492C28.6789 176.732 25.8899 177.108 24.0929 177.408C23.0259 177.596 21.1166 177.915 19.8437 177.878C19.3196 177.314 18.7955 176.751 18.2901 176.168C18.1965 176.074 18.1216 175.962 18.028 175.868C19.2073 175.999 20.555 175.755 21.4535 175.548C24.1865 174.928 26.3391 173.257 28.3982 171.491C28.4543 171.453 28.4543 171.303 28.3607 171.359C25.085 173.181 20.9294 174.553 17.1108 174.759C16.1374 173.576 15.2389 172.355 14.3592 171.077C22.0525 171.791 29.3341 167.527 30.6444 159.299C30.6444 159.224 30.5508 159.262 30.5508 159.299C28.1548 167.264 20.9856 169.349 13.6853 170.119C13.2173 169.499 12.6558 168.992 12.0755 168.504C14.6025 168.936 17.6537 168.335 19.7876 167.677C22.3895 166.888 25.1973 164.972 26.4701 162.549C26.5824 162.342 26.3391 162.305 26.2268 162.455C24.5047 164.953 21.6407 165.686 18.9452 166.513C17.4852 166.963 16.0251 167.039 14.5089 167.076C13.3109 167.095 12.2627 167.621 11.1021 167.621C10.6716 167.226 10.2598 166.832 9.90414 166.362L9.8667 166.325C12.6745 166.625 16.3246 165.742 18.0842 164.991C23.1569 162.849 25.4219 159.374 27.8927 154.622C28.941 152.593 31.1872 149.531 32.2916 146.619C34.2196 153.663 39.1426 168.56 39.6481 170.195C40.6963 173.595 41.0707 178.347 42.9425 181.391C43.9908 183.081 46.6488 184.321 48.1463 185.598C50.2054 187.345 52.1147 189.337 53.9678 191.29C57.2997 194.803 58.9844 200.664 61.7548 204.722C64.132 208.235 67.8758 211.034 71.4136 213.269C74.7455 215.373 78.3395 215.899 81.9709 216.669C81.2034 216.726 80.436 216.782 79.6872 216.857L79.6124 216.895Z" fill="#F0F0F0"/>
<path d="M254.95 204.121C254.762 206.488 253.658 208.404 252.254 210.282C252.198 210.357 252.142 210.414 252.086 210.489C253.995 206.619 253.883 202.073 250.139 198.805C250.064 198.729 249.914 198.88 249.97 198.955C251.449 201.265 251.898 204.496 251.543 207.183C251.243 209.55 249.521 211.222 248.548 213.232C246.638 214.096 244.486 214.415 242.296 214.547C242.427 214.265 242.558 213.983 242.689 213.739C243.307 212.537 243.569 211.316 243.849 210.001C243.906 209.756 243.569 209.888 243.512 210.038C243.082 211.109 242.689 212.104 242.052 213.063C241.753 213.532 241.416 214.096 241.042 214.603C240.817 214.603 240.611 214.603 240.386 214.603C239.451 214.622 238.496 214.603 237.56 214.603C238.627 213.326 239.301 211.485 239.825 210.057C240.798 207.333 239.039 204.177 237.71 201.904C237.672 201.848 237.597 201.923 237.616 201.979C238.552 204.553 239.301 207.295 238.589 210.001C238.14 211.691 237.017 213.044 236.212 214.565C232.637 214.396 229.08 214.002 225.524 213.626C225.748 213.081 225.954 212.518 226.085 211.898C226.347 210.677 226.291 209.531 225.861 208.347C225.842 208.291 225.767 208.366 225.767 208.404C225.842 209.775 225.468 211.071 225.037 212.367C224.887 212.818 224.682 213.213 224.457 213.607C223.951 213.607 223.446 213.626 222.941 213.645C223.315 213.589 223.689 213.532 224.064 213.476C222.735 213.344 221.406 213.213 220.077 213.119C220.021 213.119 219.964 213.119 219.908 213.119C220.189 212.349 220.376 211.541 220.301 210.883C220.058 208.667 218.916 206.619 217.999 204.609C217.905 204.384 217.587 204.666 217.606 204.853C217.849 206.225 218.093 207.615 218.28 208.986C218.448 210.188 218.298 211.485 217.924 212.63C217.887 212.762 217.849 212.856 217.812 212.969C214.648 212.781 211.447 212.668 208.247 212.724C208.939 210.921 209.07 208.61 208.434 207.07C208.359 206.901 208.134 207.126 208.134 207.239C208.303 208.761 207.629 210.057 207.198 211.466C207.086 211.879 206.843 212.311 206.618 212.762C205.607 212.856 204.596 212.95 203.586 213.025C205.345 209.174 204.821 204.929 202.144 201.491C202.051 201.378 201.882 201.585 201.938 201.697C203.548 205.192 203.885 209.681 202.051 213.156C199.43 213.344 196.828 213.495 194.245 213.551H194.208C194.732 212.912 195.162 212.18 195.312 211.635C195.911 209.531 195.406 207.821 194.919 205.736C194.863 205.492 194.563 205.736 194.563 205.905C194.657 207.671 194.938 209.437 194.226 211.128C193.833 212.048 193.159 212.781 192.542 213.551C191.325 213.551 190.127 213.513 188.91 213.457C191.999 210.996 191.138 205.736 189.228 202.749C189.135 202.618 188.948 202.806 189.004 202.919C189.771 205.098 189.865 207.521 189.266 209.756C188.91 211.034 188.199 212.123 187.825 213.401C187.488 213.401 187.151 213.363 186.832 213.344C187.057 212.912 187.169 212.518 187.319 212.067C187.619 211.128 187.656 210.132 187.6 209.174C187.6 209.08 187.469 209.155 187.45 209.212C187.169 210.489 186.664 211.616 185.915 212.687C185.784 212.875 185.634 213.063 185.503 213.269C184.043 213.175 182.602 213.063 181.142 212.931C181.909 211.597 182.434 210.019 182.658 208.554C183.014 206.3 181.629 204.121 180.524 202.242C180.487 202.167 180.356 202.261 180.375 202.336C180.88 204.196 181.367 206.187 181.217 208.141C181.086 209.738 180.281 211.278 179.738 212.818C178.802 212.743 177.847 212.649 176.912 212.574C177.192 211.992 177.417 211.372 177.548 210.827C177.791 209.831 177.904 208.723 177.791 207.709C177.791 207.54 177.567 207.709 177.548 207.803C177.361 208.986 176.837 210.019 176.387 211.109C176.2 211.56 175.826 211.992 175.545 212.461C173.729 212.311 171.895 212.18 170.061 212.105C170.491 211.466 170.847 210.771 171.053 210.113C172.101 206.957 171.577 204.29 169.349 201.81C169.293 201.754 169.181 201.867 169.218 201.923C170.622 204.365 170.828 206.582 169.911 209.268C169.649 210.019 169.256 211.128 168.732 212.048C168.638 212.048 168.563 212.048 168.469 212.048C168.114 212.048 167.758 212.048 167.402 212.048C167.552 211.785 167.683 211.503 167.796 211.259C168.338 210.113 168.994 209.042 168.863 207.728C168.863 207.596 168.675 207.728 168.657 207.803C168.582 209.193 167.683 210.226 166.935 211.334C166.747 211.635 166.467 211.879 166.186 212.123C165.156 212.198 164.145 212.33 163.116 212.499C165.194 210.357 166.541 207.615 166.448 204.327C166.373 201.453 164.819 199.462 162.76 198.88C165.942 197.997 169.929 198.729 173.056 198.579C177.38 198.391 181.61 199.218 185.971 198.974C195.593 198.448 204.821 200.683 214.461 200.157C214.91 200.138 215.36 200.101 215.809 200.082C216.82 200.495 217.681 201.04 218.411 201.735C218.542 201.904 218.654 202.036 218.692 202.073C218.804 202.167 218.879 202.261 218.991 202.355C219.627 203.125 220.152 204.046 220.545 205.21C220.807 206.018 221.836 204.985 221.911 204.553C222.136 203.181 221.78 199.913 222.885 199.95C225.88 200.026 228.987 199.537 231.888 198.88C232.693 198.692 233.479 198.542 234.265 198.372C235.314 198.222 236.381 198.034 237.448 197.846C238.777 197.602 240.068 197.32 241.36 197.02C241.678 196.964 241.996 196.907 242.314 196.851C242.577 196.813 243.269 196.644 244.168 196.419C245.384 196.175 246.601 195.949 247.836 195.818C248.473 195.573 249.109 195.348 249.746 195.141C250.176 195.066 250.551 195.01 250.831 194.991C251.112 195.029 251.393 195.066 251.618 195.123C251.711 195.16 251.786 195.198 251.88 195.198C251.936 195.198 251.973 195.235 251.992 195.254C252.366 195.555 252.61 196.813 252.853 197.264C253.377 198.185 253.583 199.237 254.107 200.157C254.313 200.514 254.5 200.871 254.688 201.228C254.875 202.242 255.006 203.257 254.912 204.271L254.95 204.121Z" fill="#F0F0F0"/>
<path d="M415.5 191.553C414.339 194.597 412.71 197.358 410.764 199.894C410.745 199.875 410.726 199.838 410.708 199.819C410.502 199.687 410.389 199.481 410.258 199.293C410.052 199.011 409.697 198.823 409.435 198.579C409.322 198.466 409.116 198.692 409.173 198.823C409.322 199.124 409.584 199.443 409.659 199.763C409.734 200.026 409.772 200.307 409.94 200.533C409.996 200.627 410.09 200.664 410.165 200.683C409.491 201.491 408.798 202.299 408.068 203.05C407.993 202.712 407.844 202.374 407.675 202.111C407.188 201.284 406.327 200.739 405.541 200.251C405.448 200.195 405.317 200.345 405.373 200.42C405.934 201.096 406.477 201.81 406.739 202.656C406.889 203.106 406.777 203.726 406.833 204.233C406.121 204.91 405.391 205.567 404.661 206.206C404.568 205.887 404.437 205.567 404.324 205.267C404.025 204.515 403.52 203.858 402.864 203.369C402.808 203.332 402.696 203.426 402.733 203.482C403.22 204.158 403.426 204.91 403.557 205.736C403.613 206.187 403.52 206.713 403.613 207.164C403.351 207.408 403.108 207.634 402.827 207.878C402.322 208.329 401.797 208.742 401.292 209.155C401.367 208.479 401.255 207.784 400.899 207.239C400.113 206.037 399.046 205.417 397.829 204.741C397.754 204.703 397.679 204.816 397.717 204.891C398.634 206.056 399.27 207.032 399.57 208.498C399.682 209.061 399.495 209.813 399.701 210.357C398.971 210.883 398.241 211.391 397.492 211.879C397.211 212.086 396.931 212.274 396.669 212.48C396.856 211.823 396.949 211.128 396.8 210.527C396.575 209.587 395.789 208.46 395.096 207.784C395.021 207.709 394.872 207.859 394.928 207.934C395.414 208.817 395.826 210.207 395.808 211.222C395.808 211.973 395.358 212.687 395.396 213.401C395.115 213.589 394.853 213.795 394.572 213.983C394.123 214.302 393.655 214.622 393.168 214.922C393.73 213.495 393.917 212.105 393.505 210.47C392.962 208.329 390.903 207.389 389.088 206.563C389.05 206.544 388.975 206.619 389.013 206.657C390.323 207.953 391.184 209.118 391.764 210.883C392.27 212.386 392.176 214.002 392.101 215.561C391.334 215.974 390.566 216.331 389.78 216.557C390.023 214.453 389.911 212.142 388.414 210.545C387.553 209.625 383.397 205.004 381.993 205.379C386.261 204.215 390.622 204.083 394.965 203.632C398.335 203.275 400.993 201.51 403.744 199.631C407.413 197.133 411.419 194.897 414.769 192.023C415.106 191.741 415.368 191.403 415.612 191.046C415.556 191.215 415.518 191.384 415.443 191.572L415.5 191.553Z" fill="#F0F0F0"/>
<path d="M415.369 100.088C415.2 101.741 415.144 103.413 415.125 105.085C415.013 113.05 415.219 121.034 415.256 128.998C415.275 134.596 415.387 140.194 415.331 145.792C412.261 146.844 409.266 148.047 406.215 149.155C404.606 149.756 402.827 149.7 401.592 150.996C401.236 151.372 400.843 152.424 401.592 152.649C405.148 153.739 409.004 153.645 412.692 153.945C414.077 153.87 414.714 154.471 414.751 156.387C414.863 161.553 415.462 166.644 415.743 171.791C415.912 174.741 416.136 177.69 416.286 180.62C416.286 180.846 416.286 181.052 416.286 181.278C416.323 181.447 416.342 181.635 416.38 181.804C416.211 181.898 416.061 182.01 415.912 182.18C415.743 182.33 415.593 182.518 415.481 182.706C415.724 182.33 414.938 182.912 414.938 182.912C413.778 183.57 412.523 184.114 411.194 184.321C410.783 184.396 410.371 184.903 410.464 185.317C410.558 185.805 410.989 186.106 411.494 185.955C411.625 185.918 411.756 185.899 411.906 185.88C412.168 186.124 412.486 186.312 412.673 186.444C413.553 187.045 414.452 188.491 415.593 188.322C414.826 190.877 412.037 191.948 409.978 193.319C405.991 195.987 402.06 198.692 397.829 200.965C395.883 202.017 392.27 201.773 389.949 202.111C387.703 202.43 385.494 203.182 383.304 203.726C382.349 203.97 380.721 204.346 380.402 205.473C380.365 205.586 380.346 205.793 380.477 205.868C382.349 207.108 384.24 207.728 385.718 209.606C387.497 211.86 388.058 213.945 387.965 216.744C387.59 216.744 387.197 216.688 386.823 216.575C386.392 216.557 385.962 216.519 385.513 216.444C383.978 216.125 382.499 215.655 380.926 215.373C377.838 214.81 374.88 215.805 371.96 216.707C366.981 218.229 361.777 218.886 356.611 219.356C353.635 219.619 350.658 219.9 347.663 219.994C346.147 220.051 343.527 220.633 342.141 219.806C341.561 219.45 341.449 218.473 341.374 217.665C341.149 216.989 341 216.068 340.869 215.11C340.401 213.288 339.895 211.485 339.558 209.644C339.334 209.7 339.09 209.831 338.922 210.019C337.293 211.935 336.451 214.471 335.515 216.782C335.159 217.665 334.504 218.304 333.662 218.773C323.498 218.398 313.315 218.003 303.019 218.548C291.975 219.13 282.279 216.575 271.348 216.331C270.206 216.312 269.288 216.237 268.521 216.106C265.133 214.659 264.74 212.837 264.459 210.79C264.571 209.287 264.422 207.709 264.047 206.281C263.729 205.098 262.924 204.271 263.168 202.975C263.28 202.374 263.448 201.773 263.355 201.171C263.205 200.119 261.951 200.833 261.614 201.322C260.828 202.505 260.528 203.877 259.686 205.079C259.218 205.755 258.825 206.45 258.469 207.145H258.432C258.525 206.413 258.282 205.567 258.151 204.929C257.964 204.083 258.001 203.257 257.72 202.411C257.664 202.242 257.608 202.073 257.552 201.923C257.552 200.852 257.327 199.763 257.009 198.692C256.672 197.997 256.316 197.32 255.961 196.625C255.867 196.325 255.755 196.024 255.624 195.724C255.156 194.672 254.969 193.394 254.37 192.436C254.239 192.23 253.995 192.117 253.771 192.192C252.386 192.624 251.057 193.263 249.728 193.864C249.596 193.902 249.465 193.939 249.334 193.977C246.358 194.465 243.344 194.916 240.368 195.404C239.882 195.461 239.395 195.498 238.927 195.555C236.887 195.799 234.884 196.325 232.881 196.813C231.608 197.001 230.335 197.189 229.062 197.321C226.722 197.64 224.401 197.865 222.061 198.034C221.537 199.105 221.2 200.251 221.125 201.472C221.107 201.81 220.826 202.017 220.564 202.017C219.834 200.627 218.804 199.481 217.868 198.072C217.307 197.227 215.866 197.828 214.536 198.354C212.403 198.372 210.269 198.354 208.116 198.279C198.083 197.828 187.993 197.208 177.979 196.475C173.187 196.118 168.32 195.63 163.566 196.588C163.023 196.701 162.517 196.832 162.031 196.982C161.394 197.396 160.777 197.846 160.215 198.354C159.185 199.293 158.156 200.364 157.594 201.697C156.846 203.52 157.183 204.891 157.576 206.488C157.8 206.488 158.006 206.394 158.193 206.244C159.897 204.966 162.667 204.647 164.839 204.666C164.876 205.83 164.408 207.183 163.397 208.686C162.068 211.128 158.83 211.616 156.434 212.161C152.746 213.006 148.946 212.781 145.203 212.668C140.729 212.537 136.311 212.33 131.856 212.443C130.153 212.48 128.955 212.555 127.289 212.762C127.233 212.762 127.195 212.762 127.158 212.762C126.952 212.461 126.746 212.161 126.521 211.86C124.706 209.343 125.155 205.868 125.155 202.975C125.155 201.585 123.452 202.43 123.321 203.388C122.871 206.751 120.794 209.287 119.352 212.217C118.903 213.138 118.641 213.739 118.416 214.133C115.871 214.622 113.212 214.828 110.629 215.054C109.431 215.167 108.252 215.317 107.054 215.505C101.963 215.599 96.8711 215.749 91.8171 215.993C83.8242 215.711 75.4008 213.589 69.1301 208.667C61.6801 202.825 59.9205 193.488 53.369 187.139C52.4144 186.218 51.0479 185.185 49.6814 184.096C49.1386 183.795 48.5957 183.495 48.0342 183.194C43.6166 180.865 43.055 175.699 41.7073 171.284C39.0118 162.53 38.0197 152.104 33.4149 143.914C33.2465 143.689 33.078 143.463 32.9095 143.238C32.9095 143.144 32.8721 143.05 32.8721 142.956C32.7223 142.731 32.5726 142.486 32.4228 142.261C29.2594 142.486 25.9275 143.369 22.9512 144.365C19.638 145.473 17.3918 148.253 14.6401 150.245C14.3032 150.489 13.9288 151.297 14.5091 151.522C15.8381 152.029 20.5178 151.616 20.7611 152.818C21.1729 154.847 22.2773 156.838 23.9059 158.116C22.6517 159.618 21.0981 160.877 19.0203 161.685C15.2766 163.15 10.2038 164.127 7.90143 161.516C7.82655 161.234 7.7704 160.933 7.71424 160.633C7.50834 158.116 7.32115 155.598 7.20884 153.081C7.30243 148.422 8.18221 143.914 8.59402 139.161C8.76249 137.32 10.5782 135.31 8.81864 133.544C8.7812 133.488 8.72505 133.451 8.68761 133.394C10.5969 132.793 12.6185 132.248 14.4717 131.534C17.1672 130.501 22.9138 130.182 24.8605 127.665C25.2536 127.158 25.4595 126.256 24.5985 126.143C22.0153 125.749 7.52706 125.673 7.65809 124.321C7.80784 122.912 7.95758 121.559 8.03246 120.245C7.56449 117.145 7.20884 114.008 7.28371 110.871C7.37731 106.869 6.74087 103.375 4.56951 99.9565C4.38232 99.6559 4.56951 99.2614 4.86901 99.1487C8.03246 98.0779 11.4018 98.4536 14.6027 97.3453C16.9425 96.5375 19.1888 95.7673 21.3788 94.7153C21.3227 94.6778 21.2478 94.6402 21.1729 94.6026C18.3277 93.607 16.5682 93.4004 13.2362 93.3628C7.04037 93.3252 8.10733 91.6721 7.33987 88.6665C6.46009 85.2664 6.62856 81.359 6.44137 77.9025C6.25419 74.5024 7.45218 71.0835 7.13396 67.7397C6.98422 66.2557 5.24338 52.1292 4.38232 52.1667C10.0915 51.9225 15.913 50.1003 21.304 49.1799C25.1787 48.5224 28.9599 48.3721 32.7411 47.5455C33.209 47.4328 33.6208 46.8505 32.9095 46.7753C25.3472 46.0615 17.4854 44.8592 9.86689 44.6714C9.43636 44.6714 9.43636 42.5111 9.49251 40.332C10.0354 37.7208 10.3723 35.0345 10.6343 32.367C12.6747 29.568 15.2953 27.7646 20.0498 29.5492C22.0153 30.3006 23.8497 31.7283 25.6654 32.7991C27.8368 34.0953 28.155 35.2224 29.0348 37.3827C29.1284 37.6269 29.4466 37.533 29.615 37.4391C31.2061 36.481 31.8987 34.7152 32.7598 33.0996C34.6504 29.5304 38.9369 26.4685 41.5763 23.3501C43.5417 21.002 45.5072 18.635 47.3229 16.1741C49.0824 13.7884 51.4597 12.1729 53.5749 10.2568C55.8024 10.4258 58.0299 10.5761 60.3885 10.4446C66.9026 10.0689 72.4995 7.94619 79.2382 7.75834C81.2785 7.70198 107.316 8.34068 107.241 8.02133C108.009 10.7076 108.645 14.352 110.723 17.2825C111.865 19.4052 111.341 22.223 112.894 24.2142C113.175 24.5711 113.699 24.0076 113.793 23.7822C115.459 19.5931 118.585 17.3012 121.037 13.6757C121.842 13.4503 122.722 13.6381 123.807 14.352C124.313 14.6713 124.799 15.047 125.249 15.4227C126.54 16.6062 127.645 17.9212 127.832 18.2405C128.393 19.2361 128.693 20.2693 128.843 21.3213C128.281 21.4528 127.719 21.7158 127.289 21.8473C126.428 22.1103 125.174 21.8661 124.65 22.7678C123.92 24.0076 124.612 25.5104 125.005 26.7878C125.342 27.8961 125.941 30.1692 126.971 30.883C126.971 30.9018 126.952 30.9393 126.933 30.9581C126.989 30.9581 127.046 30.9581 127.083 30.9581C127.083 30.9581 127.102 30.9769 127.12 30.9769C127.289 31.0521 127.457 31.0333 127.626 30.9581C128.543 30.9581 129.46 30.9581 130.359 31.0521C133.279 31.3526 136.199 31.5405 139.138 31.5593C139.344 31.5593 139.55 31.5593 139.756 31.5593C141.871 31.2587 143.967 30.9018 146.008 30.5449C147.449 30.3006 148.89 29.4741 150.35 29.0608C151.193 28.8354 152.447 29.0984 153.252 28.5912C153.551 27.3326 154.319 26.2055 154.693 24.9093C154.861 24.3081 155.704 24.4209 155.76 25.0408C155.854 26.243 156.546 27.4265 157.239 28.4597C159.485 29.568 162.499 27.9525 164.988 27.0132C169.462 25.3414 173.861 24.1767 178.597 23.5943C183.969 22.9368 188.948 20.9644 192.392 26.5624C193.141 25.9237 193.871 25.2474 194.564 24.5336C196.061 22.2418 196.454 19.1422 195.125 16.7377C195.125 16.7001 195.107 16.6625 195.088 16.6438C195.743 16.099 196.398 15.5542 197.053 15.0282C197.147 14.9531 197.259 14.8967 197.353 14.8028V14.7652C197.615 14.5398 197.896 14.3332 198.158 14.1077C198.738 13.6569 199.281 13.1685 199.88 12.7552C199.973 12.6801 200.067 12.6237 200.161 12.5674C204.372 13.5066 221.2 14.3332 222.941 14.5398C227.789 15.0846 232.768 15.2912 237.804 15.2912C239.114 17.583 240.555 19.9124 241.154 22.3733C241.248 22.7302 241.416 22.9556 241.641 23.0495C244.524 20.2318 243.756 14.9719 244.505 11.3839C245.123 8.35945 247.294 8.02132 250.102 8.24674C257.215 8.77273 255.867 15.31 254.632 20.8329C258.581 20.908 262.55 20.7577 266.443 21.3777C268.615 21.7158 271.123 23.1623 273.294 22.9932C273.369 22.9932 273.463 22.9932 273.538 22.9932C274.062 21.6407 274.736 20.3257 275.035 18.898C275.166 18.3344 275.896 18.4096 276.083 18.8792C276.476 19.9312 276.926 20.9456 277.394 21.9412C279.359 21.7722 281.268 21.6782 283.253 21.171C285.237 20.6638 287.221 20.1754 289.205 19.6306C293.492 18.4847 297.797 17.32 302.158 16.4183C306.22 15.573 310.32 15.1785 314.475 14.8779C314.999 14.8404 315.524 14.784 316.066 14.7277C316.104 14.2956 316.104 13.8448 316.085 13.4127H316.029C316.029 13.4127 316.048 13.2436 316.066 13.1497C316.048 12.4734 316.01 11.7972 316.104 11.1209C316.179 10.6325 316.853 10.6137 317.096 10.9706C317.826 12.0977 318.5 13.2812 319.249 14.3895C319.829 14.3332 320.409 14.2956 320.971 14.2768C322.786 14.089 324.639 13.6569 326.436 13.5066C329.394 13.2624 332.37 13.0746 335.328 13.2812C337.05 13.4127 338.154 13.9011 339.259 15.1597C339.296 15.1785 339.334 15.1973 339.352 15.2349V15.2724C339.352 15.2724 339.352 15.2912 339.371 15.31C339.633 15.6106 339.989 15.8924 340.363 16.1554C340.681 15.3852 340.943 14.5962 341.187 13.8072C341.224 12.9806 341.243 12.1729 341.299 11.3651C341.299 11.3088 341.299 11.2524 341.299 11.1772C342.104 10.8955 343.227 10.8579 344.444 10.9518C346.484 10.8579 348.543 11.4215 350.565 11.6845C353.111 12.0038 355.862 12.2668 358.071 13.7133C358.838 14.2205 359.381 14.8028 359.831 15.4603C359.868 15.5166 359.905 15.573 359.943 15.6294C359.943 15.6482 359.98 15.6857 359.999 15.7045C360.111 15.8924 360.224 16.0614 360.317 16.2681C360.86 17.32 361.234 18.5223 361.74 19.7809C362.713 22.1291 362.376 24.8341 361.646 27.2011C361.534 27.558 361.029 27.7834 360.748 27.4641C359.25 25.8298 357.64 24.3082 356.536 22.4109C353.784 24.233 351.613 26.7878 350.284 29.8498C349.255 32.198 348.525 35.8799 350.883 37.7208C351.332 38.0778 351.782 38.4535 352.193 38.8292C353.298 39.3739 354.402 39.9375 355.432 40.6513C356.761 41.553 357.977 42.5862 359.194 43.6194C363.799 46.7002 368.422 49.7622 373.008 52.843C380.964 58.1968 388.695 63.8512 396.575 69.2989C396.762 69.4304 396.95 69.5807 397.137 69.7122C397.942 70.2194 398.765 70.7266 399.57 71.2338C402.49 73.1123 405.373 75.0284 408.143 77.1323C410.277 78.7667 412.636 80.3446 414.152 82.6176C414.189 82.674 414.208 82.7304 414.227 82.7867C414.32 82.8994 414.433 83.0121 414.508 83.1624C414.695 83.463 414.508 83.8575 414.171 83.9514C408.518 85.736 402.472 85.6984 396.725 86.9195C398.69 87.2388 400.656 87.4642 402.64 87.6897C406.646 88.1593 411.063 87.9339 414.845 89.4179C415.2 89.5682 415.387 90.019 415.069 90.3196C414.77 90.6014 413.029 92.1606 411.681 93.3253C412.261 93.87 412.991 94.3584 413.403 94.7153C414.264 95.4855 414.826 96.2557 415.294 97.3265C415.668 98.1906 415.518 99.205 415.425 100.107L415.369 100.088Z" fill="#F0F0F0"/>
<path d="M416.997 92.0478C416.379 90.3008 417.203 89.324 418.495 88.535C416.623 87.6521 414.751 86.7316 412.692 86.4498C411.999 86.3559 411.999 85.4354 412.692 85.3603C414.264 85.21 415.818 85.0785 417.353 84.8719C416.417 82.7867 415.518 80.7015 414.639 78.5976C414.639 78.6539 414.639 78.7103 414.639 78.7667C414.489 78.6539 414.339 78.5412 414.208 78.4285C414.133 78.2782 414.058 78.1092 414.002 77.9589C413.74 76.9257 413.478 75.8925 413.141 74.8781C412.617 73.5819 412.093 72.3045 411.569 71.0083C410.24 68.1154 408.667 65.26 407.301 62.4798C405.71 59.2863 403.95 56.1492 402.078 53.0684C399.533 49.2738 396.837 45.5731 394.348 41.6469C391.764 38.3032 388.62 35.3351 385.756 32.2543C385.306 31.7847 384.876 31.2962 384.445 30.8078C383.977 30.3382 383.491 29.8498 383.023 29.3802C379.691 25.9988 376.153 23.0495 372.391 20.1754C368.16 16.9255 363.78 14.9343 359.025 12.6425C357.341 11.8347 355.6 11.2336 353.84 10.7264C351.482 10.1253 349.086 9.61806 346.671 9.20479C345.604 9.12964 344.537 9.11086 343.545 9.20479C343.096 9.29871 342.628 9.39265 342.179 9.46779C342.16 9.46779 342.141 9.46779 342.123 9.46779C341.935 9.52415 341.598 9.46777 341.598 9.41141C341.524 9.37384 341.449 4.03884 340.7 2.76144C339.914 1.4089 338.547 1.65311 337.368 0.638707C336.507 0.244216 335.59 0 334.616 0C330.292 0 326.099 1.23983 321.85 1.70947C319.829 2.10396 317.807 2.47966 315.785 2.81779C309.234 3.94491 302.57 4.50847 296 5.52287C289.804 6.46214 281.512 8.47216 275.222 7.11962C269.812 5.95493 263.86 5.33502 258.338 5.05324C256.185 4.94053 254.313 4.80903 252.573 4.82781C251.899 4.92174 251.244 5.03446 250.588 5.18474C248.005 5.76708 245.104 6.46214 243.999 9.14843C243.7 9.89984 243.438 10.6513 243.157 11.4027C242.989 13.6193 241.51 18.5598 241.379 18.0526C240.686 15.6857 238.852 11.9099 236.512 9.78714C234.584 10.8955 232.6 11.985 230.466 12.0414C226.067 12.1541 221.668 11.5717 217.269 11.5717C213.02 11.5717 209.033 10.4446 204.821 10.2568C203.661 10.2004 202.313 10.238 201.19 9.82469C200.722 10.3131 200.254 10.7827 199.711 11.1772C197.952 12.4358 196.155 13.6381 194.47 14.9719C194.245 15.1597 193.871 15.0282 193.721 14.784C193.59 14.5586 193.459 14.3144 193.328 14.0702C190.932 11.7596 188.199 9.24236 184.961 8.41581C181.835 7.62683 178.69 8.62244 175.676 9.65563C172.869 10.7076 169.986 11.7032 167.122 12.6049C162.517 14.2017 157.875 15.6857 153.046 16.3056C146.101 17.1885 139.194 16.8692 132.399 15.0658C130.171 14.4647 127.457 13.995 124.949 13.1685C123.807 12.3607 122.721 11.196 121.523 10.6137C121.261 10.501 120.962 10.7452 120.831 10.9518C120.045 12.2856 118.659 13.1309 117.555 14.1453C116.563 15.047 115.852 16.1365 115.009 17.1885C114.111 18.2968 113.268 19.3864 112.857 20.6638C112.838 20.6074 112.819 20.5511 112.819 20.4759C112.726 18.7289 112.464 16.8128 112.014 14.9343H111.996C110.929 12.4922 109.937 10.0313 108.87 7.60804C108.533 7.00691 108.214 6.40578 107.896 5.78587C102.505 5.07203 95.4296 6.03008 90.1322 5.86101C84.1236 5.67316 78.9011 5.69194 73.5663 6.06765C72.1062 6.27429 70.6461 6.4997 69.1861 6.76269C66.9024 7.15719 64.6 7.66439 62.2976 7.85224C60.0514 8.0401 57.9736 7.6456 55.7648 7.30747C49.8685 6.38699 44.3839 8.00253 39.0865 10.5761C34.5192 12.7928 29.9518 14.9907 25.4032 17.2449C20.6112 19.6306 15.9877 22.223 11.5701 25.2662C8.21949 27.5956 6.57225 29.7934 6.77815 34.0389C6.90918 36.9318 7.17124 39.8999 6.79687 42.7741C6.66584 43.8448 6.49737 45.3101 5.72991 46.1742C5.78606 46.2493 5.8235 46.3433 5.87966 46.4184C6.16044 46.7753 6.722 46.8317 7.30227 46.7941C14.3966 46.3621 21.622 47.0947 28.7164 47.3201C22.8762 47.1322 17.1296 48.4096 11.5701 49.2738C6.66584 50.0252 -2.33782 49.0859 0.563565 53.9137C6.02941 63.0434 2.24824 73.6007 3.74573 83.106C4.17626 85.9051 2.92211 91.7848 4.85013 94.2457C5.13091 94.6026 6.14172 94.9783 6.70328 94.9783C10.447 95.0159 13.8538 94.659 17.3729 95.2601C11.9819 96.2933 5.48657 96.5939 2.28568 99.5432C3.89548 103.3 5.29938 106.982 5.41169 111.228C5.524 116.224 4.58807 121.203 5.26194 126.162C5.97325 126.199 6.68456 126.162 7.43331 126.275C9.1367 126.5 10.8027 126.801 12.5248 126.97C15.7631 127.289 22.6703 127.627 22.2772 127.928C21.0605 128.848 19.4881 128.848 18.0281 129.017C15.5759 129.318 13.1238 130.107 10.7839 130.877C8.94951 131.478 7.15253 132.173 5.37426 132.925C7.28356 137.32 6.60968 143.106 6.02941 147.521C5.3181 153.006 4.77526 158.548 5.35554 163.977C9.69826 169.199 13.8164 174.553 18.4586 179.512C23.9244 185.335 29.4651 191.084 35.2118 196.644C40.6776 201.96 46.1809 207.277 52.2832 211.86C54.155 213.269 56.1018 214.584 58.0485 215.862C61.4927 217.533 64.8808 218.266 68.2876 218.567C72.0688 219.374 76.0371 219.788 79.5188 219.75C85.1718 219.694 90.7312 218.473 96.403 218.041C96.7586 218.041 97.1143 218.003 97.4512 218.003C102.561 217.872 110.18 218.548 115.721 216.406C116.507 216.369 117.256 216.406 117.967 216.575C118.304 216.651 118.678 216.538 118.903 216.237C119.914 214.903 120.606 213.307 121.355 211.748C121.486 211.503 121.617 211.24 121.729 210.996C122.048 210.357 122.384 209.719 122.778 209.118C123.002 209.118 123.246 209.249 123.302 209.512C124.05 212.649 125.698 215.298 127.513 217.89C129.048 215.655 132.025 216.444 134.57 216.5C139.418 216.613 144.304 216.876 149.133 216.5C153.832 216.143 158.605 214.753 163.303 214.828C165.362 214.866 167.421 214.979 169.499 215.091C171.989 215.091 174.516 215.185 177.08 215.429C187.057 215.617 197.053 215.279 207.03 215.091C207.18 215.091 207.33 215.091 207.479 215.091C209.894 215.373 212.328 215.655 214.742 215.786C221.837 216.162 228.875 216.425 235.969 216.876C241.323 217.214 245.965 217.533 250.177 214.321C251.543 213.758 252.797 212.893 253.976 211.917C254.8 211.391 255.904 210.733 256.747 210.545C256.84 210.977 256.934 211.409 257.102 211.804C257.402 212.537 258.469 211.804 258.619 211.316C259.049 209.756 259.798 208.423 260.959 207.314C261.146 207.314 261.333 207.427 261.426 207.577C261.464 207.765 261.501 207.953 261.558 208.141C262.138 211.597 262.568 215.091 263.111 218.548C264.347 219.168 266.293 219.318 269.363 218.717C270.037 218.698 270.561 218.661 270.673 218.642C275.746 218.679 281.362 219.957 285.929 221.046C292.368 222.568 299.201 221.929 305.902 221.441C315.448 220.765 324.939 221.027 334.429 221.253C335.627 218.585 337.237 216.125 338.454 213.457C338.622 213.081 339.221 213.119 339.39 213.457C340.195 214.997 340.157 216.744 340.326 218.435C340.438 219.487 340.569 220.633 340.737 221.76C342.478 222.286 344.93 221.591 346.727 221.741C351.65 222.155 356.835 220.99 361.777 220.99C367.58 220.99 372.559 218.191 378.231 217.984C380.121 217.909 382.012 218.21 383.921 218.604C384.052 218.661 384.183 218.717 384.314 218.773C384.539 218.886 384.801 218.961 385.101 219.036C385.868 219.412 386.579 219.882 387.141 220.539C387.309 220.746 387.721 220.633 387.89 220.483C390.342 218.247 393.749 217.101 396.463 215.204C396.706 215.035 396.949 214.866 397.193 214.697C397.53 214.471 397.885 214.265 398.222 214.039C400.6 212.386 402.79 210.545 404.643 208.742C407.9 205.586 410.783 202.073 413.366 198.335C414.788 196.287 416.248 194.033 416.978 191.629C417.315 190.52 418.064 189.111 417.914 187.928C417.858 187.477 417.821 187.045 417.821 186.632C417.315 186.106 416.585 185.805 415.799 185.58C416.96 185.148 417.97 184.678 418.626 183.851C417.877 179.249 417.297 174.628 416.978 169.988C416.754 166.531 416.567 163.037 416.679 159.562C416.754 157.327 416.997 155.035 416.791 152.799C415.312 152.536 413.815 152.33 412.317 152.161C410.146 151.916 407.975 151.146 405.785 151.372C405.148 151.447 405.111 150.489 405.654 150.301C408.218 149.456 410.914 149.117 413.478 148.253C414.77 147.821 416.005 147.22 417.24 146.694C416.847 142.298 417.652 137.583 418.176 133.281C418.532 130.407 418.663 127.402 419 124.452C418.925 115.154 418.701 105.855 418.906 96.5563C418.307 95.091 417.577 93.607 416.997 91.9539V92.0478Z" fill="#243650"/>
<path d="M364.098 20.0627C363.761 18.5787 363.836 17.2261 363.181 15.9111C363.275 15.9111 363.349 15.9299 363.443 15.9863C364.379 16.5874 365.277 17.2261 366.176 17.8648C366.176 17.9024 366.176 17.9211 366.176 17.9587C367.823 20.645 368.291 23.8385 368.254 26.9944C368.198 31.146 365.259 33.2499 362.208 35.4666C362.17 35.5042 362.17 35.5793 362.226 35.5605C365.502 33.7947 368.871 32.104 369.751 28.1591C370.182 26.2243 370.294 22.6738 369.283 20.1378C370.743 21.2274 372.147 22.3733 373.551 23.5379C373.907 24.5711 374.3 25.5855 374.562 26.6751C375.254 29.6244 374 31.8223 372.409 34.1328C372.147 34.5273 372.671 34.6401 372.896 34.3207C374.244 32.4422 375.685 30.4509 375.498 27.99C375.423 26.9381 375.311 25.8298 374.955 24.8154C374.955 24.7778 374.936 24.759 374.918 24.7214C375.498 25.2286 376.078 25.6982 376.64 26.2055C377.051 28.5536 377.201 31.1084 377.108 33.4378C376.995 36.5186 372.484 39.1297 370.275 40.7077C370.219 40.7453 370.219 40.8955 370.313 40.8392C372.952 39.3927 376.715 37.6081 377.95 34.6213C378.68 32.8555 378.886 30.1692 378.455 27.8398C380.29 29.5492 382.049 31.3526 383.79 33.1748C383.697 34.1704 383.959 35.1848 384.034 36.1992C384.202 38.9231 382.723 41.1585 381.02 43.131C380.945 43.2249 381.02 43.3564 381.132 43.2625C382.705 41.8724 383.996 40.3696 384.857 38.4535C385.232 37.6081 385.437 36.218 385.4 34.8843C385.831 35.3539 386.28 35.8235 386.71 36.2932C386.542 38.0965 386.43 39.8811 386.224 41.6845C385.98 43.8073 384.689 45.2913 383.172 46.6438C382.742 47.0383 381.862 48.1091 381.301 48.203C381.132 48.2406 380.945 48.6163 381.207 48.6163C381.918 48.6163 382.293 48.203 382.854 47.771C384.071 46.8129 385.344 46.1742 386.242 44.8592C387.534 42.9807 388.264 40.2756 388.039 37.796C389.293 39.2612 390.548 40.7453 391.746 42.2669C392.083 42.6989 392.419 43.1498 392.756 43.5818C392.307 44.9156 392.345 46.5687 391.989 47.9024C391.39 50.1191 389.949 53.4629 387.684 54.4773C387.646 54.4773 387.609 54.59 387.684 54.5712C389.705 54.0828 391.596 51.6031 392.532 49.8373C393.131 48.7102 393.842 46.9256 394.029 45.2725C395.059 46.719 396.07 48.1842 397.024 49.6683C396.687 51.0772 396.519 52.4297 395.546 53.7259C394.853 54.6464 393.805 55.379 392.887 56.0552C391.764 56.8818 390.997 57.8962 389.499 58.1216C389.462 58.1216 389.406 58.2156 389.481 58.2343C390.716 58.2907 391.596 57.7084 392.663 57.0884C393.823 56.4122 395.003 55.905 395.957 54.9093C396.856 53.9701 397.698 52.7491 398.166 51.4341C399.308 53.2563 400.412 55.116 401.498 56.9945C401.404 57.6708 400.993 58.3658 400.693 58.967C400.263 59.8499 399.533 61.2212 398.54 61.5969C398.447 61.6345 398.335 61.9162 398.503 61.8975C399.607 61.8035 400.637 60.7703 401.236 59.925C401.479 59.5869 401.891 58.9858 402.265 58.3283C403.37 60.2256 404.474 62.1605 405.466 64.1517C405.055 64.6213 404.98 65.3352 404.624 65.9175C404.362 66.3684 403.651 66.6126 403.22 66.8944C402.584 67.2888 402.097 67.9276 401.311 68.0215C401.086 68.0403 400.88 68.5099 401.199 68.5475C401.76 68.6226 402.228 68.416 402.733 68.1718C403.351 67.8712 403.988 67.627 404.605 67.3452C405.392 66.9883 405.803 66.2557 406.103 65.4855C406.552 66.4623 406.964 67.4579 407.32 68.4723C407.207 68.6226 407.095 68.7729 406.964 68.9419C406.758 69.2049 406.29 69.9751 405.916 69.9564C405.71 69.9564 405.448 70.2945 405.71 70.426C406.196 70.6702 406.571 70.2945 406.983 70.0691C407.207 69.9376 407.451 69.7309 407.656 69.4867C407.862 70.163 408.068 70.8393 408.218 71.5343C408.892 72.962 409.566 74.3897 410.258 75.8174C408.985 75.1411 407.694 74.5587 406.346 74.0328C404.961 73.0184 403.595 72.0227 402.303 70.9896C395.808 65.8236 389.181 60.9394 382.424 56.1304C376.415 51.8286 370.163 48.0151 364.042 43.9012C363.743 43.7133 363.312 43.4316 362.75 43.0934C363.537 42.5674 364.304 41.9663 364.941 41.29C365.97 40.2193 367.243 39.1673 367.954 37.8335C367.992 37.7396 367.898 37.7021 367.842 37.7584C367.056 38.7728 365.802 39.5618 364.772 40.3132C363.799 41.027 362.676 41.7972 361.59 42.3796C360.448 41.7033 359.082 40.858 357.696 39.9563C357.753 39.9187 357.79 39.8623 357.846 39.8248C358.258 39.4679 358.688 38.9419 359.194 38.7164C359.306 38.6601 359.362 38.4534 359.194 38.4722C358.688 38.5474 358.37 38.9043 357.902 39.0546C357.603 39.1485 357.266 39.28 356.966 39.4678C356.629 39.2424 356.292 39.0358 355.974 38.7916C354.683 37.965 353.41 37.1385 352.137 36.3119C351.912 36.1617 351.856 35.9362 351.912 35.7108C353.035 35.6732 354.589 34.997 355.226 34.8279C357.827 34.1141 360.036 33.0057 362.095 31.315C364.098 29.6807 364.978 27.0884 365.128 24.5899C365.221 23.0683 364.454 21.4904 364.117 20.0251L364.098 20.0627Z" fill="#F0F0F0"/>
<path d="M256.242 7.72076C256.878 8.52853 257.496 9.44901 257.964 10.0689C259.049 11.5154 259.33 14.2017 259.33 15.8736C259.33 16.099 259.611 15.9675 259.63 15.7984C259.967 13.7508 260.285 11.5342 259.424 9.56171C259.143 8.90423 258.488 8.37825 257.87 7.94619C259.087 8.13404 260.285 8.34068 261.502 8.54732C261.895 9.35509 262.25 10.1629 262.475 11.1021C262.887 12.8867 262.475 15.6482 261.595 17.2073C261.52 17.3388 261.689 17.3764 261.764 17.2637C263.13 15.2724 263.991 11.5342 263.13 8.81031C265.732 9.27994 268.296 9.712 270.749 9.97499C273.201 10.238 275.615 10.2568 278.03 10.1065C278.124 10.2944 278.199 10.4822 278.255 10.6888C278.348 11.0082 278.311 11.3463 278.311 11.6657C278.311 11.9099 278.423 12.1541 278.498 12.3795C278.536 12.511 278.704 12.3795 278.723 12.3044C278.929 11.5717 279.116 10.8955 279.003 10.1441C279.003 10.1065 279.003 10.0877 279.003 10.0501C280.464 9.93744 281.905 9.76837 283.346 9.58051C283.571 9.91865 283.777 10.2756 283.945 10.6513C284.263 11.4215 284.376 12.2668 284.469 13.0746C284.488 13.2436 284.713 13.0746 284.713 12.9806C284.806 11.8723 284.9 10.501 284.469 9.41143C284.619 9.39264 284.769 9.37386 284.919 9.35507C285.256 9.88106 285.536 10.4258 285.686 11.0833C285.855 11.8159 286.098 12.9055 285.929 13.6381C285.892 13.7696 286.098 13.6945 286.117 13.6381C286.454 12.8116 286.397 11.6469 286.36 10.764C286.341 10.2192 286.266 9.67443 286.079 9.18601C289.317 8.66002 292.537 8.04012 295.794 7.53291C300.249 6.81907 304.685 6.19916 309.159 5.59803C310.207 7.62684 311.555 9.26115 311.799 11.6469C311.836 11.9287 312.248 11.6844 312.248 11.4966C312.267 10.1441 312.042 8.90423 311.555 7.62683C311.312 6.96935 311.05 6.04888 310.582 5.39139C313.333 5.01569 316.066 4.63998 318.818 4.26428C319.81 4.02007 320.802 3.75707 321.776 3.49408C322.318 4.11399 323.086 4.63997 323.591 5.22232C324.733 6.53729 325.164 8.11525 326.043 9.56171C326.212 9.82471 326.642 9.48657 326.568 9.24237C326.043 7.55169 326.1 6.08645 325.014 4.58363C324.64 4.05764 324.172 3.47529 323.647 3.00566C324.415 2.79902 325.164 2.59238 325.931 2.40453C326.53 2.36696 327.204 2.23546 327.915 2.06639C328.496 2.66752 329.226 3.19351 329.712 3.88857C330.592 5.10961 331.228 6.96935 331.547 8.4346C331.547 8.49095 331.64 8.4346 331.64 8.39703C331.79 6.68757 331.434 5.22233 330.723 3.66315C330.349 2.85538 329.731 2.27304 329.02 1.78462H329.057C329.207 1.74705 329.357 1.74704 329.488 1.72826C329.581 1.84097 329.694 1.97247 329.806 2.08518C330.105 2.40453 330.293 2.78024 330.573 3.09959C331.097 3.68193 331.491 4.41455 331.884 5.09082C332.015 5.31625 332.333 4.99689 332.258 4.80904C331.921 4.03884 331.584 3.28745 331.135 2.59239C330.929 2.29183 330.779 1.9349 330.573 1.61555C332.277 1.52162 334.018 1.6907 335.833 2.31061C335.908 2.32939 335.983 2.36697 336.039 2.38575C337.424 4.56484 337.78 7.77713 337.481 10.2004C337.481 10.2944 337.612 10.2568 337.63 10.2004C338.117 8.60368 338.622 5.41017 337.948 3.13715C338.398 3.325 338.866 3.51286 339.315 3.73828C340.008 6.53729 340.139 9.82473 339.671 13.0182C335.159 10.2756 324.471 12.4735 320.091 13.0182C319.698 12.3795 318.949 11.8347 318.519 11.459C317.695 10.7264 317.339 9.48658 316.422 8.86667C315.917 8.52853 315.374 9.09208 315.28 9.56171C315.205 10.0126 315.336 10.4446 315.411 10.8955C315.505 11.4403 315.411 11.9662 315.449 12.511C315.449 12.7552 315.449 13.1121 315.486 13.4315C311.855 13.7696 308.205 14.1453 304.592 14.6713C302.814 15.0846 300.923 15.3664 298.995 15.6294C297.797 15.8736 296.599 16.1178 295.42 16.4184C291.938 17.2825 288.55 18.4284 285.124 19.5179C283.889 19.9124 282.71 20.2881 281.493 20.6075C280.426 20.476 279.378 20.3632 278.536 20.4196C276.439 20.5511 276.682 15.5354 276.757 14.352C276.813 13.4878 275.784 13.9763 275.597 14.4647C274.848 16.3056 274.174 18.1654 273.594 20.0627C273.463 20.5135 273.219 20.7765 272.92 20.9456C271.853 20.8704 270.767 20.7953 269.7 20.739C269.551 20.7014 269.401 20.6638 269.251 20.645C265.657 20.0439 260.341 18.7101 256.597 19.7246C256.635 18.9919 257.215 17.6394 257.29 17.2261C257.421 16.5123 257.477 15.7421 257.496 14.9719C257.365 13.7133 257.178 12.4734 257.009 11.2148C256.579 9.74957 255.83 8.45339 254.744 7.53291C255.25 7.58927 255.755 7.66441 256.242 7.72076Z" fill="#F0F0F0"/>
<path d="M131.107 17.7897C131.107 17.7897 131.107 17.7333 131.088 17.6957C131.051 17.5455 130.995 17.414 130.957 17.2637C130.882 17.0007 130.808 16.7377 130.714 16.4935C130.639 16.2681 130.546 16.0614 130.452 15.836C131.575 16.1929 132.698 16.5123 133.821 16.8316C135.15 19.0859 136.816 22.1854 135.188 24.7214C135.132 24.7966 135.244 24.8529 135.3 24.7778C137.134 22.5048 136.348 19.5743 135.188 17.1885C136.723 17.583 138.258 17.9212 139.793 18.203C140.092 19.424 141.402 20.2506 141.646 21.5843C141.889 22.8429 142.376 25.1723 141.814 26.3933C141.777 26.4873 141.889 26.4873 141.926 26.4309C142.825 25.3789 142.638 23.6507 142.582 22.3733C142.507 20.9832 142.17 19.5555 141.309 18.4659C141.646 18.5223 142.001 18.5411 142.338 18.5786C142.638 18.9356 142.862 19.2737 143.068 19.8185C143.499 20.908 143.742 21.9976 143.854 23.1623C143.854 23.3125 144.098 23.181 144.098 23.0683C144.135 21.8285 144.004 20.6262 143.686 19.424C143.63 19.1798 143.555 18.9356 143.48 18.6914C146.176 18.9356 148.927 18.9356 151.772 18.5411C155.048 18.0902 158.305 17.414 161.487 16.5311C161.581 16.7001 161.693 16.8692 161.768 17.0383C162.068 17.6958 162.311 18.4096 162.517 19.0859C162.835 20.1191 162.536 21.265 162.891 22.2606C162.929 22.3733 163.097 22.223 163.079 22.1479C162.854 20.7202 163.434 19.424 163.022 17.9587C162.873 17.4703 162.742 16.8128 162.536 16.2305C163.341 16.0051 164.127 15.7421 164.913 15.4791C165.156 15.9112 165.475 16.3244 165.774 16.7001C166.373 17.4891 166.804 18.3344 166.897 19.3489C166.897 19.4803 167.084 19.3488 167.103 19.2737C167.197 18.3908 167.028 17.583 166.747 16.7377C166.579 16.2493 166.336 15.6481 166.036 15.1409C167.122 14.7652 168.207 14.352 169.293 13.9199C172.606 12.5862 176.013 11.2712 179.513 10.5761C179.907 10.501 180.281 10.4446 180.655 10.4071C180.562 10.6701 180.599 10.9143 180.936 11.027C182.452 11.5342 182.902 14.0138 183.238 15.3476C183.557 16.625 183.388 17.9587 183.8 19.2173C183.819 19.2925 183.912 19.2549 183.95 19.2173C184.025 19.161 184.1 19.0859 184.193 19.0295C184.231 19.0107 184.249 18.9168 184.193 18.9356C184.043 18.9731 184.249 17.0383 184.287 16.6813C184.362 15.6482 184.343 14.6713 184.231 13.6569C184.118 12.6049 183.613 11.2524 182.771 10.4071C184.062 10.5574 185.204 11.0082 186.439 11.6281C186.776 12.3607 187.169 13.1121 187.506 13.826C188.105 15.1409 187.768 16.6438 188.367 17.8836C188.536 18.203 188.966 17.7709 188.873 17.4891C188.629 16.7565 188.873 15.7984 188.854 15.0282C188.854 14.7277 188.798 14.4647 188.742 14.1829C188.854 14.258 188.985 14.3332 189.097 14.3895C189.79 15.4227 190.426 16.6062 191.063 17.677C191.568 19.1986 191.887 20.8329 192.149 22.4296C190.127 20.645 186.72 20.382 184.305 20.7202C178.746 21.4716 173.168 22.1854 167.833 23.9888C165.737 24.6839 162.985 25.1159 161.038 26.2055C157.388 28.2155 157.669 23.2374 155.46 22.6926C154.73 22.5048 154.15 22.8993 153.719 23.4816C153.233 24.1767 152.765 26.2618 151.885 26.3182C149.339 26.5248 147.093 27.6895 144.622 28.0652C139.624 28.8166 133.896 29.4741 128.692 29.4178C128.805 29.1736 128.917 28.9106 128.992 28.6288C131.051 25.0972 131.856 21.3025 131.107 17.8084V17.7897Z" fill="#F0F0F0"/>
<path d="M17.1854 24.4772C17.4288 24.3457 17.6908 24.2142 17.9342 24.0827C19.8061 24.1579 21.5469 24.1203 23.4562 24.5899C25.197 25.022 28.3043 26.1867 28.1171 28.4409C28.1171 28.5536 28.2482 28.4973 28.2669 28.4409C29.3151 24.7778 24.4296 22.9744 20.5361 22.6926C20.9853 22.4672 21.4346 22.2418 21.8838 22.0163C23.1193 22.1854 24.3734 22.2606 25.6276 22.3733C27.8363 22.5611 29.5585 23.0495 31.5052 24.1015C31.6737 24.1954 31.9357 23.8573 31.786 23.7258C30.2511 22.4108 28.9782 21.6406 27.0127 20.9831C26.4325 20.7953 25.8522 20.6075 25.2532 20.4384C26.6758 19.8185 28.0984 19.2173 29.5585 18.635C30.1575 18.3344 30.7565 18.0527 31.3555 17.7709C31.5988 17.8272 31.8609 17.8836 32.1042 17.9775C32.6658 18.2029 33.2086 18.4283 33.7889 18.5974C35.0805 19.0107 36.4282 19.2173 37.7011 19.687C37.7759 19.7245 37.9257 19.5555 37.8321 19.4991C36.6528 18.7101 35.3238 18.1466 34.1258 17.3952C33.8263 17.2073 33.5081 17.0383 33.1712 16.888C34.0135 16.4935 34.8558 16.099 35.6982 15.7045C36.2597 15.8548 36.8213 15.9675 37.3829 16.0802C37.8695 16.1741 38.3937 16.1929 38.8804 16.2492C39.3109 16.2868 39.6665 16.5123 40.0783 16.531C40.1719 16.531 40.2842 16.362 40.1719 16.3244C39.8537 16.2117 39.7227 15.9299 39.4232 15.7984C38.9552 15.6106 38.506 15.4227 38.0567 15.1973C37.8134 15.0846 37.5888 15.0094 37.3454 14.9155C38.2813 14.4835 39.1986 14.0326 40.1345 13.6193C40.1719 13.5818 40.2281 13.563 40.2842 13.5254C40.3778 13.5442 40.4527 13.563 40.5463 13.563C40.8832 13.563 41.2202 13.563 41.5571 13.6193C42.231 13.6945 42.9049 13.8635 43.56 13.6569C43.6723 13.6193 43.8408 13.3376 43.6349 13.3376C42.961 13.3376 42.3246 12.9243 41.7256 12.6613C41.6881 12.6613 41.6507 12.6425 41.632 12.6237C42.5679 12.0601 43.5787 11.553 44.627 11.1021C44.9078 11.1021 45.1885 11.1209 45.4506 11.1585C46.5737 11.2712 47.7343 11.196 48.8574 11.1585C48.9884 11.1585 49.2318 10.8579 49.0259 10.8015C48.352 10.6325 47.6968 10.4634 47.0604 10.2943C47.3786 10.2004 47.6781 10.1065 47.9963 10.0313C48.0525 10.0313 48.0899 10.0313 48.1461 10.0313C48.1648 10.0313 48.1835 10.0313 48.221 10.0313C48.3145 9.99376 48.4081 9.95619 48.5017 9.91862C48.7638 9.80591 48.9884 9.89985 49.1569 10.0501C49.8869 10.0501 50.6169 10.0877 51.3282 10.144C50.1677 11.0457 48.9323 11.9099 48.015 12.7364C44.889 15.5166 42.1187 18.3344 39.4232 21.5091C37.2518 24.0827 35.1553 26.7314 33.1337 29.4365C31.9919 30.9581 30.2511 37.0633 28.7161 33.1936C28.0423 31.4841 24.2424 29.0045 22.6887 28.2155C19.9371 26.8066 17.4475 26.1867 14.3964 26.7878C14.153 26.8441 13.9097 26.9193 13.6851 26.9944C14.6584 26.1115 15.8003 25.3038 17.1667 24.5148L17.1854 24.4772Z" fill="#F0F0F0"/>
<path d="M79.6124 216.895C76.8607 216.669 74.1091 216.575 71.3761 216.35C71.451 216.049 71.5259 215.73 71.6382 215.448C71.8441 214.941 71.1141 214.922 70.9269 215.298C70.7959 215.561 70.6087 215.918 70.5151 216.275C69.7289 216.2 68.924 216.125 68.1378 216.012C68.1378 215.974 68.1753 215.955 68.194 215.918C68.3624 215.636 68.4186 215.223 68.5309 214.922C68.6619 214.565 68.7743 214.227 68.8678 213.851C68.9427 213.588 68.6245 213.589 68.5122 213.776C68.1191 214.471 67.6324 215.204 67.127 215.824H67.1083C66.1911 215.692 65.2551 215.523 64.3379 215.317C64.4877 215.035 64.6187 214.772 64.731 214.565C65.199 213.72 65.798 212.912 66.2098 212.048C66.3034 211.823 66.0788 211.804 65.9665 211.954C65.5172 212.574 64.9182 213.156 64.4128 213.739C64.0384 214.171 63.6641 214.622 63.2897 215.054H63.271C61.1183 214.453 59.0031 213.513 56.9441 212.367C57.2997 212.011 57.7677 211.766 58.1233 211.409C58.6475 210.902 59.0218 210.301 59.4524 209.719C60.1824 208.723 60.8563 207.728 61.0996 206.506C61.1183 206.356 60.9311 206.45 60.9124 206.506C60.3509 207.915 59.209 208.855 58.1421 209.888C57.4869 210.526 56.6446 211.09 56.0269 211.804C55.7274 211.616 55.4279 211.428 55.1284 211.24C55.4653 210.977 55.7274 210.62 55.9894 210.282C56.3825 209.794 56.7943 209.305 57.2061 208.817C57.2997 208.704 57.2061 208.535 57.0751 208.648C56.6071 209.061 56.1392 209.475 55.6899 209.888C55.3343 210.207 54.885 210.508 54.6417 210.94C52.4516 209.531 50.3364 207.934 48.2961 206.225C49.4753 206.018 50.8044 205.06 51.4782 204.44C52.2083 203.783 52.6949 202.994 53.2378 202.186C53.8742 201.228 54.623 200.364 55.1845 199.349C55.2781 199.18 55.0722 199.067 54.9599 199.218C53.9491 200.57 52.6013 202.017 51.3472 203.125C50.1492 204.177 48.4458 204.309 47.2104 205.304C46.5739 204.759 45.9562 204.196 45.3385 203.632C46.4242 203.257 47.304 202.505 48.2586 201.735C49.5877 200.664 51.029 199.387 51.8526 197.884C51.89 197.79 51.7964 197.753 51.7403 197.809C50.9167 198.842 49.7374 199.575 48.633 200.289C47.304 201.153 46.0311 201.979 44.5336 202.411C44.44 202.449 44.3277 202.524 44.2341 202.618C44.0469 202.449 43.8972 202.299 43.71 202.129C44.178 201.867 44.6085 201.491 44.9267 201.228C46.0311 200.326 47.0419 199.518 47.9591 198.391C48.0527 198.279 47.9591 198.109 47.8281 198.222C46.9483 198.992 45.9937 199.819 44.8706 200.232C44.2528 200.458 43.4667 200.871 42.8489 201.322C41.4076 199.969 40.0037 198.635 38.6934 197.377C40.0037 196.776 41.5574 195.179 42.1189 194.728C43.9533 193.263 46.1809 191.196 46.8922 188.867C46.9483 188.66 46.705 188.66 46.6301 188.811C45.5819 190.971 42.9987 192.662 41.1081 194.052C40.2283 194.691 38.6372 195.63 37.7388 196.456C37.3831 196.118 37.0462 195.78 36.6905 195.442C37.2146 195.16 37.7013 194.747 38.1131 194.352C38.8619 193.62 39.5919 193.019 40.2658 192.192C40.3594 192.079 40.2658 191.91 40.1347 192.023C38.8806 193.113 37.458 193.958 36.0354 194.784C34.2945 193.075 32.5911 191.366 30.9064 189.637C31.8611 189.431 32.8345 188.98 33.5271 188.548C35.8482 187.12 38.0008 185.58 39.4421 183.213C39.517 183.1 39.3673 183.025 39.2924 183.119C36.99 186.031 33.2837 187.665 29.7085 188.435C29.3528 188.059 28.9971 187.684 28.6415 187.308C29.1843 187.045 29.7085 186.726 30.1577 186.444C30.9626 185.955 31.8798 185.73 32.6473 185.148C33.3212 184.64 33.9201 184.02 34.5191 183.419C34.5566 183.382 34.5191 183.307 34.463 183.344C32.4414 184.791 30.0267 185.486 27.6868 186.312C27.013 185.617 26.3578 184.903 25.7027 184.208C26.8071 183.757 27.8553 182.799 28.5666 182.048C28.6041 181.992 28.5853 181.898 28.5105 181.935C27.7992 182.33 26.9755 182.706 26.1894 182.875C25.7588 182.969 25.1411 182.987 24.7106 183.156C23.5126 181.879 22.2959 180.583 21.1166 179.287C23.9057 179.55 28.0987 178.141 29.6149 177.183C33.4147 174.759 35.923 170.514 36.7279 166.137C36.7467 166.005 36.5595 166.062 36.5408 166.137C35.3615 169.913 32.9468 172.862 30.0454 175.492C28.6789 176.732 25.8899 177.108 24.0929 177.408C23.0259 177.596 21.1166 177.915 19.8437 177.878C19.3196 177.314 18.7955 176.751 18.2901 176.168C18.1965 176.074 18.1216 175.962 18.028 175.868C19.2073 175.999 20.555 175.755 21.4535 175.548C24.1865 174.928 26.3391 173.257 28.3982 171.491C28.4543 171.453 28.4543 171.303 28.3607 171.359C25.085 173.181 20.9294 174.553 17.1108 174.759C16.1374 173.576 15.2389 172.355 14.3592 171.077C22.0525 171.791 29.3341 167.527 30.6444 159.299C30.6444 159.224 30.5508 159.262 30.5508 159.299C28.1548 167.264 20.9856 169.349 13.6853 170.119C13.2173 169.499 12.6558 168.992 12.0755 168.504C14.6025 168.936 17.6537 168.335 19.7876 167.677C22.3895 166.888 25.1973 164.972 26.4701 162.549C26.5824 162.342 26.3391 162.305 26.2268 162.455C24.5047 164.953 21.6407 165.686 18.9452 166.513C17.4852 166.963 16.0251 167.039 14.5089 167.076C13.3109 167.095 12.2627 167.621 11.1021 167.621C10.6716 167.226 10.2598 166.832 9.90414 166.362L9.8667 166.325C12.6745 166.625 16.3246 165.742 18.0842 164.991C23.1569 162.849 25.4219 159.374 27.8927 154.622C28.941 152.593 31.1872 149.531 32.2916 146.619C34.2196 153.663 39.1426 168.56 39.6481 170.195C40.6963 173.595 41.0707 178.347 42.9425 181.391C43.9908 183.081 46.6488 184.321 48.1463 185.598C50.2054 187.345 52.1147 189.337 53.9678 191.29C57.2997 194.803 58.9844 200.664 61.7548 204.722C64.132 208.235 67.8758 211.034 71.4136 213.269C74.7455 215.373 78.3395 215.899 81.9709 216.669C81.2034 216.726 80.436 216.782 79.6872 216.857L79.6124 216.895Z" fill="#F0F0F0"/>
<path d="M254.95 204.121C254.762 206.488 253.658 208.404 252.254 210.282C252.198 210.357 252.142 210.414 252.086 210.489C253.995 206.619 253.883 202.073 250.139 198.805C250.064 198.729 249.914 198.88 249.97 198.955C251.449 201.265 251.898 204.496 251.543 207.183C251.243 209.55 249.521 211.222 248.548 213.232C246.638 214.096 244.486 214.415 242.296 214.547C242.427 214.265 242.558 213.983 242.689 213.739C243.307 212.537 243.569 211.316 243.849 210.001C243.906 209.756 243.569 209.888 243.512 210.038C243.082 211.109 242.689 212.104 242.052 213.063C241.753 213.532 241.416 214.096 241.042 214.603C240.817 214.603 240.611 214.603 240.386 214.603C239.451 214.622 238.496 214.603 237.56 214.603C238.627 213.326 239.301 211.485 239.825 210.057C240.798 207.333 239.039 204.177 237.71 201.904C237.672 201.848 237.597 201.923 237.616 201.979C238.552 204.553 239.301 207.295 238.589 210.001C238.14 211.691 237.017 213.044 236.212 214.565C232.637 214.396 229.08 214.002 225.524 213.626C225.748 213.081 225.954 212.518 226.085 211.898C226.347 210.677 226.291 209.531 225.861 208.347C225.842 208.291 225.767 208.366 225.767 208.404C225.842 209.775 225.468 211.071 225.037 212.367C224.887 212.818 224.682 213.213 224.457 213.607C223.951 213.607 223.446 213.626 222.941 213.645C223.315 213.589 223.689 213.532 224.064 213.476C222.735 213.344 221.406 213.213 220.077 213.119C220.021 213.119 219.964 213.119 219.908 213.119C220.189 212.349 220.376 211.541 220.301 210.883C220.058 208.667 218.916 206.619 217.999 204.609C217.905 204.384 217.587 204.666 217.606 204.853C217.849 206.225 218.093 207.615 218.28 208.986C218.448 210.188 218.298 211.485 217.924 212.63C217.887 212.762 217.849 212.856 217.812 212.969C214.648 212.781 211.447 212.668 208.247 212.724C208.939 210.921 209.07 208.61 208.434 207.07C208.359 206.901 208.134 207.126 208.134 207.239C208.303 208.761 207.629 210.057 207.198 211.466C207.086 211.879 206.843 212.311 206.618 212.762C205.607 212.856 204.596 212.95 203.586 213.025C205.345 209.174 204.821 204.929 202.144 201.491C202.051 201.378 201.882 201.585 201.938 201.697C203.548 205.192 203.885 209.681 202.051 213.156C199.43 213.344 196.828 213.495 194.245 213.551H194.208C194.732 212.912 195.162 212.18 195.312 211.635C195.911 209.531 195.406 207.821 194.919 205.736C194.863 205.492 194.563 205.736 194.563 205.905C194.657 207.671 194.938 209.437 194.226 211.128C193.833 212.048 193.159 212.781 192.542 213.551C191.325 213.551 190.127 213.513 188.91 213.457C191.999 210.996 191.138 205.736 189.228 202.749C189.135 202.618 188.948 202.806 189.004 202.919C189.771 205.098 189.865 207.521 189.266 209.756C188.91 211.034 188.199 212.123 187.825 213.401C187.488 213.401 187.151 213.363 186.832 213.344C187.057 212.912 187.169 212.518 187.319 212.067C187.619 211.128 187.656 210.132 187.6 209.174C187.6 209.08 187.469 209.155 187.45 209.212C187.169 210.489 186.664 211.616 185.915 212.687C185.784 212.875 185.634 213.063 185.503 213.269C184.043 213.175 182.602 213.063 181.142 212.931C181.909 211.597 182.434 210.019 182.658 208.554C183.014 206.3 181.629 204.121 180.524 202.242C180.487 202.167 180.356 202.261 180.375 202.336C180.88 204.196 181.367 206.187 181.217 208.141C181.086 209.738 180.281 211.278 179.738 212.818C178.802 212.743 177.847 212.649 176.912 212.574C177.192 211.992 177.417 211.372 177.548 210.827C177.791 209.831 177.904 208.723 177.791 207.709C177.791 207.54 177.567 207.709 177.548 207.803C177.361 208.986 176.837 210.019 176.387 211.109C176.2 211.56 175.826 211.992 175.545 212.461C173.729 212.311 171.895 212.18 170.061 212.105C170.491 211.466 170.847 210.771 171.053 210.113C172.101 206.957 171.577 204.29 169.349 201.81C169.293 201.754 169.181 201.867 169.218 201.923C170.622 204.365 170.828 206.582 169.911 209.268C169.649 210.019 169.256 211.128 168.732 212.048C168.638 212.048 168.563 212.048 168.469 212.048C168.114 212.048 167.758 212.048 167.402 212.048C167.552 211.785 167.683 211.503 167.796 211.259C168.338 210.113 168.994 209.042 168.863 207.728C168.863 207.596 168.675 207.728 168.657 207.803C168.582 209.193 167.683 210.226 166.935 211.334C166.747 211.635 166.467 211.879 166.186 212.123C165.156 212.198 164.145 212.33 163.116 212.499C165.194 210.357 166.541 207.615 166.448 204.327C166.373 201.453 164.819 199.462 162.76 198.88C165.942 197.997 169.929 198.729 173.056 198.579C177.38 198.391 181.61 199.218 185.971 198.974C195.593 198.448 204.821 200.683 214.461 200.157C214.91 200.138 215.36 200.101 215.809 200.082C216.82 200.495 217.681 201.04 218.411 201.735C218.542 201.904 218.654 202.036 218.692 202.073C218.804 202.167 218.879 202.261 218.991 202.355C219.627 203.125 220.152 204.046 220.545 205.21C220.807 206.018 221.836 204.985 221.911 204.553C222.136 203.181 221.78 199.913 222.885 199.95C225.88 200.026 228.987 199.537 231.888 198.88C232.693 198.692 233.479 198.542 234.265 198.372C235.314 198.222 236.381 198.034 237.448 197.846C238.777 197.602 240.068 197.32 241.36 197.02C241.678 196.964 241.996 196.907 242.314 196.851C242.577 196.813 243.269 196.644 244.168 196.419C245.384 196.175 246.601 195.949 247.836 195.818C248.473 195.573 249.109 195.348 249.746 195.141C250.176 195.066 250.551 195.01 250.831 194.991C251.112 195.029 251.393 195.066 251.618 195.123C251.711 195.16 251.786 195.198 251.88 195.198C251.936 195.198 251.973 195.235 251.992 195.254C252.366 195.555 252.61 196.813 252.853 197.264C253.377 198.185 253.583 199.237 254.107 200.157C254.313 200.514 254.5 200.871 254.688 201.228C254.875 202.242 255.006 203.257 254.912 204.271L254.95 204.121Z" fill="#F0F0F0"/>
<path d="M415.5 191.553C414.339 194.597 412.71 197.358 410.764 199.894C410.745 199.875 410.726 199.838 410.708 199.819C410.502 199.687 410.389 199.481 410.258 199.293C410.052 199.011 409.697 198.823 409.435 198.579C409.322 198.466 409.116 198.692 409.173 198.823C409.322 199.124 409.584 199.443 409.659 199.763C409.734 200.026 409.772 200.307 409.94 200.533C409.996 200.627 410.09 200.664 410.165 200.683C409.491 201.491 408.798 202.299 408.068 203.05C407.993 202.712 407.844 202.374 407.675 202.111C407.188 201.284 406.327 200.739 405.541 200.251C405.448 200.195 405.317 200.345 405.373 200.42C405.934 201.096 406.477 201.81 406.739 202.656C406.889 203.106 406.777 203.726 406.833 204.233C406.121 204.91 405.391 205.567 404.661 206.206C404.568 205.887 404.437 205.567 404.324 205.267C404.025 204.515 403.52 203.858 402.864 203.369C402.808 203.332 402.696 203.426 402.733 203.482C403.22 204.158 403.426 204.91 403.557 205.736C403.613 206.187 403.52 206.713 403.613 207.164C403.351 207.408 403.108 207.634 402.827 207.878C402.322 208.329 401.797 208.742 401.292 209.155C401.367 208.479 401.255 207.784 400.899 207.239C400.113 206.037 399.046 205.417 397.829 204.741C397.754 204.703 397.679 204.816 397.717 204.891C398.634 206.056 399.27 207.032 399.57 208.498C399.682 209.061 399.495 209.813 399.701 210.357C398.971 210.883 398.241 211.391 397.492 211.879C397.211 212.086 396.931 212.274 396.669 212.48C396.856 211.823 396.949 211.128 396.8 210.527C396.575 209.587 395.789 208.46 395.096 207.784C395.021 207.709 394.872 207.859 394.928 207.934C395.414 208.817 395.826 210.207 395.808 211.222C395.808 211.973 395.358 212.687 395.396 213.401C395.115 213.589 394.853 213.795 394.572 213.983C394.123 214.302 393.655 214.622 393.168 214.922C393.73 213.495 393.917 212.105 393.505 210.47C392.962 208.329 390.903 207.389 389.088 206.563C389.05 206.544 388.975 206.619 389.013 206.657C390.323 207.953 391.184 209.118 391.764 210.883C392.27 212.386 392.176 214.002 392.101 215.561C391.334 215.974 390.566 216.331 389.78 216.557C390.023 214.453 389.911 212.142 388.414 210.545C387.553 209.625 383.397 205.004 381.993 205.379C386.261 204.215 390.622 204.083 394.965 203.632C398.335 203.275 400.993 201.51 403.744 199.631C407.413 197.133 411.419 194.897 414.769 192.023C415.106 191.741 415.368 191.403 415.612 191.046C415.556 191.215 415.518 191.384 415.443 191.572L415.5 191.553Z" fill="#F0F0F0"/>
<path d="M415.369 100.088C415.2 101.741 415.144 103.413 415.125 105.085C415.013 113.05 415.219 121.034 415.256 128.998C415.275 134.596 415.387 140.194 415.331 145.792C412.261 146.844 409.266 148.047 406.215 149.155C404.606 149.756 402.827 149.7 401.592 150.996C401.236 151.372 400.843 152.424 401.592 152.649C405.148 153.739 409.004 153.645 412.692 153.945C414.077 153.87 414.714 154.471 414.751 156.387C414.863 161.553 415.462 166.644 415.743 171.791C415.912 174.741 416.136 177.69 416.286 180.62C416.286 180.846 416.286 181.052 416.286 181.278C416.323 181.447 416.342 181.635 416.38 181.804C416.211 181.898 416.061 182.01 415.912 182.18C415.743 182.33 415.593 182.518 415.481 182.706C415.724 182.33 414.938 182.912 414.938 182.912C413.778 183.57 412.523 184.114 411.194 184.321C410.783 184.396 410.371 184.903 410.464 185.317C410.558 185.805 410.989 186.106 411.494 185.955C411.625 185.918 411.756 185.899 411.906 185.88C412.168 186.124 412.486 186.312 412.673 186.444C413.553 187.045 414.452 188.491 415.593 188.322C414.826 190.877 412.037 191.948 409.978 193.319C405.991 195.987 402.06 198.692 397.829 200.965C395.883 202.017 392.27 201.773 389.949 202.111C387.703 202.43 385.494 203.182 383.304 203.726C382.349 203.97 380.721 204.346 380.402 205.473C380.365 205.586 380.346 205.793 380.477 205.868C382.349 207.108 384.24 207.728 385.718 209.606C387.497 211.86 388.058 213.945 387.965 216.744C387.59 216.744 387.197 216.688 386.823 216.575C386.392 216.557 385.962 216.519 385.513 216.444C383.978 216.125 382.499 215.655 380.926 215.373C377.838 214.81 374.88 215.805 371.96 216.707C366.981 218.229 361.777 218.886 356.611 219.356C353.635 219.619 350.658 219.9 347.663 219.994C346.147 220.051 343.527 220.633 342.141 219.806C341.561 219.45 341.449 218.473 341.374 217.665C341.149 216.989 341 216.068 340.869 215.11C340.401 213.288 339.895 211.485 339.558 209.644C339.334 209.7 339.09 209.831 338.922 210.019C337.293 211.935 336.451 214.471 335.515 216.782C335.159 217.665 334.504 218.304 333.662 218.773C323.498 218.398 313.315 218.003 303.019 218.548C291.975 219.13 282.279 216.575 271.348 216.331C270.206 216.312 269.288 216.237 268.521 216.106C265.133 214.659 264.74 212.837 264.459 210.79C264.571 209.287 264.422 207.709 264.047 206.281C263.729 205.098 262.924 204.271 263.168 202.975C263.28 202.374 263.448 201.773 263.355 201.171C263.205 200.119 261.951 200.833 261.614 201.322C260.828 202.505 260.528 203.877 259.686 205.079C259.218 205.755 258.825 206.45 258.469 207.145H258.432C258.525 206.413 258.282 205.567 258.151 204.929C257.964 204.083 258.001 203.257 257.72 202.411C257.664 202.242 257.608 202.073 257.552 201.923C257.552 200.852 257.327 199.763 257.009 198.692C256.672 197.997 256.316 197.32 255.961 196.625C255.867 196.325 255.755 196.024 255.624 195.724C255.156 194.672 254.969 193.394 254.37 192.436C254.239 192.23 253.995 192.117 253.771 192.192C252.386 192.624 251.057 193.263 249.728 193.864C249.596 193.902 249.465 193.939 249.334 193.977C246.358 194.465 243.344 194.916 240.368 195.404C239.882 195.461 239.395 195.498 238.927 195.555C236.887 195.799 234.884 196.325 232.881 196.813C231.608 197.001 230.335 197.189 229.062 197.321C226.722 197.64 224.401 197.865 222.061 198.034C221.537 199.105 221.2 200.251 221.125 201.472C221.107 201.81 220.826 202.017 220.564 202.017C219.834 200.627 218.804 199.481 217.868 198.072C217.307 197.227 215.866 197.828 214.536 198.354C212.403 198.372 210.269 198.354 208.116 198.279C198.083 197.828 187.993 197.208 177.979 196.475C173.187 196.118 168.32 195.63 163.566 196.588C163.023 196.701 162.517 196.832 162.031 196.982C161.394 197.396 160.777 197.846 160.215 198.354C159.185 199.293 158.156 200.364 157.594 201.697C156.846 203.52 157.183 204.891 157.576 206.488C157.8 206.488 158.006 206.394 158.193 206.244C159.897 204.966 162.667 204.647 164.839 204.666C164.876 205.83 164.408 207.183 163.397 208.686C162.068 211.128 158.83 211.616 156.434 212.161C152.746 213.006 148.946 212.781 145.203 212.668C140.729 212.537 136.311 212.33 131.856 212.443C130.153 212.48 128.955 212.555 127.289 212.762C127.233 212.762 127.195 212.762 127.158 212.762C126.952 212.461 126.746 212.161 126.521 211.86C124.706 209.343 125.155 205.868 125.155 202.975C125.155 201.585 123.452 202.43 123.321 203.388C122.871 206.751 120.794 209.287 119.352 212.217C118.903 213.138 118.641 213.739 118.416 214.133C115.871 214.622 113.212 214.828 110.629 215.054C109.431 215.167 108.252 215.317 107.054 215.505C101.963 215.599 96.8711 215.749 91.8171 215.993C83.8242 215.711 75.4008 213.589 69.1301 208.667C61.6801 202.825 59.9205 193.488 53.369 187.139C52.4144 186.218 51.0479 185.185 49.6814 184.096C49.1386 183.795 48.5957 183.495 48.0342 183.194C43.6166 180.865 43.055 175.699 41.7073 171.284C39.0118 162.53 38.0197 152.104 33.4149 143.914C33.2465 143.689 33.078 143.463 32.9095 143.238C32.9095 143.144 32.8721 143.05 32.8721 142.956C32.7223 142.731 32.5726 142.486 32.4228 142.261C29.2594 142.486 25.9275 143.369 22.9512 144.365C19.638 145.473 17.3918 148.253 14.6401 150.245C14.3032 150.489 13.9288 151.297 14.5091 151.522C15.8381 152.029 20.5178 151.616 20.7611 152.818C21.1729 154.847 22.2773 156.838 23.9059 158.116C22.6517 159.618 21.0981 160.877 19.0203 161.685C15.2766 163.15 10.2038 164.127 7.90143 161.516C7.82655 161.234 7.7704 160.933 7.71424 160.633C7.50834 158.116 7.32115 155.598 7.20884 153.081C7.30243 148.422 8.18221 143.914 8.59402 139.161C8.76249 137.32 10.5782 135.31 8.81864 133.544C8.7812 133.488 8.72505 133.451 8.68761 133.394C10.5969 132.793 12.6185 132.248 14.4717 131.534C17.1672 130.501 22.9138 130.182 24.8605 127.665C25.2536 127.158 25.4595 126.256 24.5985 126.143C22.0153 125.749 7.52706 125.673 7.65809 124.321C7.80784 122.912 7.95758 121.559 8.03246 120.245C7.56449 117.145 7.20884 114.008 7.28371 110.871C7.37731 106.869 6.74087 103.375 4.56951 99.9565C4.38232 99.6559 4.56951 99.2614 4.86901 99.1487C8.03246 98.0779 11.4018 98.4536 14.6027 97.3453C16.9425 96.5375 19.1888 95.7673 21.3788 94.7153C21.3227 94.6778 21.2478 94.6402 21.1729 94.6026C18.3277 93.607 16.5682 93.4004 13.2362 93.3628C7.04037 93.3252 8.10733 91.6721 7.33987 88.6665C6.46009 85.2664 6.62856 81.359 6.44137 77.9025C6.25419 74.5024 7.45218 71.0835 7.13396 67.7397C6.98422 66.2557 5.24338 52.1292 4.38232 52.1667C10.0915 51.9225 15.913 50.1003 21.304 49.1799C25.1787 48.5224 28.9599 48.3721 32.7411 47.5455C33.209 47.4328 33.6208 46.8505 32.9095 46.7753C25.3472 46.0615 17.4854 44.8592 9.86689 44.6714C9.43636 44.6714 9.43636 42.5111 9.49251 40.332C10.0354 37.7208 10.3723 35.0345 10.6343 32.367C12.6747 29.568 15.2953 27.7646 20.0498 29.5492C22.0153 30.3006 23.8497 31.7283 25.6654 32.7991C27.8368 34.0953 28.155 35.2224 29.0348 37.3827C29.1284 37.6269 29.4466 37.533 29.615 37.4391C31.2061 36.481 31.8987 34.7152 32.7598 33.0996C34.6504 29.5304 38.9369 26.4685 41.5763 23.3501C43.5417 21.002 45.5072 18.635 47.3229 16.1741C49.0824 13.7884 51.4597 12.1729 53.5749 10.2568C55.8024 10.4258 58.0299 10.5761 60.3885 10.4446C66.9026 10.0689 72.4995 7.94619 79.2382 7.75834C81.2785 7.70198 107.316 8.34068 107.241 8.02133C108.009 10.7076 108.645 14.352 110.723 17.2825C111.865 19.4052 111.341 22.223 112.894 24.2142C113.175 24.5711 113.699 24.0076 113.793 23.7822C115.459 19.5931 118.585 17.3012 121.037 13.6757C121.842 13.4503 122.722 13.6381 123.807 14.352C124.313 14.6713 124.799 15.047 125.249 15.4227C126.54 16.6062 127.645 17.9212 127.832 18.2405C128.393 19.2361 128.693 20.2693 128.843 21.3213C128.281 21.4528 127.719 21.7158 127.289 21.8473C126.428 22.1103 125.174 21.8661 124.65 22.7678C123.92 24.0076 124.612 25.5104 125.005 26.7878C125.342 27.8961 125.941 30.1692 126.971 30.883C126.971 30.9018 126.952 30.9393 126.933 30.9581C126.989 30.9581 127.046 30.9581 127.083 30.9581C127.083 30.9581 127.102 30.9769 127.12 30.9769C127.289 31.0521 127.457 31.0333 127.626 30.9581C128.543 30.9581 129.46 30.9581 130.359 31.0521C133.279 31.3526 136.199 31.5405 139.138 31.5593C139.344 31.5593 139.55 31.5593 139.756 31.5593C141.871 31.2587 143.967 30.9018 146.008 30.5449C147.449 30.3006 148.89 29.4741 150.35 29.0608C151.193 28.8354 152.447 29.0984 153.252 28.5912C153.551 27.3326 154.319 26.2055 154.693 24.9093C154.861 24.3081 155.704 24.4209 155.76 25.0408C155.854 26.243 156.546 27.4265 157.239 28.4597C159.485 29.568 162.499 27.9525 164.988 27.0132C169.462 25.3414 173.861 24.1767 178.597 23.5943C183.969 22.9368 188.948 20.9644 192.392 26.5624C193.141 25.9237 193.871 25.2474 194.564 24.5336C196.061 22.2418 196.454 19.1422 195.125 16.7377C195.125 16.7001 195.107 16.6625 195.088 16.6438C195.743 16.099 196.398 15.5542 197.053 15.0282C197.147 14.9531 197.259 14.8967 197.353 14.8028V14.7652C197.615 14.5398 197.896 14.3332 198.158 14.1077C198.738 13.6569 199.281 13.1685 199.88 12.7552C199.973 12.6801 200.067 12.6237 200.161 12.5674C204.372 13.5066 221.2 14.3332 222.941 14.5398C227.789 15.0846 232.768 15.2912 237.804 15.2912C239.114 17.583 240.555 19.9124 241.154 22.3733C241.248 22.7302 241.416 22.9556 241.641 23.0495C244.524 20.2318 243.756 14.9719 244.505 11.3839C245.123 8.35945 247.294 8.02132 250.102 8.24674C257.215 8.77273 255.867 15.31 254.632 20.8329C258.581 20.908 262.55 20.7577 266.443 21.3777C268.615 21.7158 271.123 23.1623 273.294 22.9932C273.369 22.9932 273.463 22.9932 273.538 22.9932C274.062 21.6407 274.736 20.3257 275.035 18.898C275.166 18.3344 275.896 18.4096 276.083 18.8792C276.476 19.9312 276.926 20.9456 277.394 21.9412C279.359 21.7722 281.268 21.6782 283.253 21.171C285.237 20.6638 287.221 20.1754 289.205 19.6306C293.492 18.4847 297.797 17.32 302.158 16.4183C306.22 15.573 310.32 15.1785 314.475 14.8779C314.999 14.8404 315.524 14.784 316.066 14.7277C316.104 14.2956 316.104 13.8448 316.085 13.4127H316.029C316.029 13.4127 316.048 13.2436 316.066 13.1497C316.048 12.4734 316.01 11.7972 316.104 11.1209C316.179 10.6325 316.853 10.6137 317.096 10.9706C317.826 12.0977 318.5 13.2812 319.249 14.3895C319.829 14.3332 320.409 14.2956 320.971 14.2768C322.786 14.089 324.639 13.6569 326.436 13.5066C329.394 13.2624 332.37 13.0746 335.328 13.2812C337.05 13.4127 338.154 13.9011 339.259 15.1597C339.296 15.1785 339.334 15.1973 339.352 15.2349V15.2724C339.352 15.2724 339.352 15.2912 339.371 15.31C339.633 15.6106 339.989 15.8924 340.363 16.1554C340.681 15.3852 340.943 14.5962 341.187 13.8072C341.224 12.9806 341.243 12.1729 341.299 11.3651C341.299 11.3088 341.299 11.2524 341.299 11.1772C342.104 10.8955 343.227 10.8579 344.444 10.9518C346.484 10.8579 348.543 11.4215 350.565 11.6845C353.111 12.0038 355.862 12.2668 358.071 13.7133C358.838 14.2205 359.381 14.8028 359.831 15.4603C359.868 15.5166 359.905 15.573 359.943 15.6294C359.943 15.6482 359.98 15.6857 359.999 15.7045C360.111 15.8924 360.224 16.0614 360.317 16.2681C360.86 17.32 361.234 18.5223 361.74 19.7809C362.713 22.1291 362.376 24.8341 361.646 27.2011C361.534 27.558 361.029 27.7834 360.748 27.4641C359.25 25.8298 357.64 24.3082 356.536 22.4109C353.784 24.233 351.613 26.7878 350.284 29.8498C349.255 32.198 348.525 35.8799 350.883 37.7208C351.332 38.0778 351.782 38.4535 352.193 38.8292C353.298 39.3739 354.402 39.9375 355.432 40.6513C356.761 41.553 357.977 42.5862 359.194 43.6194C363.799 46.7002 368.422 49.7622 373.008 52.843C380.964 58.1968 388.695 63.8512 396.575 69.2989C396.762 69.4304 396.95 69.5807 397.137 69.7122C397.942 70.2194 398.765 70.7266 399.57 71.2338C402.49 73.1123 405.373 75.0284 408.143 77.1323C410.277 78.7667 412.636 80.3446 414.152 82.6176C414.189 82.674 414.208 82.7304 414.227 82.7867C414.32 82.8994 414.433 83.0121 414.508 83.1624C414.695 83.463 414.508 83.8575 414.171 83.9514C408.518 85.736 402.472 85.6984 396.725 86.9195C398.69 87.2388 400.656 87.4642 402.64 87.6897C406.646 88.1593 411.063 87.9339 414.845 89.4179C415.2 89.5682 415.387 90.019 415.069 90.3196C414.77 90.6014 413.029 92.1606 411.681 93.3253C412.261 93.87 412.991 94.3584 413.403 94.7153C414.264 95.4855 414.826 96.2557 415.294 97.3265C415.668 98.1906 415.518 99.205 415.425 100.107L415.369 100.088Z" fill="#F0F0F0"/>
</svg>
