<svg aria-hidden="true" style="position: absolute; width: 0; height: 0; overflow: hidden;" version="1.1" xmlns="http://www.w3.org/2000/svg" xmlns:xlink="http://www.w3.org/1999/xlink">
<defs>
<symbol id="icon-cart" viewBox="0 0 32 32">
<path stroke-linejoin="round" stroke-linecap="round" stroke-miterlimit="4" stroke-width="2" d="M23 23c-1.381 0-2.5 1.119-2.5 2.5s1.119 2.5 2.5 2.5c1.381 0 2.5-1.119 2.5-2.5s-1.119-2.5-2.5-2.5zM23 23h-14.273l-3.487-19.179c-0.042-0.23-0.163-0.439-0.343-0.589s-0.407-0.232-0.641-0.232h-2.256M7.818 18h15.694c0.468 0 0.922-0.164 1.281-0.465s0.603-0.717 0.686-1.178l1.52-8.358h-21M12.5 25.5c0 1.381-1.119 2.5-2.5 2.5s-2.5-1.119-2.5-2.5c0-1.381 1.119-2.5 2.5-2.5s2.5 1.119 2.5 2.5z"></path>
</symbol>
<symbol id="icon-crown" viewBox="0 0 32 32">
<path stroke-linejoin="round" stroke-linecap="round" stroke-miterlimit="4" stroke-width="0.6857" d="M11.428 21.954c3.039-0.32 6.104-0.32 9.143 0M4.16 26.86c0.036 0.15 0.101 0.292 0.193 0.416s0.208 0.229 0.341 0.307c0.133 0.078 0.281 0.129 0.434 0.148s0.309 0.008 0.457-0.034c6.813-1.881 14.008-1.882 20.821-0.002 0.149 0.042 0.304 0.053 0.457 0.034s0.301-0.070 0.434-0.148c0.133-0.078 0.249-0.183 0.341-0.307s0.157-0.265 0.193-0.416l3.641-15.474c0.049-0.207 0.039-0.424-0.029-0.626s-0.19-0.381-0.354-0.516-0.362-0.223-0.573-0.252c-0.211-0.029-0.426 0.001-0.62 0.088l-7.226 3.212c-0.261 0.116-0.556 0.13-0.827 0.040s-0.498-0.279-0.637-0.529l-4.207-7.573c-0.099-0.178-0.244-0.327-0.419-0.43s-0.376-0.158-0.58-0.158c-0.204 0-0.404 0.054-0.58 0.158s-0.32 0.252-0.419 0.43l-4.207 7.573c-0.139 0.25-0.366 0.438-0.637 0.529s-0.566 0.076-0.827-0.040l-7.227-3.212c-0.194-0.086-0.409-0.117-0.62-0.088s-0.409 0.116-0.573 0.252c-0.164 0.136-0.287 0.314-0.354 0.516s-0.078 0.418-0.029 0.625l3.635 15.476z"></path>
</symbol>
<symbol id="icon-game-controller" viewBox="0 0 32 32">
<path stroke-linejoin="round" stroke-linecap="round" stroke-miterlimit="4" stroke-width="0.6" d="M18.999 13.5h4M8.999 13.5h4M10.999 11.5v4M27.903 12.339l2.044 10.553c0.129 0.733 0.021 1.488-0.308 2.156s-0.863 1.213-1.523 1.557-1.413 0.468-2.149 0.355c-0.736-0.113-1.416-0.458-1.943-0.984l-5.401-5.996M21.502 6.967l-11.002 0.033c-1.528 0-3.008 0.539-4.178 1.521s-1.958 2.345-2.224 3.85l-2.045 10.521c-0.129 0.733-0.021 1.488 0.308 2.156s0.863 1.213 1.523 1.557c0.66 0.344 1.413 0.468 2.149 0.355s1.416-0.458 1.943-0.984l5.404-5.975 8.122-0.033c1.724 0 3.377-0.685 4.596-1.904s1.904-2.872 1.904-4.596-0.685-3.377-1.904-4.596c-1.219-1.219-2.872-1.904-4.596-1.904z"></path>
</symbol>
<symbol id="icon_heart" viewBox="0 0 32 32">
<path stroke-linejoin="round" stroke-linecap="round" stroke-miterlimit="4" stroke-width="2.1818" d="M16 28c0 0-13.636-7.636-13.636-16.909 0-1.639 0.568-3.227 1.607-4.495s2.485-2.136 4.092-2.458c1.607-0.322 3.276-0.077 4.723 0.692s2.583 2.016 3.215 3.529v0c0.632-1.512 1.768-2.759 3.215-3.529s3.116-1.014 4.723-0.692 3.053 1.191 4.092 2.458c1.039 1.268 1.607 2.856 1.607 4.495 0 9.273-13.636 16.909-13.636 16.909z"></path>
</symbol>
<symbol id="icon-Identification-card" viewBox="0 0 32 32">
<path stroke-linejoin="round" stroke-linecap="round" stroke-miterlimit="4" stroke-width="2" d="M19 18h5M7.639 21c0.222-0.859 0.723-1.619 1.424-2.162s1.563-0.838 2.45-0.838M11.512 18c0.887 0 1.749 0.295 2.45 0.837s1.202 1.304 1.424 2.162M11.512 18c1.657 0 3-1.343 3-3s-1.343-3-3-3c-1.657 0-3 1.343-3 3s1.343 3 3 3zM19 14h5M5 6h22c0.552 0 1 0.448 1 1v18c0 0.552-0.448 1-1 1h-22c-0.552 0-1-0.448-1-1v-18c0-0.552 0.448-1 1-1z"></path>
</symbol>
<symbol id="icon-Image" viewBox="0 0 32 32">
<path stroke-linejoin="round" stroke-linecap="round" stroke-miterlimit="4" stroke-width="0.4" d="M4 21l6.293-6.293c0.093-0.093 0.203-0.167 0.324-0.217s0.251-0.076 0.383-0.076c0.131 0 0.261 0.026 0.383 0.076s0.232 0.124 0.324 0.217l5.586 5.586c0.093 0.093 0.203 0.167 0.324 0.217s0.251 0.076 0.383 0.076c0.131 0 0.261-0.026 0.383-0.076s0.232-0.124 0.324-0.217l2.586-2.586c0.093-0.093 0.203-0.167 0.324-0.217s0.251-0.076 0.383-0.076c0.131 0 0.261 0.026 0.383 0.076s0.232 0.124 0.324 0.217l5.293 5.293M5 6h22c0.552 0 1 0.448 1 1v18c0 0.552-0.448 1-1 1h-22c-0.552 0-1-0.448-1-1v-18c0-0.552 0.448-1 1-1zM21 12.5c0 0.828-0.672 1.5-1.5 1.5s-1.5-0.672-1.5-1.5c0-0.828 0.672-1.5 1.5-1.5s1.5 0.672 1.5 1.5z"></path>
</symbol>
<symbol id="icon-Pedestrian" viewBox="0 0 32 32">
<path stroke-linejoin="round" stroke-linecap="round" stroke-miterlimit="4" stroke-width="2" d="M19.239 16.839l4.343 3.378c0.281 0.281 0.663 0.439 1.061 0.439s0.779-0.158 1.061-0.439c0.281-0.281 0.439-0.663 0.439-1.061s-0.158-0.779-0.439-1.061l-4.95-6.364c-0.232-0.232-0.507-0.417-0.811-0.543s-0.629-0.19-0.957-0.19h-6c-0.328-0-0.654 0.064-0.957 0.19s-0.579 0.31-0.811 0.543l-4.95 6.364c-0.139 0.139-0.25 0.305-0.325 0.487s-0.114 0.377-0.114 0.574c0 0.197 0.039 0.392 0.114 0.574s0.186 0.347 0.325 0.487c0.139 0.139 0.305 0.25 0.487 0.325s0.377 0.114 0.574 0.114c0.197 0 0.392-0.039 0.574-0.114s0.347-0.186 0.487-0.325l4.343-3.378-3.467 10.949c-0.168 0.361-0.186 0.773-0.050 1.147s0.415 0.678 0.776 0.846c0.361 0.168 0.773 0.186 1.147 0.050s0.678-0.415 0.846-0.776l4.001-6.296 4.001 6.296c0.169 0.36 0.473 0.638 0.847 0.773s0.785 0.117 1.146-0.051c0.36-0.168 0.639-0.472 0.775-0.845s0.119-0.785-0.048-1.146l-3.467-10.949z"></path>
<path stroke-linejoin="round" stroke-linecap="round" stroke-miterlimit="4" stroke-width="2" d="M15.986 9c1.933 0 3.5-1.567 3.5-3.5s-1.567-3.5-3.5-3.5c-1.933 0-3.5 1.567-3.5 3.5s1.567 3.5 3.5 3.5z"></path>
</symbol>
<symbol id="icon-person" viewBox="0 0 32 32">
<path d="M3.008 26.499c-0.276 0.478-0.113 1.090 0.366 1.366s1.090 0.113 1.366-0.366l-1.732-1.001zM27.261 27.499c0.276 0.478 0.888 0.642 1.366 0.366s0.642-0.888 0.366-1.366l-1.732 1.001zM4.74 27.499c1.142-1.976 2.783-3.617 4.76-4.758l-1-1.732c-2.281 1.316-4.175 3.209-5.492 5.489l1.732 1.001zM9.499 22.741c1.977-1.141 4.219-1.741 6.501-1.741v-2c-2.633 0-5.22 0.693-7.501 2.009l1 1.732zM16 21c2.282 0 4.524 0.601 6.501 1.741l1-1.732c-2.281-1.316-4.867-2.009-7.5-2.009v2zM22.501 22.741c1.977 1.141 3.618 2.782 4.76 4.758l1.732-1.001c-1.317-2.28-3.211-4.173-5.492-5.489l-1 1.732zM23 12c0 3.866-3.134 7-7 7v2c4.971 0 9-4.029 9-9h-2zM16 19c-3.866 0-7-3.134-7-7h-2c0 4.971 4.030 9 9 9v-2zM9 12c0-3.866 3.134-7 7-7v-2c-4.971 0-9 4.029-9 9h2zM16 5c3.866 0 7 3.134 7 7h2c0-4.971-4.029-9-9-9v2z"></path>
</symbol>
<symbol id="icon-puzzle" viewBox="0 0 32 32">
<path stroke-linejoin="round" stroke-linecap="round" stroke-miterlimit="4" stroke-width="0.6" d="M7.999 27c-0.131 0-0.261-0.026-0.383-0.076s-0.232-0.124-0.324-0.217c-0.093-0.093-0.167-0.203-0.217-0.324s-0.076-0.251-0.076-0.383l0-5.337c-0.533 0.253-1.122 0.366-1.711 0.33s-1.16-0.22-1.658-0.536c-0.499-0.316-0.91-0.752-1.194-1.269s-0.434-1.098-0.434-1.688c0-0.59 0.149-1.171 0.434-1.688s0.696-0.954 1.194-1.269c0.499-0.316 1.069-0.5 1.658-0.536s1.178 0.078 1.711 0.33l-0-5.337c0-0.131 0.026-0.261 0.076-0.383s0.124-0.232 0.217-0.324c0.093-0.093 0.203-0.167 0.324-0.217s0.251-0.076 0.383-0.076l5.837 0c-0.253-0.533-0.366-1.122-0.33-1.711s0.22-1.16 0.536-1.659c0.316-0.499 0.752-0.91 1.269-1.194s1.098-0.434 1.688-0.434 1.171 0.149 1.688 0.434c0.517 0.285 0.954 0.696 1.269 1.194s0.5 1.069 0.536 1.659c0.036 0.589-0.078 1.178-0.33 1.711l5.837-0c0.265 0 0.52 0.105 0.707 0.293s0.293 0.442 0.293 0.707l0 5.337c-0.533-0.253-1.122-0.366-1.711-0.33s-1.16 0.22-1.658 0.536c-0.499 0.316-0.91 0.752-1.194 1.269s-0.434 1.098-0.434 1.688 0.149 1.171 0.434 1.688c0.285 0.517 0.696 0.954 1.194 1.269s1.069 0.5 1.658 0.536c0.589 0.036 1.178-0.078 1.711-0.33l-0 5.337c0 0.265-0.105 0.52-0.293 0.707s-0.442 0.293-0.707 0.293h-18z"></path>
</symbol>
<symbol id="icon-ShieldCheck" viewBox="0 0 32 32">
<path stroke-linejoin="round" stroke-linecap="round" stroke-miterlimit="4" stroke-width="2" d="M21.5 12l-7.333 7-3.667-3.5M5 13.333v-7.333c0-0.265 0.105-0.52 0.293-0.707s0.442-0.293 0.707-0.293h20c0.265 0 0.52 0.105 0.707 0.293s0.293 0.442 0.293 0.707v7.333c0 10.502-8.913 13.981-10.693 14.571-0.199 0.068-0.415 0.068-0.614 0-1.78-0.59-10.693-4.069-10.693-14.571z"></path>
</symbol>
<symbol id="icon-Truck" viewBox="0 0 32 32">
<path d="M2 17c-0.552 0-1 0.448-1 1s0.448 1 1 1v-2zM22 19c0.552 0 1-0.448 1-1s-0.448-1-1-1v2zM21 21.402c0 0.552 0.448 1 1 1s1-0.448 1-1h-2zM30 15h1c0-0.127-0.024-0.253-0.071-0.371l-0.929 0.371zM22 10v-1c-0.552 0-1 0.448-1 1h1zM27.323 10v0zM28.251 10.629v0zM2 23v0zM3 8v0zM22 8h1c0-0.552-0.448-1-1-1v1zM20.5 23h-9v2h9v-2zM25.5 24c0 1.105-0.895 2-2 2v2c2.209 0 4-1.791 4-4h-2zM23.5 26c-1.105 0-2-0.895-2-2h-2c0 2.209 1.791 4 4 4v-2zM21.5 24c0-1.105 0.895-2 2-2v-2c-2.209 0-4 1.791-4 4h2zM23.5 22c1.105 0 2 0.895 2 2h2c0-2.209-1.791-4-4-4v2zM10.5 24c0 1.105-0.895 2-2 2v2c2.209 0 4-1.791 4-4h-2zM8.5 26c-1.105 0-2-0.895-2-2h-2c0 2.209 1.791 4 4 4v-2zM6.5 24c0-1.105 0.895-2 2-2v-2c-2.209 0-4 1.791-4 4h2zM8.5 22c1.105 0 2 0.895 2 2h2c0-2.209-1.791-4-4-4v2zM2 19h20v-2h-20v2zM23 21.402v-6.402h-2v6.402h2zM22 16h8v-2h-8v2zM29 15v8h2v-8h-2zM29 23v0l1.414 1.414c0.375-0.375 0.586-0.884 0.586-1.414h-2zM29 23v0 2c0.53 0 1.039-0.211 1.414-0.586l-1.414-1.414zM29 23h-2.5v2h2.5v-2zM23 15v-5h-2v5h2zM22 11h5.323v-2h-5.323v2zM27.323 11v0l1.121-1.656c-0.331-0.224-0.722-0.344-1.121-0.344v2zM27.323 11v0l1.857-0.743c-0.148-0.371-0.405-0.689-0.736-0.913l-1.121 1.656zM27.323 11l1.749 4.371 1.857-0.743-1.749-4.371-1.857 0.743zM5.5 23h-2.5v2h2.5v-2zM3 23v0l-1.414 1.414c0.375 0.375 0.884 0.586 1.414 0.586v-2zM3 23v0h-2c0 0.53 0.211 1.039 0.586 1.414l1.414-1.414zM3 23v-14h-2v14h2zM3 9v0l-1.414-1.414c-0.375 0.375-0.586 0.884-0.586 1.414h2zM3 9v0-2c-0.53 0-1.039 0.211-1.414 0.586l1.414 1.414zM3 9h19v-2h-19v2zM21 8v13.402h2v-13.402h-2z"></path>
</symbol>
<symbol id="icon-users" viewBox="0 0 32 32">
<path d="M19.346 6.953c-0.159 0.045-0.252 0.211-0.207 0.37s0.211 0.252 0.37 0.207l-0.163-0.578zM21.191 20l-0-0.3c-0.166 0-0.3 0.134-0.3 0.3s0.134 0.3 0.3 0.3l-0-0.3zM29.945 24.846c0.095 0.136 0.282 0.168 0.418 0.073s0.168-0.282 0.073-0.418l-0.491 0.345zM1.755 24.502c-0.095 0.136-0.063 0.323 0.073 0.418s0.323 0.063 0.418-0.073l-0.491-0.345zM19.755 24.846c0.095 0.136 0.282 0.168 0.418 0.073s0.168-0.282 0.073-0.418l-0.491 0.345zM17.201 13.5c0 3.424-2.776 6.2-6.2 6.2v0.6c3.756 0 6.8-3.044 6.8-6.8h-0.6zM11.001 19.7c-3.424 0-6.2-2.776-6.2-6.2h-0.6c0 3.756 3.044 6.8 6.8 6.8v-0.6zM4.801 13.5c0-3.424 2.776-6.2 6.2-6.2v-0.6c-3.756 0-6.8 3.044-6.8 6.8h0.6zM11.001 7.3c3.424 0 6.2 2.776 6.2 6.2h0.6c0-3.756-3.044-6.8-6.8-6.8v0.6zM19.509 7.531c0.853-0.24 1.747-0.295 2.623-0.161l0.091-0.593c-0.96-0.148-1.941-0.087-2.877 0.176l0.163 0.578zM22.131 7.37c0.876 0.134 1.712 0.455 2.454 0.94l0.329-0.502c-0.813-0.532-1.731-0.884-2.691-1.031l-0.091 0.593zM24.585 8.31c0.741 0.485 1.37 1.123 1.844 1.872l0.507-0.321c-0.52-0.821-1.209-1.521-2.023-2.053l-0.329 0.502zM26.429 10.182c0.474 0.749 0.782 1.59 0.903 2.468l0.594-0.082c-0.133-0.963-0.471-1.885-0.991-2.706l-0.507 0.321zM27.333 12.65c0.121 0.878 0.053 1.771-0.2 2.62l0.575 0.171c0.278-0.931 0.352-1.911 0.219-2.874l-0.594 0.082zM27.133 15.27c-0.253 0.849-0.685 1.634-1.267 2.302l0.452 0.394c0.638-0.733 1.112-1.594 1.39-2.525l-0.575-0.171zM25.866 17.572c-0.582 0.668-1.3 1.204-2.107 1.571l0.249 0.546c0.884-0.403 1.672-0.99 2.311-1.723l-0.452-0.394zM23.759 19.143c-0.806 0.367-1.682 0.557-2.568 0.557l0 0.6c0.972-0 1.932-0.208 2.817-0.611l-0.249-0.546zM21.191 20.3c1.717-0.001 3.409 0.411 4.933 1.203l0.277-0.532c-1.609-0.836-3.397-1.271-5.21-1.27l0 0.6zM26.124 21.502c1.524 0.791 2.835 1.938 3.821 3.344l0.491-0.345c-1.042-1.484-2.426-2.696-4.036-3.531l-0.277 0.532zM2.246 24.847c0.988-1.405 2.298-2.551 3.822-3.342l-0.277-0.532c-1.609 0.836-2.994 2.046-4.036 3.53l0.491 0.345zM6.068 21.504c1.524-0.791 3.216-1.205 4.933-1.205v-0.6c-1.813 0-3.6 0.436-5.209 1.272l0.277 0.532zM11.001 20.3c1.717-0 3.408 0.413 4.932 1.204l0.277-0.532c-1.609-0.836-3.395-1.272-5.209-1.272v0.6zM15.933 21.504c1.524 0.791 2.835 1.938 3.822 3.342l0.491-0.345c-1.043-1.483-2.427-2.694-4.037-3.53l-0.277 0.532z"></path>
</symbol>
</defs>
</svg>
