<svg width="289" height="16" viewBox="0 0 289 16" fill="none" xmlns="http://www.w3.org/2000/svg">
<g clip-path="url(#clip0_1115_30690)">
<line x1="283.602" y1="2.18557e-08" x2="283.602" y2="8" stroke="#9A9EA2"/>
<line x1="277.705" y1="2.18557e-08" x2="277.705" y2="16" stroke="#9A9EA2"/>
<line x1="271.807" y1="2.18557e-08" x2="271.807" y2="8" stroke="#9A9EA2"/>
<line x1="265.91" y1="2.18557e-08" x2="265.91" y2="8" stroke="#9A9EA2"/>
<line x1="260.012" y1="2.18557e-08" x2="260.012" y2="16" stroke="#9A9EA2"/>
<line x1="254.115" y1="2.18557e-08" x2="254.115" y2="8" stroke="#9A9EA2"/>
<line x1="248.217" y1="2.18557e-08" x2="248.217" y2="8" stroke="#9A9EA2"/>
<line x1="242.319" y1="2.18557e-08" x2="242.319" y2="16" stroke="#9A9EA2"/>
<line x1="236.422" y1="2.18557e-08" x2="236.422" y2="8" stroke="#9A9EA2"/>
<line x1="230.524" y1="2.18557e-08" x2="230.524" y2="8" stroke="#9A9EA2"/>
<line x1="224.627" y1="2.18557e-08" x2="224.627" y2="16" stroke="#9A9EA2"/>
<line x1="218.729" y1="2.18557e-08" x2="218.729" y2="8" stroke="#9A9EA2"/>
<line x1="212.832" y1="2.18557e-08" x2="212.832" y2="8" stroke="#9A9EA2"/>
<line x1="206.934" y1="2.18557e-08" x2="206.934" y2="16" stroke="#9A9EA2"/>
<line x1="201.037" y1="2.18557e-08" x2="201.037" y2="8" stroke="#9A9EA2"/>
<line x1="195.139" y1="2.18557e-08" x2="195.139" y2="8" stroke="#9A9EA2"/>
<line x1="189.242" y1="2.18557e-08" x2="189.242" y2="16" stroke="#9A9EA2"/>
<line x1="183.344" y1="2.18557e-08" x2="183.344" y2="8" stroke="#9A9EA2"/>
<line x1="177.447" y1="2.18557e-08" x2="177.447" y2="8" stroke="#9A9EA2"/>
<line x1="171.549" y1="2.18557e-08" x2="171.549" y2="16" stroke="#9A9EA2"/>
<line x1="165.651" y1="2.18557e-08" x2="165.651" y2="8" stroke="#9A9EA2"/>
<line x1="159.754" y1="2.18557e-08" x2="159.754" y2="8" stroke="#9A9EA2"/>
<line x1="153.856" y1="2.18557e-08" x2="153.856" y2="16" stroke="#9A9EA2"/>
<line x1="147.959" y1="2.18557e-08" x2="147.959" y2="8" stroke="#9A9EA2"/>
<line x1="142.062" y1="2.18557e-08" x2="142.062" y2="8" stroke="#9A9EA2"/>
<line x1="136.164" y1="2.18557e-08" x2="136.164" y2="16" stroke="#9A9EA2"/>
<line x1="130.266" y1="2.18557e-08" x2="130.266" y2="8" stroke="#9A9EA2"/>
<line x1="124.369" y1="2.18557e-08" x2="124.369" y2="8" stroke="#9A9EA2"/>
<line x1="118.471" y1="2.18557e-08" x2="118.471" y2="16" stroke="#9A9EA2"/>
<line x1="112.574" y1="2.18557e-08" x2="112.574" y2="8" stroke="#9A9EA2"/>
<line x1="106.676" y1="2.18557e-08" x2="106.676" y2="8" stroke="#9A9EA2"/>
<line x1="100.779" y1="2.18557e-08" x2="100.779" y2="16" stroke="#9A9EA2"/>
<line x1="94.8809" y1="2.18557e-08" x2="94.8809" y2="8" stroke="#9A9EA2"/>
<line x1="88.9834" y1="2.18557e-08" x2="88.9834" y2="8" stroke="#9A9EA2"/>
<line x1="83.0859" y1="2.18557e-08" x2="83.0859" y2="16" stroke="#9A9EA2"/>
<line x1="77.1885" y1="2.18557e-08" x2="77.1885" y2="8" stroke="#9A9EA2"/>
<line x1="71.291" y1="2.18557e-08" x2="71.291" y2="8" stroke="#9A9EA2"/>
<line x1="65.3936" y1="2.18557e-08" x2="65.3936" y2="16" stroke="#9A9EA2"/>
<line x1="59.4961" y1="2.18557e-08" x2="59.4961" y2="8" stroke="#9A9EA2"/>
<line x1="53.5981" y1="2.18557e-08" x2="53.5981" y2="8" stroke="#9A9EA2"/>
<line x1="47.7007" y1="2.18557e-08" x2="47.7007" y2="16" stroke="#9A9EA2"/>
<line x1="41.8032" y1="2.18557e-08" x2="41.8032" y2="8" stroke="#9A9EA2"/>
<line x1="35.9058" y1="2.18557e-08" x2="35.9058" y2="8" stroke="#9A9EA2"/>
<line x1="30.0083" y1="2.18557e-08" x2="30.0083" y2="16" stroke="#9A9EA2"/>
<line x1="24.1108" y1="2.18557e-08" x2="24.1108" y2="8" stroke="#9A9EA2"/>
<line x1="18.2129" y1="2.18557e-08" x2="18.2129" y2="8" stroke="#9A9EA2"/>
<line x1="12.3154" y1="2.18557e-08" x2="12.3154" y2="16" stroke="#9A9EA2"/>
<line x1="6.41797" y1="2.18557e-08" x2="6.41797" y2="8" stroke="#9A9EA2"/>
<line x1="0.520508" y1="2.18557e-08" x2="0.520507" y2="8" stroke="#9A9EA2"/>
</g>
<defs>
<clipPath id="clip0_1115_30690">
<rect width="288.979" height="16" fill="white" transform="translate(0.0205078)"/>
</clipPath>
</defs>
</svg>
